<svg width="11" height="11" viewBox="0 0 11 11" fill="none" xmlns="http://www.w3.org/2000/svg">
<path d="M6.39157 9.47998C6.66027 9.21419 7.09347 9.21508 7.36105 9.48267C7.62952 9.75115 7.62952 10.1864 7.36105 10.4548L6.87497 9.96875C7.33835 10.4321 7.35971 10.4542 7.36038 10.4555L7.35501 10.4609C7.35295 10.4629 7.35056 10.4648 7.3483 10.4669C7.34375 10.4713 7.33889 10.4761 7.33353 10.481C7.32262 10.4909 7.30964 10.5021 7.29526 10.5139C7.26631 10.5378 7.23024 10.5653 7.18649 10.5945C7.09873 10.653 6.9811 10.7184 6.82931 10.7791C6.52451 10.901 6.09292 11 5.49997 11C4.90702 11 4.47543 10.901 4.17062 10.7791C4.01883 10.7184 3.90121 10.653 3.81345 10.5945C3.76969 10.5653 3.73363 10.5378 3.70468 10.5139C3.69029 10.5021 3.67732 10.4909 3.66641 10.481C3.66104 10.4761 3.65619 10.4713 3.65164 10.4669C3.64938 10.4648 3.64699 10.4629 3.64493 10.4609L3.63956 10.4555C3.64036 10.454 3.66301 10.4307 4.12497 9.96875L3.63888 10.4548C3.3704 10.1863 3.3704 9.75115 3.63888 9.48267C3.90648 9.21509 4.33968 9.21418 4.60837 9.47998L4.60031 9.47192C4.59716 9.46892 4.59421 9.46626 4.59158 9.46387C4.58627 9.45904 4.58186 9.45563 4.57883 9.45312C4.5727 9.44808 4.57156 9.44739 4.57614 9.45044C4.58507 9.45639 4.61804 9.47698 4.68088 9.50214C4.80575 9.55208 5.06187 9.625 5.49997 9.625C5.93808 9.625 6.1942 9.55208 6.31906 9.50214C6.38193 9.47697 6.4149 9.45637 6.4238 9.45044C6.42835 9.44741 6.42721 9.4481 6.42111 9.45312C6.41808 9.45563 6.41367 9.45904 6.40835 9.46387C6.40573 9.46626 6.40278 9.46892 6.39963 9.47192L6.39157 9.47998Z" fill="#657077"/>
<path fill-rule="evenodd" clip-rule="evenodd" d="M5.49997 0C6.5134 8.76204e-06 7.47846 0.422148 8.18484 1.16217C8.89011 1.90104 9.28115 2.89654 9.28122 3.92828C9.28122 5.48356 9.52965 6.27375 9.72098 6.6474C9.81517 6.8313 9.8951 6.91367 9.92508 6.9408C9.92882 6.94418 9.93201 6.94682 9.93448 6.94885C10.2044 7.08476 10.3567 7.38403 10.3011 7.68671C10.241 8.01292 9.95666 8.24998 9.62497 8.25H1.37497C1.04326 8.25 0.758918 8.01293 0.698882 7.68671C0.643273 7.38402 0.795556 7.08476 1.06546 6.94885C1.06792 6.94682 1.07112 6.94418 1.07486 6.9408C1.10485 6.91366 1.18478 6.83127 1.27896 6.6474C1.47028 6.27374 1.71872 5.48354 1.71872 3.92828C1.71879 2.89653 2.10982 1.90104 2.81509 1.16217C3.52148 0.42215 4.48653 0 5.49997 0ZM9.91366 6.93878C9.90815 6.93611 9.90146 6.93319 9.89419 6.93005C9.89062 6.92851 9.88679 6.92698 9.88278 6.92535C9.88082 6.92456 9.87881 6.92349 9.87674 6.92267L9.87338 6.92133L9.87137 6.92065L9.91366 6.93878ZM5.49997 1.375C4.87239 1.375 4.2634 1.63591 3.80942 2.11151C3.35453 2.58813 3.09379 3.24115 3.09372 3.92828C3.09372 5.29781 2.91749 6.23298 2.67746 6.875H8.32248C8.08244 6.23298 7.90622 5.29781 7.90622 3.92828C7.90615 3.24116 7.64539 2.58813 7.19052 2.11151C6.73654 1.63591 6.12754 1.37501 5.49997 1.375Z" fill="#657077"/>
</svg>
