<svg xmlns="http://www.w3.org/2000/svg" width="24" height="24" viewBox="0 0 24 24" fill="none">
  <path fill-rule="evenodd" clip-rule="evenodd" d="M10.648 20.9998C10.0209 20.9991 9.43039 20.7043 9.05296 20.2035C8.67553 19.7026 8.55486 19.0538 8.727 18.4508L8.985 17.5508C9.03685 17.3717 9.06311 17.1862 9.063 16.9998C9.063 15.8952 8.16757 14.9998 7.063 14.9998H5C3.89543 14.9998 3 14.1043 3 12.9998V11.9998C3 11.9138 3 11.8268 3 11.7408C3.06773 9.35455 4.08069 7.093 5.816 5.45371C7.55131 3.81441 9.8668 2.93169 12.253 2.99976C17.0081 3.17798 20.8218 6.9917 21 11.7468C21 11.8328 21 11.9188 21 12.0048C20.9972 16.9734 16.9686 20.9998 12 20.9998H10.648Z" stroke="#657077" stroke-width="2" stroke-linecap="round" stroke-linejoin="round"/>
  <path d="M17.0002 11.7227C16.8605 11.7232 16.7477 11.8368 16.7481 11.9765C16.7484 12.1161 16.8619 12.2291 17.0015 12.2289C17.1412 12.2287 17.2543 12.1155 17.2543 11.9758C17.2546 11.9084 17.2278 11.8437 17.1801 11.7962C17.1324 11.7486 17.0676 11.7222 17.0002 11.7227" stroke="#657077" stroke-width="2" stroke-linecap="round" stroke-linejoin="round"/>
  <path d="M12.0241 6.75056C11.9215 6.75097 11.8294 6.81322 11.7907 6.9082C11.752 7.00318 11.7745 7.11211 11.8476 7.18405C11.9207 7.25599 12.0299 7.27671 12.1243 7.23653C12.2186 7.19635 12.2794 7.10321 12.2782 7.00066C12.2785 6.93328 12.2518 6.86859 12.204 6.82104C12.1563 6.77348 12.0915 6.74702 12.0241 6.74756" stroke="#657077" stroke-width="2" stroke-linecap="round" stroke-linejoin="round"/>
  <path d="M8.50822 8.20024C8.3687 8.20134 8.25638 8.31515 8.25712 8.45467C8.25785 8.59419 8.37135 8.70681 8.51088 8.70644C8.6504 8.70608 8.76332 8.59287 8.76332 8.45335C8.7636 8.38579 8.73674 8.32095 8.68878 8.27336C8.64082 8.22578 8.57577 8.19944 8.50822 8.20024" stroke="#657077" stroke-width="2" stroke-linecap="round" stroke-linejoin="round"/>
  <path d="M15.5431 15.2383C15.4035 15.2389 15.2907 15.3524 15.291 15.4921C15.2914 15.6317 15.4048 15.7447 15.5445 15.7445C15.6841 15.7443 15.7973 15.6311 15.7973 15.4914C15.7978 15.424 15.7712 15.3591 15.7234 15.3115C15.6756 15.2639 15.6106 15.2375 15.5431 15.2383" stroke="#657077" stroke-width="2" stroke-linecap="round" stroke-linejoin="round"/>
  <path d="M15.5431 8.20024C15.4035 8.20079 15.2907 8.31435 15.291 8.45401C15.2914 8.59366 15.4048 8.70663 15.5445 8.70645C15.6841 8.70626 15.7973 8.593 15.7973 8.45334C15.7978 8.38588 15.7712 8.32103 15.7234 8.27342C15.6756 8.2258 15.6106 8.19943 15.5431 8.20024" stroke="#657077" stroke-width="2" stroke-linecap="round" stroke-linejoin="round"/>
</svg>