<svg xmlns="http://www.w3.org/2000/svg" width="20" height="20" viewBox="0 0 20 20" fill="none">
  <path d="M9.35059 0.230541C9.72892 -0.0768472 10.2711 -0.0768464 10.6494 0.230541L11.9072 1.25397C12.1348 1.43913 12.431 1.51826 12.7207 1.47174L14.3213 1.21491C14.8029 1.13752 15.2733 1.40862 15.4472 1.86432L16.0253 3.37993C16.1299 3.65388 16.3461 3.87009 16.6201 3.97465L18.1357 4.55277C18.5914 4.72673 18.8625 5.19711 18.7851 5.67874L18.5283 7.27931C18.4817 7.56901 18.5609 7.86517 18.746 8.09278L19.7695 9.35058C20.0768 9.72891 20.0768 10.2711 19.7695 10.6494L18.746 11.9072C18.5609 12.1348 18.4817 12.431 18.5283 12.7207L18.7851 14.3212C18.8625 14.8029 18.5914 15.2733 18.1357 15.4472L16.6201 16.0253C16.3461 16.1299 16.1299 16.3461 16.0253 16.6201L15.4472 18.1357L15.4111 18.2187C15.2144 18.6238 14.7728 18.8576 14.3213 18.7851L12.7207 18.5282C12.431 18.4817 12.1348 18.5609 11.9072 18.746L10.6494 19.7694L10.5771 19.8232C10.2291 20.059 9.77091 20.059 9.42286 19.8232L9.35059 19.7694L8.09279 18.746C7.86517 18.5609 7.56902 18.4817 7.27932 18.5282L5.67874 18.7851L5.58792 18.7958C5.16881 18.8258 4.77244 18.5967 4.58891 18.2187L4.55277 18.1357L3.97465 16.6201C3.88312 16.3802 3.7061 16.1845 3.47954 16.0693L3.37993 16.0253L1.86432 15.4472C1.40862 15.2733 1.13752 14.8029 1.21491 14.3212L1.47174 12.7207C1.51826 12.431 1.43913 12.1348 1.25397 11.9072L0.230541 10.6494C-0.076847 10.2711 -0.0768468 9.72891 0.230541 9.35058L1.25397 8.09278C1.41606 7.89353 1.49701 7.64162 1.48346 7.38771L1.47174 7.27931L1.21491 5.67874C1.13753 5.19711 1.40862 4.72673 1.86432 4.55277L3.37993 3.97465C3.61978 3.88311 3.81553 3.70609 3.93071 3.47954L3.97465 3.37993L4.55277 1.86432C4.72673 1.40862 5.19712 1.13752 5.67874 1.21491L7.27932 1.47174C7.53284 1.51245 7.79085 1.45704 8.00392 1.31842L8.09279 1.25397L9.35059 0.230541ZM9.3545 2.80571C8.68475 3.35054 7.81437 3.5833 6.96194 3.44633L6.13968 3.3145L5.84378 4.09184C5.53618 4.89854 4.89855 5.53617 4.09184 5.84377L3.3145 6.13967L3.44634 6.96193C3.5833 7.81436 3.35055 8.68474 2.80572 9.35449L2.28033 9.99999L2.80572 10.6455C3.35054 11.3152 3.5833 12.1856 3.44634 13.038L3.3145 13.8593L4.09184 14.1562C4.84821 14.4446 5.45587 15.0228 5.78226 15.7587L5.84378 15.9081L6.13968 16.6845L6.96194 16.5536L7.12209 16.5322C7.86909 16.4527 8.61941 16.6533 9.22657 17.0956L9.3545 17.1943L10 17.7187L10.6455 17.1943C11.2733 16.6835 12.0775 16.447 12.8779 16.5322L13.0381 16.5536L13.8593 16.6845L14.1562 15.9081L14.2177 15.7587C14.5441 15.0228 15.1518 14.4446 15.9082 14.1562L16.6845 13.8593L16.5537 13.038C16.4167 12.1856 16.6495 11.3152 17.1943 10.6455L17.7187 9.99999L17.1943 9.35449C16.6495 8.68475 16.4167 7.81437 16.5537 6.96193L16.6845 6.13967L15.9082 5.84377C15.1014 5.53617 14.4638 4.89854 14.1562 4.09184L13.8593 3.3145L13.0381 3.44633C12.1856 3.5833 11.3153 3.35054 10.6455 2.80571L10 2.28033L9.3545 2.80571ZM12.5068 7.53517C12.8973 7.14469 13.5303 7.14477 13.9209 7.53517C14.3114 7.92569 14.3114 8.5587 13.9209 8.94922L9.69824 13.1728C9.22729 13.6437 8.46312 13.6437 7.9922 13.1728L5.95413 11.1338C5.56361 10.7432 5.56361 10.1102 5.95413 9.71972C6.34465 9.32922 6.97767 9.3292 7.36818 9.71972L8.84474 11.1963L12.5068 7.53517Z" fill="#657077"/>
</svg>