<svg width="11" height="11" viewBox="0 0 11 11" fill="none" xmlns="http://www.w3.org/2000/svg">
<g clip-path="url(#clip0_1139_16739)">
<path fill-rule="evenodd" clip-rule="evenodd" d="M9.50616 1.38239C10.2827 1.45436 11 2.05615 11 2.92188V8.07812C11 9.00167 10.1835 9.625 9.34973 9.625H1.65027C0.816531 9.625 0 9.00167 0 8.07812V2.92188C0 1.99833 0.816531 1.375 1.65027 1.375H9.34973L9.50616 1.38239ZM5.89142 6.75281C5.65599 6.9158 5.34401 6.9158 5.10858 6.75281L1.375 4.16797V8.07812C1.375 8.09595 1.38198 8.13095 1.42804 8.17212C1.47513 8.21417 1.55264 8.25 1.65027 8.25H9.34973C9.44736 8.25 9.52487 8.21417 9.57196 8.17212C9.61802 8.13095 9.625 8.09595 9.625 8.07812V4.16797L5.89142 6.75281ZM5.5 5.35095L9.25708 2.75H1.74292L5.5 5.35095Z" fill="#4781D1"/>
</g>
<defs>
<clipPath id="clip0_1139_16739">
<rect width="11" height="11" fill="white"/>
</clipPath>
</defs>
</svg>
