<svg width="18" height="18" viewBox="0 0 18 18" fill="none" xmlns="http://www.w3.org/2000/svg">
<circle cx="8" cy="8" r="7.5" fill="#5DC0E8" stroke="#35A5D2"/>
<mask id="mask0_143_8544" style="mask-type:alpha" maskUnits="userSpaceOnUse" x="1" y="1" width="14" height="14">
<circle cx="8" cy="8" r="7" fill="#D9D9D9"/>
</mask>
<g mask="url(#mask0_143_8544)">
<path d="M5.64393 9.65587L6.50978 8.79002C6.93122 8.36858 6.89277 7.67437 6.42737 7.30205L4.07372 5.41913C3.89641 5.27728 3.6761 5.2 3.44902 5.2H1.41402C1.1488 5.2 0.894448 5.30535 0.706912 5.49289L0.592698 5.6071C0.405162 5.79464 0.299805 6.04899 0.299805 6.31421V6.6V7.87689C0.299805 7.95865 0.309832 8.04011 0.329662 8.11943L0.973181 10.6935C0.990877 10.7643 1.01627 10.8329 1.0489 10.8982L2.26958 13.3395C2.35463 13.5096 2.48643 13.652 2.64951 13.7498L5.66229 15.5575C5.81771 15.6507 5.99554 15.7 6.17679 15.7H6.76462C7.09897 15.7 7.41121 15.5329 7.59667 15.2547L8.53185 13.8519C8.64137 13.6877 8.6998 13.4946 8.6998 13.2972V12.9208C8.6998 12.4903 8.42437 12.1082 8.01603 11.9721L6.03481 11.3117C5.32957 11.0766 5.11828 10.1815 5.64393 9.65587Z" fill="white"/>
<path d="M10.2899 2.81452L10.823 2.01494C11.173 1.48988 11.9159 1.41631 12.3621 1.86253L12.8996 2.4L13.5296 3.02998C13.5762 3.07655 13.618 3.1276 13.6545 3.18239L14.9035 5.05588C14.9671 5.15125 15.0138 5.25684 15.0416 5.36804L15.639 7.75746C15.6788 7.9167 15.6788 8.0833 15.639 8.24254L15.0262 10.6935C15.0085 10.7643 14.9831 10.8329 14.9505 10.8982L13.7487 13.3019C13.6519 13.4954 13.495 13.6523 13.3015 13.7491L12.7443 14.0277C11.9801 14.4097 11.1197 13.7195 11.3269 12.8907L12.0386 10.0442C12.1362 9.65382 11.9903 9.24302 11.6684 9.00161L7.52202 5.89181C7.03518 5.52668 6.9846 4.81501 7.41491 4.3847L7.83268 3.96693C7.94246 3.85715 8.07629 3.77444 8.22356 3.72535L9.77411 3.2085C9.98507 3.13818 10.1666 2.99955 10.2899 2.81452Z" fill="white"/>
</g>
<g clip-path="url(#clip0_143_8544)">
<path d="M10 7H14V17H10V7Z" fill="white"/>
<path d="M12 6C15.3137 6 18 8.68629 18 12C18 15.3137 15.3137 18 12 18C8.68629 18 6 15.3137 6 12C6 8.68629 8.68629 6 12 6ZM12 14C11.4477 14 11 14.4477 11 15C11 15.5523 11.4477 16 12 16C12.5523 16 13 15.5523 13 15C13 14.4477 12.5523 14 12 14ZM12 8C11.4477 8 11 8.44772 11 9V12C11 12.5523 11.4477 13 12 13C12.5523 13 13 12.5523 13 12V9C13 8.44772 12.5523 8 12 8Z" fill="#ED7309"/>
</g>
<defs>
<clipPath id="clip0_143_8544">
<rect width="12" height="12" fill="white" transform="translate(6 6)"/>
</clipPath>
</defs>
</svg>
