<svg xmlns="http://www.w3.org/2000/svg" width="24" height="24" viewBox="0 0 24 24" fill="none">
  <path d="M3.2 8.04084H7M3.2 8.04084C3.08954 8.04084 3 7.9513 3 7.84084V4.04084M3.2 8.04084C4.5 6.5 6.181 4.78118 8.20264 3.84035C10.2243 2.89951 12.5232 2.74266 14.6539 3.40019C16.7846 4.05772 18.5953 5.48281 19.7352 7.39928C20.5686 8.80048 21 10.3914 21 12" stroke="#657077" stroke-width="2" stroke-linecap="round"/>
  <path d="M20.8 15.9592H17M20.8 15.9592C20.9105 15.9592 21 16.0487 21 16.1592V19.9592M20.8 15.9592C19.5 17.5 17.819 19.2188 15.7974 20.1597C13.7757 21.1005 11.4768 21.2573 9.34611 20.5998C7.21541 19.9423 5.40467 18.5172 4.2648 16.6007C3.4314 15.1995 3 13.6086 2.99998 12" stroke="#657077" stroke-width="2" stroke-linecap="round"/>
</svg>