<svg width="310" height="180" viewBox="0 0 310 180" fill="none" xmlns="http://www.w3.org/2000/svg">
<rect width="310" height="180" fill="white"/>
<rect x="17" y="17" width="276" height="146" rx="5" stroke="#ECEEF1" stroke-width="2" stroke-dasharray="8 8"/>
<path d="M149 76H143C138.582 76 135 72.4183 135 68C135 63.5817 138.582 60 143 60C143.055 60 143.111 60.0006 143.166 60.0017C144.117 54.3254 149.053 50 155 50C160.898 50 165.826 54.3917 166.834 60C166.907 59.998 166.927 60 167 60C171.418 60 175 63.5817 175 68C175 72.4183 171.418 76 167 76H161M149 66L154.717 60.2828C154.873 60.1266 155.127 60.1266 155.283 60.2828L161 66M155 62V76" stroke="#4781D1" stroke-width="2" stroke-linecap="round"/>
<path d="M89.5059 95.7197V101.725C89.5059 102.372 89.3683 102.952 89.0933 103.464C88.8224 103.976 88.4119 104.382 87.8618 104.683C87.3117 104.979 86.6198 105.127 85.7861 105.127C84.597 105.127 83.6914 104.816 83.0693 104.194C82.4515 103.568 82.1426 102.736 82.1426 101.699V95.7197H83.666V101.566C83.666 102.34 83.848 102.912 84.2119 103.28C84.5758 103.648 85.1196 103.832 85.8433 103.832C86.3426 103.832 86.7489 103.745 87.062 103.572C87.3794 103.394 87.6121 103.136 87.7603 102.797C87.9126 102.455 87.9888 102.042 87.9888 101.56V95.7197H89.5059ZM95.333 97.8398C96.1667 97.8398 96.8353 98.1445 97.3389 98.7539C97.8467 99.3633 98.1006 100.269 98.1006 101.471C98.1006 102.266 97.9821 102.937 97.7451 103.483C97.5124 104.025 97.1844 104.435 96.7612 104.714C96.3423 104.989 95.8535 105.127 95.2949 105.127C94.9395 105.127 94.6305 105.08 94.3682 104.987C94.1058 104.894 93.8815 104.774 93.6953 104.625C93.5091 104.473 93.3525 104.308 93.2256 104.13H93.1367C93.1579 104.3 93.1769 104.488 93.1938 104.695C93.215 104.898 93.2256 105.085 93.2256 105.254V108.117H91.7275V97.9731H92.9463L93.1558 98.9443H93.2256C93.3568 98.7454 93.5155 98.5614 93.7017 98.3921C93.8921 98.2228 94.1206 98.0895 94.3872 97.9922C94.658 97.8906 94.9733 97.8398 95.333 97.8398ZM94.9331 99.0586C94.5226 99.0586 94.1925 99.1411 93.9429 99.3062C93.6974 99.467 93.5176 99.7103 93.4033 100.036C93.2933 100.362 93.234 100.77 93.2256 101.261V101.471C93.2256 101.991 93.2785 102.433 93.3843 102.797C93.4943 103.157 93.6742 103.432 93.9238 103.623C94.1777 103.809 94.5205 103.902 94.9521 103.902C95.3161 103.902 95.6165 103.802 95.8535 103.604C96.0947 103.405 96.2746 103.121 96.3931 102.753C96.5116 102.385 96.5708 101.951 96.5708 101.452C96.5708 100.694 96.4354 100.106 96.1646 99.687C95.8979 99.2681 95.4875 99.0586 94.9331 99.0586ZM101.325 105H99.8271V95.123H101.325V105ZM109.679 101.471C109.679 102.055 109.603 102.573 109.45 103.026C109.298 103.479 109.076 103.862 108.784 104.175C108.492 104.484 108.14 104.721 107.73 104.886C107.319 105.047 106.856 105.127 106.34 105.127C105.857 105.127 105.415 105.047 105.013 104.886C104.611 104.721 104.262 104.484 103.966 104.175C103.674 103.862 103.447 103.479 103.287 103.026C103.126 102.573 103.045 102.055 103.045 101.471C103.045 100.696 103.179 100.04 103.445 99.5029C103.716 98.9613 104.101 98.5487 104.601 98.2651C105.1 97.9816 105.694 97.8398 106.384 97.8398C107.032 97.8398 107.603 97.9816 108.098 98.2651C108.593 98.5487 108.98 98.9613 109.26 99.5029C109.539 100.045 109.679 100.701 109.679 101.471ZM104.582 101.471C104.582 101.983 104.643 102.421 104.766 102.785C104.893 103.149 105.087 103.428 105.35 103.623C105.612 103.813 105.951 103.908 106.365 103.908C106.78 103.908 107.118 103.813 107.381 103.623C107.643 103.428 107.836 103.149 107.958 102.785C108.081 102.421 108.143 101.983 108.143 101.471C108.143 100.959 108.081 100.525 107.958 100.169C107.836 99.8097 107.643 99.5368 107.381 99.3506C107.118 99.1602 106.778 99.0649 106.359 99.0649C105.741 99.0649 105.29 99.2723 105.007 99.687C104.723 100.102 104.582 100.696 104.582 101.471ZM114.147 97.8398C115.036 97.8398 115.707 98.0366 116.16 98.4302C116.617 98.8237 116.845 99.4373 116.845 100.271V105H115.785L115.5 104.003H115.449C115.25 104.257 115.045 104.467 114.833 104.632C114.621 104.797 114.376 104.92 114.097 105C113.822 105.085 113.485 105.127 113.087 105.127C112.668 105.127 112.294 105.051 111.964 104.898C111.634 104.742 111.374 104.505 111.183 104.188C110.993 103.87 110.897 103.468 110.897 102.981C110.897 102.258 111.166 101.714 111.704 101.35C112.245 100.986 113.062 100.785 114.154 100.747L115.373 100.703V100.334C115.373 99.8478 115.258 99.5008 115.03 99.2935C114.806 99.0861 114.488 98.9824 114.078 98.9824C113.726 98.9824 113.386 99.0332 113.056 99.1348C112.726 99.2363 112.404 99.3612 112.091 99.5093L111.608 98.4556C111.951 98.2736 112.34 98.1255 112.776 98.0112C113.216 97.897 113.674 97.8398 114.147 97.8398ZM115.366 101.642L114.458 101.674C113.714 101.699 113.191 101.826 112.891 102.055C112.59 102.283 112.44 102.596 112.44 102.994C112.44 103.341 112.544 103.595 112.751 103.756C112.958 103.912 113.231 103.991 113.57 103.991C114.086 103.991 114.514 103.845 114.852 103.553C115.195 103.257 115.366 102.823 115.366 102.251V101.642ZM121.295 105.127C120.457 105.127 119.784 104.822 119.276 104.213C118.773 103.599 118.521 102.696 118.521 101.502C118.521 100.296 118.777 99.3844 119.289 98.7666C119.805 98.1488 120.485 97.8398 121.327 97.8398C121.682 97.8398 121.993 97.8885 122.26 97.9858C122.526 98.0789 122.755 98.2059 122.945 98.3667C123.14 98.5275 123.305 98.7074 123.44 98.9062H123.51C123.489 98.7751 123.464 98.5868 123.434 98.3413C123.409 98.0916 123.396 97.861 123.396 97.6494V95.123H124.894V105H123.726L123.459 104.042H123.396C123.269 104.245 123.108 104.429 122.914 104.594C122.723 104.755 122.495 104.884 122.228 104.981C121.966 105.078 121.655 105.127 121.295 105.127ZM121.714 103.915C122.353 103.915 122.804 103.73 123.066 103.362C123.328 102.994 123.464 102.442 123.472 101.706V101.509C123.472 100.722 123.345 100.119 123.091 99.6997C122.837 99.2765 122.374 99.0649 121.701 99.0649C121.164 99.0649 120.753 99.2829 120.47 99.7188C120.19 100.15 120.051 100.753 120.051 101.528C120.051 102.302 120.19 102.895 120.47 103.305C120.753 103.711 121.168 103.915 121.714 103.915Z" fill="#4781D1"/>
<path d="M81 107.5H126" stroke="#4781D1" stroke-dasharray="2 1"/>
<path d="M137.109 101.509C137.109 102.08 137.035 102.59 136.887 103.039C136.739 103.487 136.525 103.866 136.246 104.175C135.967 104.484 135.628 104.721 135.23 104.886C134.837 105.047 134.39 105.127 133.891 105.127C133.426 105.127 132.998 105.047 132.609 104.886C132.224 104.721 131.889 104.484 131.606 104.175C131.327 103.866 131.109 103.487 130.952 103.039C130.8 102.59 130.724 102.08 130.724 101.509C130.724 100.747 130.853 100.1 131.111 99.5664C131.369 99.029 131.737 98.6206 132.215 98.3413C132.698 98.0578 133.271 97.916 133.936 97.916C134.57 97.916 135.125 98.0578 135.599 98.3413C136.077 98.6248 136.447 99.0353 136.709 99.5728C136.976 100.106 137.109 100.751 137.109 101.509ZM131.815 101.509C131.815 102.067 131.889 102.552 132.038 102.962C132.186 103.373 132.414 103.69 132.723 103.915C133.032 104.139 133.43 104.251 133.917 104.251C134.399 104.251 134.795 104.139 135.104 103.915C135.417 103.69 135.647 103.373 135.795 102.962C135.944 102.552 136.018 102.067 136.018 101.509C136.018 100.954 135.944 100.476 135.795 100.074C135.647 99.668 135.419 99.3548 135.11 99.1348C134.801 98.9147 134.401 98.8047 133.91 98.8047C133.187 98.8047 132.655 99.0438 132.317 99.522C131.983 100 131.815 100.662 131.815 101.509ZM142.092 97.916C142.232 97.916 142.378 97.9245 142.53 97.9414C142.683 97.9541 142.818 97.9731 142.937 97.9985L142.803 98.9761C142.689 98.9465 142.562 98.9232 142.422 98.9062C142.283 98.8893 142.152 98.8809 142.029 98.8809C141.75 98.8809 141.485 98.938 141.235 99.0522C140.99 99.1623 140.774 99.3231 140.588 99.5347C140.402 99.742 140.256 99.9938 140.15 100.29C140.044 100.582 139.991 100.908 139.991 101.268V105H138.931V98.043H139.807L139.921 99.3252H139.966C140.11 99.0671 140.283 98.8322 140.486 98.6206C140.689 98.4048 140.924 98.2334 141.191 98.1064C141.462 97.9795 141.762 97.916 142.092 97.916ZM150.103 105.127C149.223 105.127 148.525 104.826 148.008 104.226C147.496 103.625 147.24 102.732 147.24 101.547C147.24 100.349 147.503 99.4458 148.027 98.8364C148.552 98.2228 149.25 97.916 150.122 97.916C150.49 97.916 150.812 97.9647 151.087 98.062C151.362 98.1593 151.599 98.2905 151.798 98.4556C151.997 98.6164 152.164 98.8005 152.299 99.0078H152.375C152.359 98.8766 152.342 98.6968 152.325 98.4683C152.308 98.2397 152.299 98.0535 152.299 97.9097V95.123H153.353V105H152.502L152.344 104.01H152.299C152.168 104.217 152.001 104.405 151.798 104.575C151.599 104.744 151.36 104.879 151.081 104.981C150.806 105.078 150.48 105.127 150.103 105.127ZM150.268 104.251C151.013 104.251 151.54 104.039 151.849 103.616C152.158 103.193 152.312 102.565 152.312 101.731V101.541C152.312 100.656 152.164 99.9769 151.868 99.5029C151.576 99.029 151.042 98.792 150.268 98.792C149.621 98.792 149.136 99.0417 148.814 99.541C148.493 100.036 148.332 100.713 148.332 101.572C148.332 102.427 148.491 103.087 148.808 103.553C149.13 104.018 149.616 104.251 150.268 104.251ZM158.749 97.916C158.888 97.916 159.034 97.9245 159.187 97.9414C159.339 97.9541 159.474 97.9731 159.593 97.9985L159.459 98.9761C159.345 98.9465 159.218 98.9232 159.079 98.9062C158.939 98.8893 158.808 98.8809 158.685 98.8809C158.406 98.8809 158.141 98.938 157.892 99.0522C157.646 99.1623 157.43 99.3231 157.244 99.5347C157.058 99.742 156.912 99.9938 156.806 100.29C156.7 100.582 156.647 100.908 156.647 101.268V105H155.587V98.043H156.463L156.578 99.3252H156.622C156.766 99.0671 156.939 98.8322 157.143 98.6206C157.346 98.4048 157.581 98.2334 157.847 98.1064C158.118 97.9795 158.418 97.916 158.749 97.916ZM166.905 101.509C166.905 102.08 166.831 102.59 166.683 103.039C166.535 103.487 166.321 103.866 166.042 104.175C165.763 104.484 165.424 104.721 165.026 104.886C164.633 105.047 164.186 105.127 163.687 105.127C163.222 105.127 162.794 105.047 162.405 104.886C162.02 104.721 161.685 104.484 161.402 104.175C161.123 103.866 160.905 103.487 160.748 103.039C160.596 102.59 160.52 102.08 160.52 101.509C160.52 100.747 160.649 100.1 160.907 99.5664C161.165 99.029 161.533 98.6206 162.011 98.3413C162.494 98.0578 163.067 97.916 163.731 97.916C164.366 97.916 164.921 98.0578 165.395 98.3413C165.873 98.6248 166.243 99.0353 166.505 99.5728C166.772 100.106 166.905 100.751 166.905 101.509ZM161.611 101.509C161.611 102.067 161.685 102.552 161.833 102.962C161.982 103.373 162.21 103.69 162.519 103.915C162.828 104.139 163.226 104.251 163.712 104.251C164.195 104.251 164.59 104.139 164.899 103.915C165.213 103.69 165.443 103.373 165.591 102.962C165.739 102.552 165.813 102.067 165.813 101.509C165.813 100.954 165.739 100.476 165.591 100.074C165.443 99.668 165.215 99.3548 164.906 99.1348C164.597 98.9147 164.197 98.8047 163.706 98.8047C162.982 98.8047 162.451 99.0438 162.113 99.522C161.778 100 161.611 100.662 161.611 101.509ZM171.996 97.916C172.864 97.916 173.556 98.2144 174.072 98.811C174.588 99.4077 174.846 100.305 174.846 101.502C174.846 102.294 174.728 102.958 174.491 103.496C174.254 104.033 173.919 104.439 173.488 104.714C173.06 104.989 172.555 105.127 171.971 105.127C171.603 105.127 171.279 105.078 171 104.981C170.72 104.884 170.481 104.752 170.282 104.587C170.083 104.422 169.918 104.243 169.787 104.048H169.711C169.724 104.213 169.738 104.412 169.755 104.645C169.777 104.877 169.787 105.08 169.787 105.254V108.11H168.727V98.043H169.597L169.736 99.0713H169.787C169.923 98.8597 170.088 98.6672 170.282 98.4937C170.477 98.3159 170.714 98.1763 170.993 98.0747C171.277 97.9689 171.611 97.916 171.996 97.916ZM171.812 98.8047C171.33 98.8047 170.94 98.8978 170.644 99.084C170.352 99.2702 170.138 99.5495 170.003 99.9219C169.868 100.29 169.796 100.753 169.787 101.312V101.515C169.787 102.103 169.851 102.601 169.978 103.007C170.109 103.413 170.322 103.722 170.619 103.934C170.919 104.145 171.321 104.251 171.825 104.251C172.256 104.251 172.616 104.135 172.904 103.902C173.192 103.669 173.405 103.345 173.545 102.931C173.689 102.512 173.761 102.031 173.761 101.49C173.761 100.669 173.6 100.017 173.278 99.5347C172.961 99.048 172.472 98.8047 171.812 98.8047ZM183.162 98.8682H181.429V105H180.375V98.8682H179.144V98.3604L180.375 98.0112V97.5479C180.375 96.9639 180.462 96.4899 180.635 96.126C180.809 95.7578 181.061 95.487 181.391 95.3135C181.721 95.14 182.123 95.0532 182.597 95.0532C182.863 95.0532 183.107 95.0765 183.327 95.123C183.551 95.1696 183.748 95.2225 183.917 95.2817L183.644 96.1133C183.5 96.0667 183.337 96.0244 183.155 95.9863C182.978 95.944 182.796 95.9229 182.609 95.9229C182.207 95.9229 181.909 96.054 181.714 96.3164C181.524 96.5745 181.429 96.9808 181.429 97.5352V98.043H183.162V98.8682ZM185.498 98.043V105H184.444V98.043H185.498ZM184.983 95.4404C185.157 95.4404 185.305 95.4976 185.428 95.6118C185.555 95.7218 185.618 95.8953 185.618 96.1323C185.618 96.3651 185.555 96.5386 185.428 96.6528C185.305 96.7671 185.157 96.8242 184.983 96.8242C184.801 96.8242 184.649 96.7671 184.526 96.6528C184.408 96.5386 184.349 96.3651 184.349 96.1323C184.349 95.8953 184.408 95.7218 184.526 95.6118C184.649 95.4976 184.801 95.4404 184.983 95.4404ZM188.792 105H187.732V95.123H188.792V105ZM193.699 97.916C194.291 97.916 194.799 98.0472 195.222 98.3096C195.645 98.5719 195.969 98.9401 196.193 99.4141C196.418 99.8838 196.53 100.434 196.53 101.064V101.718H191.725C191.737 102.535 191.94 103.157 192.334 103.584C192.728 104.012 193.282 104.226 193.997 104.226C194.437 104.226 194.826 104.185 195.165 104.105C195.504 104.025 195.855 103.906 196.219 103.75V104.676C195.868 104.833 195.518 104.947 195.171 105.019C194.829 105.091 194.422 105.127 193.953 105.127C193.284 105.127 192.7 104.992 192.201 104.721C191.706 104.446 191.32 104.044 191.045 103.515C190.77 102.986 190.633 102.338 190.633 101.572C190.633 100.823 190.758 100.176 191.007 99.6299C191.261 99.0798 191.617 98.6566 192.074 98.3604C192.535 98.0641 193.077 97.916 193.699 97.916ZM193.686 98.7793C193.123 98.7793 192.675 98.9634 192.34 99.3315C192.006 99.6997 191.807 100.214 191.744 100.874H195.425C195.421 100.459 195.355 100.095 195.229 99.7822C195.106 99.4648 194.917 99.2194 194.664 99.0459C194.41 98.8682 194.084 98.7793 193.686 98.7793ZM202.75 95.123V98.0747C202.75 98.244 202.746 98.4154 202.738 98.5889C202.729 98.7581 202.715 98.9147 202.693 99.0586H202.763C202.907 98.8132 203.089 98.6079 203.309 98.4429C203.533 98.2736 203.787 98.1466 204.071 98.062C204.354 97.9731 204.655 97.9287 204.972 97.9287C205.531 97.9287 205.996 98.0176 206.369 98.1953C206.745 98.373 207.027 98.6481 207.213 99.0205C207.403 99.3929 207.499 99.8753 207.499 100.468V105H206.458V100.538C206.458 99.9578 206.324 99.5241 206.058 99.2363C205.795 98.9486 205.391 98.8047 204.845 98.8047C204.329 98.8047 203.916 98.9041 203.607 99.103C203.303 99.2977 203.083 99.5854 202.947 99.9663C202.816 100.347 202.75 100.813 202.75 101.363V105H201.697V95.123H202.75ZM212.348 97.916C212.941 97.916 213.448 98.0472 213.872 98.3096C214.295 98.5719 214.618 98.9401 214.843 99.4141C215.067 99.8838 215.179 100.434 215.179 101.064V101.718H210.374C210.387 102.535 210.59 103.157 210.983 103.584C211.377 104.012 211.931 104.226 212.646 104.226C213.087 104.226 213.476 104.185 213.814 104.105C214.153 104.025 214.504 103.906 214.868 103.75V104.676C214.517 104.833 214.168 104.947 213.821 105.019C213.478 105.091 213.072 105.127 212.602 105.127C211.933 105.127 211.349 104.992 210.85 104.721C210.355 104.446 209.97 104.044 209.695 103.515C209.42 102.986 209.282 102.338 209.282 101.572C209.282 100.823 209.407 100.176 209.657 99.6299C209.911 99.0798 210.266 98.6566 210.723 98.3604C211.184 98.0641 211.726 97.916 212.348 97.916ZM212.335 98.7793C211.773 98.7793 211.324 98.9634 210.99 99.3315C210.655 99.6997 210.457 100.214 210.393 100.874H214.075C214.07 100.459 214.005 100.095 213.878 99.7822C213.755 99.4648 213.567 99.2194 213.313 99.0459C213.059 98.8682 212.733 98.7793 212.335 98.7793ZM220.13 97.916C220.27 97.916 220.416 97.9245 220.568 97.9414C220.721 97.9541 220.856 97.9731 220.975 97.9985L220.841 98.9761C220.727 98.9465 220.6 98.9232 220.46 98.9062C220.321 98.8893 220.19 98.8809 220.067 98.8809C219.788 98.8809 219.523 98.938 219.273 99.0522C219.028 99.1623 218.812 99.3231 218.626 99.5347C218.44 99.742 218.294 99.9938 218.188 100.29C218.082 100.582 218.029 100.908 218.029 101.268V105H216.969V98.043H217.845L217.959 99.3252H218.004C218.148 99.0671 218.321 98.8322 218.524 98.6206C218.728 98.4048 218.962 98.2334 219.229 98.1064C219.5 97.9795 219.8 97.916 220.13 97.916ZM224.967 97.916C225.56 97.916 226.068 98.0472 226.491 98.3096C226.914 98.5719 227.238 98.9401 227.462 99.4141C227.686 99.8838 227.798 100.434 227.798 101.064V101.718H222.993C223.006 102.535 223.209 103.157 223.603 103.584C223.996 104.012 224.55 104.226 225.266 104.226C225.706 104.226 226.095 104.185 226.434 104.105C226.772 104.025 227.123 103.906 227.487 103.75V104.676C227.136 104.833 226.787 104.947 226.44 105.019C226.097 105.091 225.691 105.127 225.221 105.127C224.553 105.127 223.969 104.992 223.469 104.721C222.974 104.446 222.589 104.044 222.314 103.515C222.039 102.986 221.901 102.338 221.901 101.572C221.901 100.823 222.026 100.176 222.276 99.6299C222.53 99.0798 222.885 98.6566 223.342 98.3604C223.804 98.0641 224.345 97.916 224.967 97.916ZM224.955 98.7793C224.392 98.7793 223.943 98.9634 223.609 99.3315C223.275 99.6997 223.076 100.214 223.012 100.874H226.694C226.69 100.459 226.624 100.095 226.497 99.7822C226.374 99.4648 226.186 99.2194 225.932 99.0459C225.678 98.8682 225.352 98.7793 224.955 98.7793Z" fill="#333333"/>
<path d="M59.5635 135.583C59.3307 135.583 59.1276 135.569 58.9541 135.539C58.7764 135.514 58.624 135.478 58.4971 135.431V134.155C58.6325 134.189 58.7785 134.219 58.9351 134.244C59.0916 134.27 59.2588 134.282 59.4365 134.282C59.6693 134.282 59.8809 134.238 60.0713 134.149C60.2617 134.06 60.4119 133.899 60.522 133.667C60.6362 133.434 60.6934 133.106 60.6934 132.683V123.72H62.2168V132.632C62.2168 133.322 62.1068 133.882 61.8867 134.314C61.6667 134.75 61.3577 135.069 60.96 135.272C60.5622 135.48 60.0967 135.583 59.5635 135.583ZM67.314 123.72C68.5116 123.72 69.3854 123.965 69.9355 124.456C70.4857 124.947 70.7607 125.635 70.7607 126.519C70.7607 126.921 70.6973 127.304 70.5703 127.668C70.4476 128.028 70.2445 128.347 69.9609 128.626C69.6774 128.902 69.3029 129.119 68.8374 129.28C68.3761 129.441 67.807 129.521 67.1299 129.521H66.1396V133H64.6162V123.72H67.314ZM67.2124 124.983H66.1396V128.252H66.9712C67.4494 128.252 67.8556 128.197 68.1899 128.087C68.5243 127.973 68.7782 127.793 68.9517 127.547C69.1252 127.302 69.2119 126.978 69.2119 126.576C69.2119 126.039 69.049 125.639 68.7231 125.376C68.4015 125.114 67.8979 124.983 67.2124 124.983ZM76.3594 127.96H79.8252V132.619C79.3385 132.78 78.835 132.905 78.3145 132.994C77.7939 133.083 77.21 133.127 76.5625 133.127C75.6188 133.127 74.819 132.941 74.1631 132.568C73.5114 132.192 73.0163 131.648 72.6777 130.937C72.3392 130.222 72.1699 129.361 72.1699 128.354C72.1699 127.384 72.3582 126.544 72.7349 125.833C73.1115 125.118 73.6595 124.566 74.3789 124.177C75.0983 123.783 75.9701 123.586 76.9941 123.586C77.4977 123.586 77.9844 123.637 78.4541 123.739C78.9281 123.836 79.3618 123.972 79.7554 124.145L79.2222 125.402C78.909 125.254 78.5578 125.129 78.1685 125.027C77.7791 124.926 77.375 124.875 76.9561 124.875C76.2917 124.875 75.7183 125.019 75.2358 125.307C74.7576 125.594 74.3895 126.001 74.1313 126.525C73.8732 127.046 73.7441 127.662 73.7441 128.373C73.7441 129.062 73.8478 129.667 74.0552 130.188C74.2625 130.708 74.5863 131.115 75.0264 131.407C75.4707 131.694 76.0441 131.838 76.7466 131.838C77.0978 131.838 77.3962 131.819 77.6416 131.781C77.887 131.743 78.1134 131.701 78.3208 131.654V129.261H76.3594V127.96ZM83.3989 131.489L83.4878 131.635C83.4116 131.94 83.3143 132.268 83.1958 132.619C83.0773 132.97 82.9482 133.322 82.8086 133.673C82.6689 134.028 82.5272 134.363 82.3833 134.676H81.2915C81.3804 134.333 81.465 133.973 81.5454 133.597C81.63 133.224 81.7062 132.856 81.7739 132.492C81.8459 132.124 81.903 131.79 81.9453 131.489H83.3989ZM87.8105 135.583C87.5778 135.583 87.3747 135.569 87.2012 135.539C87.0234 135.514 86.8711 135.478 86.7441 135.431V134.155C86.8796 134.189 87.0256 134.219 87.1821 134.244C87.3387 134.27 87.5059 134.282 87.6836 134.282C87.9163 134.282 88.1279 134.238 88.3184 134.149C88.5088 134.06 88.659 133.899 88.769 133.667C88.8833 133.434 88.9404 133.106 88.9404 132.683V123.72H90.4639V132.632C90.4639 133.322 90.3538 133.882 90.1338 134.314C89.9137 134.75 89.6048 135.069 89.207 135.272C88.8092 135.48 88.3438 135.583 87.8105 135.583ZM95.561 123.72C96.7586 123.72 97.6325 123.965 98.1826 124.456C98.7327 124.947 99.0078 125.635 99.0078 126.519C99.0078 126.921 98.9443 127.304 98.8174 127.668C98.6947 128.028 98.4915 128.347 98.208 128.626C97.9245 128.902 97.55 129.119 97.0845 129.28C96.6232 129.441 96.054 129.521 95.377 129.521H94.3867V133H92.8633V123.72H95.561ZM95.4595 124.983H94.3867V128.252H95.2183C95.6965 128.252 96.1027 128.197 96.437 128.087C96.7713 127.973 97.0252 127.793 97.1987 127.547C97.3722 127.302 97.459 126.978 97.459 126.576C97.459 126.039 97.2961 125.639 96.9702 125.376C96.6486 125.114 96.145 124.983 95.4595 124.983ZM106.117 133H100.861V123.72H106.117V125.002H102.385V127.522H105.882V128.798H102.385V131.711H106.117V133ZM111.868 127.96H115.334V132.619C114.847 132.78 114.344 132.905 113.823 132.994C113.303 133.083 112.719 133.127 112.071 133.127C111.128 133.127 110.328 132.941 109.672 132.568C109.02 132.192 108.525 131.648 108.187 130.937C107.848 130.222 107.679 129.361 107.679 128.354C107.679 127.384 107.867 126.544 108.244 125.833C108.62 125.118 109.168 124.566 109.888 124.177C110.607 123.783 111.479 123.586 112.503 123.586C113.007 123.586 113.493 123.637 113.963 123.739C114.437 123.836 114.871 123.972 115.264 124.145L114.731 125.402C114.418 125.254 114.067 125.129 113.677 125.027C113.288 124.926 112.884 124.875 112.465 124.875C111.8 124.875 111.227 125.019 110.745 125.307C110.266 125.594 109.898 126.001 109.64 126.525C109.382 127.046 109.253 127.662 109.253 128.373C109.253 129.062 109.357 129.667 109.564 130.188C109.771 130.708 110.095 131.115 110.535 131.407C110.979 131.694 111.553 131.838 112.255 131.838C112.607 131.838 112.905 131.819 113.15 131.781C113.396 131.743 113.622 131.701 113.83 131.654V129.261H111.868V127.96ZM118.908 131.489L118.997 131.635C118.92 131.94 118.823 132.268 118.705 132.619C118.586 132.97 118.457 133.322 118.317 133.673C118.178 134.028 118.036 134.363 117.892 134.676H116.8C116.889 134.333 116.974 133.973 117.054 133.597C117.139 133.224 117.215 132.856 117.283 132.492C117.355 132.124 117.412 131.79 117.454 131.489H118.908ZM127.172 123.72C128.37 123.72 129.244 123.965 129.794 124.456C130.344 124.947 130.619 125.635 130.619 126.519C130.619 126.921 130.556 127.304 130.429 127.668C130.306 128.028 130.103 128.347 129.819 128.626C129.536 128.902 129.161 129.119 128.696 129.28C128.235 129.441 127.665 129.521 126.988 129.521H125.998V133H124.475V123.72H127.172ZM127.071 124.983H125.998V128.252H126.83C127.308 128.252 127.714 128.197 128.048 128.087C128.383 127.973 128.637 127.793 128.81 127.547C128.984 127.302 129.07 126.978 129.07 126.576C129.07 126.039 128.907 125.639 128.582 125.376C128.26 125.114 127.756 124.983 127.071 124.983ZM140.217 133H138.344L133.799 125.592H133.742C133.759 125.842 133.774 126.106 133.787 126.386C133.804 126.665 133.816 126.953 133.825 127.249C133.837 127.545 133.848 127.846 133.856 128.15V133H132.473V123.72H134.333L138.871 131.077H138.916C138.907 130.861 138.896 130.613 138.884 130.334C138.871 130.055 138.858 129.767 138.846 129.471C138.837 129.17 138.831 128.88 138.827 128.601V123.72H140.217V133ZM146.399 127.96H149.865V132.619C149.379 132.78 148.875 132.905 148.354 132.994C147.834 133.083 147.25 133.127 146.603 133.127C145.659 133.127 144.859 132.941 144.203 132.568C143.551 132.192 143.056 131.648 142.718 130.937C142.379 130.222 142.21 129.361 142.21 128.354C142.21 127.384 142.398 126.544 142.775 125.833C143.152 125.118 143.7 124.566 144.419 124.177C145.138 123.783 146.01 123.586 147.034 123.586C147.538 123.586 148.024 123.637 148.494 123.739C148.968 123.836 149.402 123.972 149.795 124.145L149.262 125.402C148.949 125.254 148.598 125.129 148.208 125.027C147.819 124.926 147.415 124.875 146.996 124.875C146.332 124.875 145.758 125.019 145.276 125.307C144.798 125.594 144.43 126.001 144.171 126.525C143.913 127.046 143.784 127.662 143.784 128.373C143.784 129.062 143.888 129.667 144.095 130.188C144.303 130.708 144.626 131.115 145.066 131.407C145.511 131.694 146.084 131.838 146.787 131.838C147.138 131.838 147.436 131.819 147.682 131.781C147.927 131.743 148.153 131.701 148.361 131.654V129.261H146.399V127.96ZM153.439 131.489L153.528 131.635C153.452 131.94 153.354 132.268 153.236 132.619C153.117 132.97 152.988 133.322 152.849 133.673C152.709 134.028 152.567 134.363 152.423 134.676H151.332C151.42 134.333 151.505 133.973 151.585 133.597C151.67 133.224 151.746 132.856 151.814 132.492C151.886 132.124 151.943 131.79 151.985 131.489H153.439ZM162.751 127.96H166.217V132.619C165.73 132.78 165.227 132.905 164.706 132.994C164.186 133.083 163.602 133.127 162.954 133.127C162.01 133.127 161.211 132.941 160.555 132.568C159.903 132.192 159.408 131.648 159.069 130.937C158.731 130.222 158.562 129.361 158.562 128.354C158.562 127.384 158.75 126.544 159.126 125.833C159.503 125.118 160.051 124.566 160.771 124.177C161.49 123.783 162.362 123.586 163.386 123.586C163.889 123.586 164.376 123.637 164.846 123.739C165.32 123.836 165.753 123.972 166.147 124.145L165.614 125.402C165.301 125.254 164.949 125.129 164.56 125.027C164.171 124.926 163.767 124.875 163.348 124.875C162.683 124.875 162.11 125.019 161.627 125.307C161.149 125.594 160.781 126.001 160.523 126.525C160.265 127.046 160.136 127.662 160.136 128.373C160.136 129.062 160.239 129.667 160.447 130.188C160.654 130.708 160.978 131.115 161.418 131.407C161.862 131.694 162.436 131.838 163.138 131.838C163.489 131.838 163.788 131.819 164.033 131.781C164.279 131.743 164.505 131.701 164.712 131.654V129.261H162.751V127.96ZM168.438 133V123.72H169.962V133H168.438ZM173.923 133H172.412V123.72H177.655V125.002H173.923V127.896H177.414V129.172H173.923V133ZM180.696 131.489L180.785 131.635C180.708 131.94 180.611 132.268 180.493 132.619C180.374 132.97 180.245 133.322 180.105 133.673C179.966 134.028 179.824 134.363 179.68 134.676H178.588C178.677 134.333 178.762 133.973 178.842 133.597C178.927 133.224 179.003 132.856 179.071 132.492C179.143 132.124 179.2 131.79 179.242 131.489H180.696ZM186.263 123.72H189.024C190.222 123.72 191.125 123.893 191.734 124.24C192.344 124.587 192.648 125.186 192.648 126.037C192.648 126.392 192.585 126.714 192.458 127.001C192.335 127.285 192.155 127.52 191.918 127.706C191.681 127.888 191.389 128.011 191.042 128.074V128.138C191.402 128.201 191.722 128.313 192.001 128.474C192.285 128.635 192.507 128.866 192.667 129.166C192.833 129.466 192.915 129.856 192.915 130.334C192.915 130.901 192.78 131.383 192.509 131.781C192.242 132.179 191.859 132.482 191.36 132.689C190.865 132.896 190.277 133 189.595 133H186.263V123.72ZM187.786 127.547H189.246C189.936 127.547 190.414 127.435 190.681 127.211C190.947 126.987 191.081 126.659 191.081 126.227C191.081 125.787 190.922 125.47 190.604 125.275C190.291 125.08 189.792 124.983 189.106 124.983H187.786V127.547ZM187.786 128.779V131.724H189.392C190.103 131.724 190.602 131.587 190.89 131.312C191.178 131.036 191.322 130.664 191.322 130.194C191.322 129.907 191.256 129.657 191.125 129.445C190.998 129.234 190.789 129.071 190.497 128.957C190.205 128.838 189.811 128.779 189.316 128.779H187.786ZM198.837 133L196.165 125.25H196.108C196.121 125.423 196.135 125.66 196.152 125.96C196.169 126.261 196.184 126.583 196.197 126.925C196.209 127.268 196.216 127.596 196.216 127.909V133H194.832V123.72H196.971L199.542 131.127H199.58L202.24 123.72H204.373V133H202.919V127.833C202.919 127.549 202.923 127.243 202.932 126.913C202.944 126.583 202.957 126.269 202.97 125.973C202.987 125.677 202.999 125.44 203.008 125.262H202.957L200.183 133H198.837ZM209.514 123.72C210.712 123.72 211.586 123.965 212.136 124.456C212.686 124.947 212.961 125.635 212.961 126.519C212.961 126.921 212.897 127.304 212.771 127.668C212.648 128.028 212.445 128.347 212.161 128.626C211.878 128.902 211.503 129.119 211.038 129.28C210.576 129.441 210.007 129.521 209.33 129.521H208.34V133H206.816V123.72H209.514ZM209.413 124.983H208.34V128.252H209.171C209.65 128.252 210.056 128.197 210.39 128.087C210.724 127.973 210.978 127.793 211.152 127.547C211.325 127.302 211.412 126.978 211.412 126.576C211.412 126.039 211.249 125.639 210.923 125.376C210.602 125.114 210.098 124.983 209.413 124.983Z" fill="#A3A9AE"/>
<rect x="218.5" y="122" width="22" height="12" rx="6" fill="#A3A9AE"/>
<path d="M224.824 127.348H226.525V128.311H224.824V130.002H223.862V128.311H222.161V127.348H223.862V125.634H224.824V127.348ZM230.643 131H229.285V127.282C229.285 127.18 229.286 127.054 229.289 126.904C229.292 126.752 229.296 126.597 229.302 126.438C229.308 126.277 229.314 126.132 229.32 126.003C229.288 126.042 229.222 126.107 229.122 126.201C229.025 126.292 228.935 126.374 228.85 126.447L228.111 127.041L227.457 126.223L229.526 124.575H230.643V131ZM236.9 127.317C236.9 127.687 236.873 128.053 236.817 128.416C236.764 128.779 236.67 129.122 236.536 129.444C236.401 129.764 236.212 130.048 235.969 130.297C235.726 130.543 235.417 130.736 235.042 130.877C234.667 131.018 234.212 131.088 233.679 131.088C233.553 131.088 233.405 131.082 233.235 131.07C233.065 131.062 232.925 131.047 232.813 131.026V129.937C232.931 129.966 233.055 129.989 233.187 130.007C233.319 130.021 233.452 130.029 233.587 130.029C234.123 130.029 234.536 129.944 234.826 129.774C235.119 129.604 235.324 129.368 235.441 129.066C235.562 128.765 235.63 128.416 235.648 128.021H235.595C235.51 128.161 235.409 128.289 235.292 128.403C235.178 128.514 235.031 128.604 234.853 128.671C234.674 128.735 234.447 128.768 234.171 128.768C233.805 128.768 233.486 128.688 233.213 128.53C232.944 128.369 232.734 128.138 232.585 127.836C232.438 127.531 232.365 127.164 232.365 126.733C232.365 126.267 232.453 125.869 232.629 125.538C232.808 125.204 233.061 124.947 233.389 124.769C233.717 124.59 234.104 124.5 234.549 124.5C234.877 124.5 235.184 124.558 235.468 124.672C235.752 124.783 236.001 124.955 236.215 125.186C236.432 125.417 236.6 125.71 236.72 126.065C236.84 126.419 236.9 126.837 236.9 127.317ZM234.576 125.59C234.312 125.59 234.097 125.681 233.93 125.863C233.763 126.044 233.679 126.329 233.679 126.715C233.679 127.026 233.751 127.272 233.895 127.454C234.038 127.635 234.256 127.726 234.549 127.726C234.751 127.726 234.927 127.682 235.077 127.594C235.226 127.503 235.342 127.391 235.424 127.256C235.509 127.118 235.551 126.978 235.551 126.834C235.551 126.685 235.531 126.537 235.49 126.39C235.449 126.244 235.387 126.11 235.305 125.99C235.223 125.87 235.121 125.773 234.998 125.7C234.877 125.627 234.737 125.59 234.576 125.59Z" fill="white"/>
<path fill-rule="evenodd" clip-rule="evenodd" d="M247.288 129.788C247.405 129.905 247.595 129.905 247.712 129.788L249.988 127.512C250.177 127.323 250.043 127 249.776 127H245.224C244.957 127 244.823 127.323 245.012 127.512L247.288 129.788Z" fill="#A3A9AE"/>
</svg>
