<svg width="32" height="32" viewBox="0 0 32 32" fill="none" xmlns="http://www.w3.org/2000/svg">
<path d="M16.0244 8C12.7075 8 9.89615 10.2484 9.02481 13.2947C8.26753 11.6789 6.62649 10.5469 4.73629 10.5469C2.13683 10.5469 0 12.6835 0 15.2827C0 17.8819 2.13683 20.0193 4.73629 20.0193C6.62649 20.0193 8.26753 18.8867 9.02481 17.2705C9.89615 20.3171 12.7075 22.5663 16.0244 22.5663C19.3168 22.5663 22.1137 20.3511 23.0073 17.3388C23.7787 18.9183 25.3993 20.0193 27.2627 20.0193C29.8621 20.0193 32 17.8819 32 15.2827C32 12.6835 29.8621 10.5469 27.2627 10.5469C25.3993 10.5469 23.7787 11.6473 23.0073 13.2264C22.1137 10.2145 19.3168 8 16.0244 8ZM16.0244 10.78C18.5283 10.78 20.5285 12.779 20.5285 15.2827C20.5285 17.7863 18.5283 19.7863 16.0244 19.7863C13.5205 19.7863 11.5213 17.7863 11.5213 15.2827C11.5213 12.779 13.5205 10.78 16.0244 10.78ZM4.73629 13.3269C5.83331 13.3269 6.69325 14.1857 6.69325 15.2827C6.69325 16.3795 5.83331 17.2393 4.73629 17.2393C3.63929 17.2393 2.78032 16.3795 2.78032 15.2827C2.78032 14.1857 3.63929 13.3269 4.73629 13.3269ZM27.2627 13.3269C28.3597 13.3269 29.2197 14.1857 29.2197 15.2827C29.2197 16.3795 28.3597 17.2393 27.2627 17.2393C26.1657 17.2393 25.3068 16.3795 25.3068 15.2827C25.3068 14.1857 26.1657 13.3269 27.2627 13.3269Z" fill="#0082C9"/>
</svg>
