<svg xmlns="http://www.w3.org/2000/svg" width="24" height="24" viewBox="0 0 24 24" fill="none">
  <path fill-rule="evenodd" clip-rule="evenodd" d="M10.1904 2L11.4697 3.53183H12.5302L13.8092 2.00045L14.0152 2.04297C14.7536 2.19531 15.4603 2.43565 16.1282 2.74046L16.3213 2.82859L16.4708 4.82995L17.3291 5.46352L19.2464 4.98929L19.3886 5.14771C19.8872 5.70331 20.3244 6.31664 20.6932 6.97444L20.7977 7.16075L19.7623 8.86892L20.0897 9.89477L21.914 10.658L21.9373 10.871C21.9778 11.2415 22 11.6167 22 12C22 12.3833 21.9778 12.7585 21.9373 13.129L21.914 13.342L20.0893 14.1054L19.7607 15.1296L20.7958 16.8374L20.6914 17.0238C20.3227 17.6816 19.8854 18.2949 19.3867 18.8505L19.2446 19.0089L17.3273 18.5347L16.469 19.1683L16.3196 21.1688L16.1275 21.2573C15.4602 21.5646 14.7533 21.8029 14.0162 21.9569L13.8096 22L12.5302 20.4682H11.4697L10.1904 22L9.98388 21.9569C9.2467 21.8029 8.53984 21.5646 7.87251 21.2573L7.68042 21.1688L7.53101 19.1687L6.6713 18.5364L4.75362 19.0108L4.61144 18.8524C4.11282 18.2968 3.67557 17.6834 3.30681 17.0256L3.20236 16.8393L4.23768 15.1311L3.91031 14.1052L2.08598 13.342L2.06269 13.129C2.02219 12.7585 2 12.3833 2 12C2 11.6167 2.02219 11.2415 2.06269 10.871L2.08601 10.6577L3.91217 9.89633L4.23946 8.87073L3.20413 7.16256L3.30858 6.97624C3.67711 6.31886 4.11263 5.70526 4.61367 5.14903L4.75582 4.9912L6.67271 5.46533L7.53098 4.83175L7.68042 2.83121L7.87251 2.74276C8.53984 2.43547 9.2467 2.19714 9.98388 2.04315L10.1904 2ZM14.0779 2.79689L12.8597 4.25545H11.1402L9.92242 2.79726C9.38207 2.92348 8.85921 3.09871 8.35818 3.3161L8.21592 5.22046L6.82449 6.2476L4.99933 5.79617C4.63915 6.21547 4.31667 6.66886 4.03296 7.15041L5.01817 8.7759L4.48758 10.4386L2.74929 11.1633C2.72493 11.4394 2.71193 11.7177 2.71193 12C2.71193 12.2824 2.72494 12.5607 2.74931 12.8371L4.48588 13.5635L5.01639 15.2259L4.0312 16.8514C4.31492 17.3325 4.63836 17.786 4.99792 18.2056L6.82233 17.7543L8.2159 18.7792L8.35818 20.6839C8.85921 20.9013 9.38207 21.0765 9.92242 21.2028L11.1402 19.7446H12.8597L14.0776 21.2028C14.6179 21.0765 15.1408 20.9013 15.6418 20.6839L15.7841 18.7796L17.1755 17.7524L19.0003 18.2037C19.3598 17.7841 19.6833 17.3307 19.967 16.8496L18.9817 15.2239L19.5144 13.5634L21.2507 12.8371C21.2751 12.5607 21.2881 12.2824 21.2881 12C21.2881 11.7176 21.2751 11.4393 21.2507 11.163L19.5141 10.4365L18.9836 8.77409L19.9688 7.14863C19.6851 6.6675 19.3617 6.21407 19.0021 5.79445L17.1772 6.24579L15.7858 5.21866L15.6437 3.31498C15.1407 3.0981 14.6176 2.92204 14.0779 2.79689Z" fill="#657077"/>
  <path fill-rule="evenodd" clip-rule="evenodd" d="M10.1904 2L11.4697 3.53183H12.5302L13.8092 2.00045L14.0152 2.04297C14.7536 2.19531 15.4603 2.43565 16.1282 2.74046L16.3213 2.82859L16.4708 4.82995L17.3291 5.46352L19.2464 4.98929L19.3886 5.14771C19.8872 5.70331 20.3244 6.31664 20.6932 6.97444L20.7977 7.16075L19.7623 8.86892L20.0897 9.89477L21.914 10.658L21.9373 10.871C21.9778 11.2415 22 11.6167 22 12C22 12.3833 21.9778 12.7585 21.9373 13.129L21.914 13.342L20.0893 14.1054L19.7607 15.1296L20.7958 16.8374L20.6914 17.0238C20.3227 17.6816 19.8854 18.2949 19.3867 18.8505L19.2446 19.0089L17.3273 18.5347L16.469 19.1683L16.3196 21.1688L16.1275 21.2573C15.4602 21.5646 14.7533 21.8029 14.0162 21.9569L13.8096 22L12.5302 20.4682H11.4697L10.1904 22L9.98388 21.9569C9.2467 21.8029 8.53984 21.5646 7.87251 21.2573L7.68042 21.1688L7.53101 19.1687L6.6713 18.5364L4.75362 19.0108L4.61144 18.8524C4.11282 18.2967 3.67557 17.6834 3.30681 17.0256L3.20236 16.8393L4.23768 15.1311L3.91031 14.1052L2.08598 13.342L2.06269 13.129C2.02219 12.7585 2 12.3833 2 12C2 11.6167 2.02219 11.2415 2.06269 10.871L2.08601 10.6577L3.91217 9.89633L4.23946 8.87073L3.20413 7.16256L3.30858 6.97624C3.67711 6.31886 4.11263 5.70526 4.61367 5.14903L4.75582 4.9912L6.67271 5.46533L7.53098 4.83175L7.68042 2.83121L7.87251 2.74276C8.53984 2.43547 9.2467 2.19714 9.98388 2.04315L10.1904 2ZM14.0779 2.79689L12.8597 4.25545H11.1402L9.92242 2.79726C9.38207 2.92348 8.85921 3.09871 8.35818 3.3161L8.21592 5.22046L6.82449 6.2476L4.99933 5.79617C4.63915 6.21547 4.31667 6.66886 4.03296 7.15041L5.01817 8.7759L4.48758 10.4386L2.74929 11.1633C2.72493 11.4394 2.71193 11.7177 2.71193 12C2.71193 12.2824 2.72494 12.5607 2.74931 12.8371L4.48588 13.5635L5.01639 15.2259L4.0312 16.8514C4.31492 17.3325 4.63836 17.786 4.99792 18.2056L6.82233 17.7543L8.2159 18.7792L8.35818 20.6839C8.85921 20.9013 9.38207 21.0765 9.92242 21.2028L11.1402 19.7446H12.8597L14.0776 21.2028C14.6179 21.0765 15.1408 20.9013 15.6418 20.6839L15.7841 18.7796L17.1755 17.7524L19.0003 18.2037C19.3598 17.7841 19.6833 17.3307 19.967 16.8496L18.9817 15.2239L19.5144 13.5634L21.2507 12.8371C21.2751 12.5607 21.2881 12.2824 21.2881 12C21.2881 11.7176 21.2751 11.4393 21.2507 11.163L19.5141 10.4365L18.9836 8.77409L19.9688 7.14863C19.6851 6.6675 19.3617 6.21407 19.0021 5.79445L17.1772 6.24579L15.7858 5.21866L15.6437 3.31498C15.1407 3.0981 14.6176 2.92204 14.0779 2.79689Z" stroke="#657077" stroke-miterlimit="10"/>
  <circle cx="12" cy="12" r="4" stroke="#657077" stroke-width="2"/>
</svg>