<svg width="48" height="48" viewBox="0 0 48 48" fill="none" xmlns="http://www.w3.org/2000/svg">
<path d="M18 38H12C7.58172 38 4 34.4183 4 30C4 25.5817 7.58172 22 12 22C12.0553 22 12.1106 22.0006 12.1656 22.0017C13.1171 16.3254 18.0534 12 24 12C29.8984 12 34.8265 16.3917 35.8341 22C35.9069 21.998 35.9267 22 36 22C40.4183 22 44 25.5817 44 30C44 34.4183 40.4183 38 36 38H30M18 28L23.7172 22.2828C23.8734 22.1266 24.1266 22.1266 24.2828 22.2828L30 28M24 24V38" stroke="#4781D1" stroke-width="2" stroke-linecap="round"/>
</svg>
