<svg xmlns="http://www.w3.org/2000/svg" width="16" height="16" viewBox="0 0 16 16" fill="none">
  <path fillRule="evenodd" clipRule="evenodd" d="M5.3967 2.54332C6.54839 0.527879 9.45448 0.527876 10.6062 2.54332L15.1598 10.5122C16.3026 12.5122 14.8585 15.0006 12.5551 15.0006H11.0014V13.0006H12.5551C13.3229 13.0006 13.8043 12.1711 13.4233 11.5045L8.86968 3.5356C8.48578 2.86379 7.51708 2.86378 7.13319 3.5356L2.57955 11.5045C2.1986 12.1711 2.67997 13.0006 3.44779 13.0006H5.00143V15.0006H3.44779C1.14432 15.0006 -0.299778 12.5122 0.843063 10.5122L5.3967 2.54332ZM7.00112 15.001V13.001H9.00112V15.001H7.00112ZM7.00112 12.001V6.00103H9.00112V12.001H7.00112Z" fill="#ED7309"/>
</svg>
