<?xml version="1.0" encoding="UTF-8"?>
<svg xmlns="http://www.w3.org/2000/svg" viewBox="-2 168.36 964 623.29">
  <!-- Generated from amCharts geodata | Mercator projection -->
    <path d="M317.32,583.59L315.74,583.87L316.09,582.59L317.24,582.23ZM273.72,560.73L274.91,560.94L276.4,561.61L275.93,562.41L275.06,562.11L273.7,562.51L272.62,562.38L271.42,560.78L272.34,560.57ZM303.59,560.72L304.99,560.97L304.08,562.11L300.81,562.06L300.91,560.64ZM288.12,557.19L289.18,556.7L290.79,556.64L292.99,557.43L294.03,558.38L295.14,558.66L296.84,559.5L297.76,560.32L296.91,561.42L296.17,560.89L293.94,560.79L292.85,561.33L291.61,561.1L290.59,561.27L289.61,563.03L287.84,561.4L285.66,561.61L284.31,561.33L282.97,561.92L281.55,561.07L282.06,560.18L283.76,560.57L285.89,560.82L287.07,560.14L285.84,559.03L286.12,557.98L285.19,557.5L285.02,556.67L286.3,556.68ZM65.12,559.19L64.32,559.03L63.87,557.11L64.48,556.36L64.45,555.62L66.14,556.41L67.19,557.75L65.84,558.49ZM59.2,552.25L58.37,552.64L57.94,551.88L58.77,551.54ZM259.82,551.77L259.06,552.28L258.45,551.29L259.43,551ZM261.06,547.25L263.52,547.63L264.93,547.5L266.47,547.97L268.85,549.57L270.17,549.63L272.36,550.97L273.34,551.05L275.61,552.74L278.07,553.24L278.29,554.31L280.31,554.55L281.99,556.17L279.69,556.68L276.91,556.43L272.76,556.81L274.1,555.55L274.05,554.57L272.01,554.36L270.69,553.4L270.3,552.08L268.6,551.94L266.05,551.05L265.34,550.5L264.1,550.53L261.82,550.11L261.59,548.73L259.36,548.7L257.65,550.04L255.13,550.47L255.04,549.59L255.88,548.76L257.98,547.89ZM272.8,544.05L273.28,545.27L272.61,545.61L272,544.25ZM272.43,542.57L272.68,543.54L271.88,544.05L271.2,542.68L271.91,541.54ZM286.86,490.64L287.1,491.15L284.82,492L283.8,491.06ZM317.57,472.21L317.85,473.38L318.74,472.59L318.65,471.6L320.36,471.77L318.97,473.7L316.58,474.01L316.01,472.61L317.68,469.3L319.12,469.41L318.46,471.72ZM309.78,470.48L311.65,470.75L314.23,470.5L312.32,472.38L310.29,471.49ZM315.35,460.1L314.08,460.21L310.49,458.9L308.98,456.67L312.38,457.65L315.15,459.38ZM139.43,452.99L142.13,454.28L145.38,455.11L147.62,458.79L149.34,459.62L150.67,462.23L150.41,463.23L147.5,462.16L144.46,460.16L144.44,459.41L142.54,458.82L142.18,456.94L141.03,456.93L138.92,454.57ZM332.12,449.84L331.01,452.63L328.82,456.18L331.29,456.59L330.95,458.16L333.38,459.44L334.46,458.53L336.11,458.73L337.14,459.96L336.39,461.3L337.25,463.63L336.81,464.87L338.79,464.44L338.2,465.94L339.59,466.35L338.48,469.75L337.02,469.75L337.12,468.67L335.54,468.97L336.35,466.99L336.03,465.53L334.84,466.69L333.72,467L332.49,468.87L331.23,469.03L332.82,466.74L330.08,465.86L328.13,466.25L324.44,465.84L322.35,466.26L321.7,465.09L323.44,463.26L323.42,462.16L325.29,458.32L326.76,454.5L328.67,451.07L330.6,449.81ZM264.77,444.51L261.76,443.76L261.74,442.74L263.64,442.66ZM128.39,442.55L128.93,443.11L128.51,445.59L127.08,442.97ZM136.98,443.07L137.31,445.69L135.77,444.36ZM35.69,439.54L36.15,440.66L34.3,441.22L34.72,439.26ZM125.62,438.45L128.79,439.15L127.97,442.39L126.01,442.19L125.19,440.09ZM44.06,434.59L44.38,435.72L42.47,436.25L41.09,437.24L40.3,436.31L41.25,435.05L43.02,434.31ZM130.76,431.84L128.94,431.75L129.95,430ZM123.82,428.16L124.79,428.26L128.06,433.52L128.05,435.4L125.91,434.27L124.14,430.75L124.69,430.16ZM269.58,428.25L268.87,430.33L266.66,430.11L268.29,428.46ZM123.45,424.65L125.14,425.08L125.44,426.53L123.73,427.56ZM119.83,422.9L121.01,426.33L117.9,423.39ZM72.27,420.88L73.57,422.72L69.88,425.01L68.43,425.34L67.45,423.31L68.58,421.8L69.82,422.02ZM118.05,418.76L119.99,419.73L119.77,422.44L117.13,421.62L115.97,419.51ZM120.71,418.86L121.95,420.57L122.87,423.3L121.51,424.68L120.91,421.8ZM36.97,407.58L38.05,407.95L38.42,410.1L36.83,410.84L34.3,409.59L36.06,407.58ZM267.74,396.26L268.47,398.48L267.43,400.81L265.93,399.43L266.61,396.67ZM261.21,393.03L261.03,394.88L258.62,397.43L256.8,397.72L256.27,395.9L257.66,393.41ZM22.28,388.53L26.62,389.94L29.73,391.84L27.26,392.3L25.26,390.61L21.89,390.34ZM253.18,377.9L257.58,380.02L261.2,382.91L262.09,386.74L264.46,386.33L265.86,388.32L263.88,390.12L260.32,388.65L260.09,387.32L257.35,386.27L256.72,388.01L254.31,391.03L252.01,392.03L251.43,388.94L247.5,388.86L249.99,386.04L249.67,383.4L250.77,376.18L252.69,375.58ZM277.69,358.18L279.59,358.92L279.66,363.85L277.92,365.61L274.65,365.73L273.85,362.67L275.36,358.94ZM220.08,348.27L223.2,350.73L224.84,355.27L222.93,357.2L220.07,356.67L215.32,354.33L214.5,353.06L217.45,350.8L217.2,349.21ZM338.39,344.6L341.21,347.19L341.03,349.63L337.12,351.39L336.58,349.5L333.86,348.55L333.79,344.44L335.01,343.2ZM412.11,338.18L412.26,340.53L405.61,342.12L406.11,338.55ZM272.26,591.52L271.55,590.67L270.88,589.28L271.7,588.42L269.1,586.76L268.16,586.73L267.33,587.84L265.68,588.67L265.45,589.24L266.47,590.34L265.5,591.4L264.41,591.54L263.91,590.22L262.66,590.2L262.06,589.08L259.52,588.58L258.34,588.5L258.23,587.86L256.71,587.79L256.97,586.66L256.28,586L254.24,585L253.03,585.18L251.67,584.31L251.12,582.97L251.55,582.03L251.35,581.09L249.42,579.33L248.65,578.19L246.22,576.14L246.9,575.53L246.11,574.9L245.52,575.39L243.97,575.38L241.93,574.57L240.52,574.35L238.38,573.33L236.94,573.34L235.15,572.51L233.96,571.58L232.51,570L229.56,567.47L228.34,566.83L227.57,567.06L226.93,566.46L225.43,567.69L223.43,568.47L222.64,568.58L220.84,567.87L219.32,567.71L218.3,567.04L217.28,566.77L216.63,566.13L214.16,565.62L213.27,565.06L211.07,564.28L209.07,563.02L208.41,562.26L206.13,561.86L204.16,561.13L202.9,559.71L200.16,558.35L198.71,556.47L198.21,555.3L199.31,554.75L198.69,554.19L199.37,553.21L199.44,552.15L198.27,550.72L197.89,548.88L196.26,547.23L194.84,545.24L192.13,543.09L191,541.39L189.26,540.54L188.31,539.81L188.2,538.91L188.8,538.1L188.05,536.89L187.32,536.91L186.82,535.79L185.39,535.06L185.25,533.43L183.68,533.12L182.19,531.6L180.9,529.93L180.74,529.16L179.36,526.97L178.37,524.47L178.54,523.27L177,522.75L176.14,521.86L175.6,522.24L173.76,521.33L173.65,523.34L174.31,525.36L174.27,526.19L175.01,527.44L176.65,528.86L177.33,530.21L178.12,530.6L179.01,531.74L179.38,533.55L180.46,534.46L181.31,536.12L182.48,536.9L183.11,538.63L183.22,539.63L183.91,540.41L184.86,542.58L185.21,544.27L186.61,544.38L188.21,546.41L188.11,547.18L186.87,548.13L186.44,547.78L185.7,546.04L182.88,543.93L181.14,542.43L181.18,540.52L180.33,538.37L178.61,537.27L178.12,536.45L177.07,536.86L176.42,536.13L174.81,535.37L174.56,534.73L173.35,533.82L175.2,533.4L175.87,531.73L175.61,531.19L173.35,528.81L171.54,527.67L171.16,525.98L170.5,524.44L168.9,522.06L167.35,518.6L166.75,516.6L165.12,515.23L164.24,515.16L163.98,514.28L162.28,513.98L161.05,512.99L158.72,512.82L158.28,512.47L158.31,510.85L157.71,509.91L154.99,506.73L155.23,505.4L153.61,503.82L153.42,501.7L152.09,500.82L152.04,500.21L150.13,498.06L149.64,494.77L148.47,493.41L148.34,492.57L148.98,490.89L149.15,489.42L147.89,484.28L148.94,481.06L149.52,474L149.14,469.5L148.33,465.91L147.68,464.94L147.65,463.06L149.4,463.89L154.02,464.52L152.56,460.56L151.87,460.56L151.11,458.66L149.71,458.56L148.96,457.29L148.04,457.22L146.11,454.44L142.92,454.22L142.32,452.6L141.18,452.8L139.44,451.59L139.61,450.2L138.39,448.87L137.71,447.26L138.38,444.2L137.46,444.12L136.93,442.49L135.24,441.82L134.5,442.45L132.44,440.34L133.22,438.48L131.07,435.39L130.54,433.76L130.88,431.04L129.9,429.73L128.42,429.02L125.83,424.76L124.09,424.11L123.86,421.52L122.5,418.93L120.6,417.69L119.19,418.7L117.7,417.06L115.78,418.75L113.22,417.04L111.06,414.43L106.09,411.09L104.42,410.97L102.21,409.79L98.81,409.11L96.52,409.56L93.6,407.84L90.94,407.06L88.34,404.19L84.41,405.02L84.81,408.74L84.19,409.69L81.51,409.63L79.47,411.93L78.45,411.94L77.44,413.62L75.36,413.91L75.37,409.7L76.13,408.55L76.48,405.63L78.82,404.09L78.37,402.55L75.38,404.71L75.33,405.56L71.72,410.3L69.1,413L68.99,414.27L71.13,415.49L69.28,417.49L68.67,419.19L66.65,419.91L62.72,423.34L62.73,424.44L59.79,426.74L57.56,427.7L57.93,428.85L54.6,430.69L53.43,430.76L50.4,432.6L48.69,432.67L47.8,433.85L45.69,434.71L45.43,433.64L47.58,431.12L50.09,429.68L51.06,430.87L52.53,428.28L55.25,426.47L57.81,423.49L59.71,421.99L59.94,417.86L57.32,415.66L55.78,417.61L54.21,415.35L52.37,414.62L48.65,416.89L48.46,411.81L47.35,408.68L44.75,410.46L42.91,410.66L40.9,408.01L39.06,406.72L40.52,404.81L38.49,403.65L37.12,399.74L39.48,395.92L41.58,391.58L44.38,392.58L48.07,390.17L50.4,389.54L51.26,387.97L50.85,383.31L50.17,381.16L48.64,381.84L45.85,384.58L43.43,383.26L40.27,384.05L36.95,383.29L33.59,378L31.76,376.48L40.87,370.57L43.27,370.73L43.48,373.7L48.49,373.9L49.18,372.6L52.72,371.47L51.03,369.79L48.38,369.59L48.09,367.22L45.33,367.37L43.41,366.22L42.33,363.37L36.32,357.54L36.78,354.16L41.86,353.79L44.9,350.4L45.46,347.57L48.32,343.09L50.68,343.31L55.16,338.7L58.67,338.97L61.91,335.07L66.22,336.89L68.81,339.33L71.38,338.26L74.05,339.25L74.81,342.13L81.95,341.74L86.12,343.99L91.14,344.45L92.81,345.63L98.08,344.79L102.91,348.38L108.85,349.43L111.66,352.18L115.42,354.14L117.66,353.93L118.16,350.98L119.62,349.8L124.9,350.05L125.76,348.4L128.18,347.61L132,344.58L136.08,347.93L139.29,343.96L140.96,343.82L142.37,347.79L144.25,350.17L147.29,345.78L150.38,350.48L151.93,347.17L154.48,347.12L157.43,348.32L159.22,350.15L163.02,351.39L165.08,352.99L170.49,354.39L171.65,353.52L174.9,355.83L176.09,357.72L173.96,358.66L172.98,361.87L176.85,362.71L180.17,362.82L184.03,362.07L186.55,360.75L187.65,362.48L190.42,363.48L191.76,367.08L194.25,368.36L191.3,359.52L190.17,358.61L191.16,356.18L196.89,353.91L198.86,357.3L202.15,360.37L204.07,359.77L206.15,361.93L209.19,362.76L212.12,361.73L215.61,362.55L217.55,361.82L220.12,363.3L220.78,361.62L217.5,360.13L218.08,358.32L220.62,357.33L221.39,358.76L223.9,359.46L223.01,363.74L224.58,366.23L225.98,365.76L224.93,362.45L225.44,360.44L227.35,360.09L230.26,356.68L230.23,354.51L228.61,349.89L223.87,347.01L222.69,344.72L223.4,341.42L222.54,339.26L222.92,335.45L226.13,330.13L228.51,331.32L232.14,335.55L232.05,338.91L235.83,344.3L232.66,347.91L237.81,351.14L238.75,354.32L242.52,351.32L245.22,354.71L245.84,357.69L244.41,358.53L244.81,362.25L247.29,366.3L249.24,364L250.79,360.07L251.38,356.04L253.7,352.76L252.3,351.58L251.98,346.9L255.36,346.98L259.68,348.09L259.62,349.87L263.12,352.42L263.25,355.84L259.86,357.38L261.4,361.57L263.28,364.39L262.75,367.08L259.62,370.35L254.72,373.07L251.72,370.48L248.98,370.73L250.55,374.1L247.22,378.43L245.41,378.46L240.67,374.67L240.2,375.68L242.74,378.47L247.93,379.42L247.25,381.77L245.05,385.76L243.59,386.82L239.62,386.99L239.96,388.06L236.45,389.85L238.01,390.77L237.68,393.17L236.14,394L233.7,393.91L230.88,400.29L229.57,401.55L227.61,407.4L227.24,409.88L227.43,415.39L228.57,416.35L231.26,416.14L234,424.91L237.04,423.77L238.42,423.85L240.56,425.05L242.8,425.68L245.13,427.54L246.5,429.52L251.12,431.42L253.17,433.16L256.24,433.03L259.79,433.8L260.75,435.36L260.22,437.47L260.96,439.91L260.64,443.74L262.4,446.07L262.24,446.68L264.91,449L265.69,450.83L267.1,451.5L268.01,449.81L269.39,449.1L270.69,446.86L270.07,445.21L268.69,438.64L267.56,435.9L269.58,435.05L272.29,433.39L273.8,431.89L275.6,429.27L275.93,425.48L275.59,423.08L274.25,419.9L270.63,416.52L270.78,415.54L272.64,412.91L272.73,411.35L273.83,409.41L272.34,405.39L272.7,401.8L271.63,398.02L271.82,396.6L273.67,395.34L280.83,397.58L283.65,396.03L287.78,400.16L289.54,403.34L292.59,403.84L294.29,405.92L293.98,407.55L294.18,413.11L294.58,415.56L296.8,415.38L297.8,416.97L299.81,418.91L302.38,417.21L305.05,414.31L306.85,408.28L308,408.2L310.56,413.16L311.51,415.62L313.08,417.59L313.85,420.13L314.94,420.69L315.06,423.08L316.44,424.9L315.96,427.92L317.1,430.42L317.78,429.99L320.19,433.29L322.67,433.8L323.25,435.25L324.81,435.12L326.92,436.48L324.93,437.49L326.89,438.35L327.6,439.78L329.43,440.15L331.21,442.63L331.11,446.6L331.48,447.35L328.06,450.29L323.97,450.98L322.23,453.17L319.79,455.37L316.56,455.59L312.76,455.17L307.02,455.28L305.95,455.1L302.68,455.55L301.49,456.45L300.34,459.11L297.91,459.73L296.19,461.23L293.93,464.17L293.58,465.23L291.45,467.96L291.95,468.38L296.03,463.46L299.84,461.12L303.53,459.67L305.27,459.45L307.1,459.75L308.64,460.85L308.66,462.35L305.97,464.47L304.2,463.81L304.89,465.77L306.06,465.31L307.46,465.65L306.9,467.06L305.82,468.11L306.92,468.94L307.89,471.46L311.22,473.33L313.38,473.83L314.79,472.89L316.02,473.58L316.58,475.3L313.3,476.77L309.97,478.11L308.57,477.88L308.33,478.8L307.03,480.41L304.7,481.55L303.66,480.61L303.73,478.56L304.92,477.09L308.14,475.22L306.94,473.81L304.31,475.34L301.67,475.93L300.36,477.33L298.91,478.24L297.93,478.03L295.82,479.56L293.89,480.65L292.86,480.79L291.12,484.24L290.54,486.03L291.36,486.39L292.25,488.55L291.58,488.88L289.53,488.53L289.27,489.44L285.74,489.84L283.78,490.7L282.06,492.16L282.78,493.14L282.2,495.23L281.52,496.41L280.27,497.24L278.95,497.42L279.9,499.44L278.24,501.3L276.55,499.47L276.88,498.25L275.95,498.09L276,499.34L276.63,501.51L276.63,503.32L276.26,503.8L277.33,504.8L277.63,505.65L276.06,507.73L277.94,508.16L277.94,508.99L276.87,509.95L275.97,510.22L275.35,511.29L272.66,513.42L271.96,514.62L270.46,514.75L269.55,515.43L268.6,517.11L266.61,518.74L266.05,518.88L264.4,520.34L263.47,521.63L263.53,522.17L262.61,524.22L263.33,527.56L264.27,529.83L265.27,531.55L264.93,532.47L266.06,535.41L266.56,537.32L266.33,539.5L265.69,540.98L264.7,541.5L263.74,541.02L263.03,539.51L262.09,539.06L261.69,537.71L260.16,535.85L259.57,533.87L259.08,533.48L259.57,531.55L259.6,530.33L257.89,528.6L256.82,527.15L255.88,526.6L254.98,527.21L252.48,527.9L252.39,527.3L249.98,525.4L245.89,526.02L242.92,525.64L241.1,526.41L239.4,525.75L238.9,526.49L241.09,527.18L239.73,529.43L238.99,529.08L238,529.59L236.56,529.1L236.45,528.42L234.95,527.43L233.97,528.28L231.53,527.6L230.15,527.63L226.96,528.85L225.94,530.1L224.39,531.08L222.8,531.22L222.5,531.91L220.92,532.58L220.88,533.38L219.85,536.12L220.26,537.83L220.96,538.92L220.73,540.23L219.98,541.92L219.55,543.75L219.05,548.89L219.63,551.82L221.01,554.65L222.78,556.77L223.23,558.26L224.48,559.92L226.18,560.07L227.21,560.59L227.88,561.55L228.83,561.49L230.53,560.83L232.31,560.72L232.77,560.32L234.74,560.03L235.19,560.72L236.6,560.29L236.42,559.51L238.03,558.23L238.15,557.16L238.65,556.65L238.71,554.82L239.06,553.52L240.48,552.77L242.99,552.37L244.98,551.79L248.47,552.35L248.36,553.88L246.75,556.11L246.87,557.58L245.97,560.79L245.07,561.7L244.61,563.13L244.5,565.86L243.48,566.93L242.95,567.92L244.98,568.45L246.35,567.87L248.25,568.28L249.72,568.22L251.24,567.61L252.04,567.9L253.4,567.64L255.3,568.11L256.64,569.78L257.68,569.72L258.25,570.4L257.87,571.08L258.17,572.2L257.57,573.15L257.15,575L257.3,577.49L256.62,578.8L256.93,579.59L256.35,580.52L257.47,582.78L259.26,584.94L260.34,585.59L260.68,586.66L263.05,587.34L264.43,587.05L266.33,586.18L267.79,585.13L270.66,585.65L271.78,586.11L273.75,587.73L275.06,589.2L274.97,587.78L276.59,586.78L276.97,586.03L278.29,585.53L278.21,583.51L278.81,582.39L280.41,581.04L281.45,581.36L282.51,580.41L284.5,580.53L286.07,579.4L287.27,578.92L287.64,578.1L288.76,577.47L289.97,577.7L290.3,578.49L289.36,579.38L288.35,579.63L288.14,580.21L289.08,582.26L288.89,582.84L287.7,584.55L288.64,585.84L288.83,586.55L289.87,586.41L290.44,585.81L290.53,584.84L289.64,583.33L289.21,581.93L289.41,581.43L292.71,580.32L292.57,578.92L293.32,578.13L293.78,578.63L294.32,580.03L296.46,580.16L297.6,580.9L298.04,582.5L299.01,582.77L301.36,582.39L303.34,582.33L304.4,583.35L306.32,583.86L307.07,583.78L309.67,582.25L310.68,582.3L312.79,582.01L312.42,582.91L313.29,583.57L313.81,584.63L314.35,584.09L315.29,584.55L315.97,584.46L316.51,585.04L317.89,585.78L317.19,586.49L316.52,588.34L317.86,587.85L319.09,587.75L320.05,588.01L322.13,589.25L323.66,590.67L324.05,592.03L325.38,592.71L328.08,594.84L330.83,595.37L331.12,594.92L333.78,594.85L336.41,595.4L337.45,595.99L338.94,596.36L340.56,597.65L342.22,599.56L342.77,599.33L343.41,599.92L343.86,602.09L344.91,605.17L345.44,605.97L346.78,606.42L346.94,607.75L345.88,608.62L344.49,610.39L343.25,611.08L342.13,612.88L341.47,615.08L343.21,614.11L344.22,613.82L344.83,615.55L345.59,616.23L346.67,615.73L347.41,615.99L348.5,615.47L349.36,615.73L350.11,614.82L350.81,614.9L350.8,613.9L351.69,612.82L353.61,612.52L355.17,612.93L355.69,613.44L356.75,613.6L358.28,614.44L359.8,614.76L360.93,615.51L361.84,617.61L362.85,617.74L365.5,617.43L367.33,618.3L368.33,618.18L369.82,618.68L372.07,618.31L373.43,618.48L377.4,620.77L378.54,622.1L380.87,623.97L382.42,624.46L384.05,624.35L385.2,624.55L386.04,625.72L386.7,627.93L387.19,630.34L387.11,632.18L386.25,634.76L385.76,635.57L382.94,638.96L381.5,639.88L380.23,641.72L379.5,643.36L378.03,645.39L376.57,645.22L376.44,646.22L375.76,647.43L376.15,648.64L375.84,650.36L376.32,653.71L375.67,656.2L375.43,657.74L375.59,658.83L374.7,659.63L374.03,661.46L374.13,663.26L373.33,664.57L372.28,666.92L371.23,667.88L370.54,669.59L370.7,670.78L370.34,671.26L368.79,671.91L368.05,672.69L367.89,673.75L365.44,673.8L363.91,674.03L363.02,673.64L360.97,674.06L360.89,674.87L360.13,675.01L358.87,675.89L357.41,676.21L355.02,677.5L352.33,679.73L350.55,682.15L350.19,684.78L350.52,686.26L350.34,688.91L349.87,690.42L348.61,691.32L347.34,692.82L346.58,694.16L345.87,696.09L343.58,695.9L342.76,698.04L341.41,699.07L340.82,700.64L340.99,701.53L340.42,702.39L339.59,704.6L337.55,706.65L336.57,708.59L335.55,709.53L333.59,710.38L331.54,709.87L330.35,710.3L328.39,709.54L327.55,708.82L325.79,708.9L324.27,707.08L323.93,708.31L324.58,709.57L327.19,711.21L327.58,712.25L327.06,712.95L327.29,714.35L328.81,715.28L328.87,716.69L326.94,719.69L326.54,720.84L324.86,722.03L320.46,723.4L317.03,723.93L314.49,723.68L313.76,724.47L314.52,725.24L313.9,727.05L313.61,730.53L312.11,731.31L309.94,731.45L307.06,730.26L306.31,730.5L306.62,732.93L306.51,734.37L308.21,736.04L310.41,735.94L310.15,737.39L308.99,737.59L308.47,736.54L307.6,736.4L306.59,737.22L308.18,738.31L306.7,739.17L305.91,740.41L306.03,741.95L305.7,743.55L304.94,744.24L304.96,745.54L303.49,745.38L301.49,746.49L299.85,749.2L299.83,750.65L301.93,753.21L304,753.56L304.7,754.55L304.51,756.9L302.95,758.51L301.25,759.66L299.51,762.17L299.24,764.69L296.16,766.86L295.37,769.25L295.91,772.18L297.62,775.08L295.36,774.64L294.51,775.58L291.21,777.11L290.68,781.61L289.87,782.08L287.53,780.95L288.39,779.4L289.6,778.6L289.63,777.09L286.78,779.26L285.19,779.21L282.63,776.54L283.11,774.76L283.95,773.92L282.74,772.82L282.94,770.87L280.49,769.73L279.75,768.12L281.78,765.16L281.76,759.53L281.13,758.24L280.92,755.96L282.24,753.91L282.26,753.09L278.25,751.67L280.2,749.93L279.82,748.84L282.25,748.43L282.57,747.09L283.87,747.34L284.37,745.43L286.03,744.51L286.23,743.4L284.63,742.4L285.34,740.41L285.06,739.76L285.66,738.27L285.91,735.57L286.67,734.41L286.21,733.26L285.29,732.85L283.94,733.75L283.17,732.76L282.76,731.34L283.55,727.7L284.24,726.68L284.73,724.73L283.91,721.79L284.09,720.69L283.57,719.53L283.73,717.82L284.76,717.75L285.02,716.15L285.67,715.16L286.34,712.51L287.4,710.91L287.99,707.89L288.89,706.24L288.69,704.46L289.46,703.08L289.26,700.39L288.9,698.4L288.88,695.8L289.6,695.22L289.82,693.7L289.28,691.49L290.17,689.82L290.53,687.86L291.61,683.67L291.43,682.05L292.15,680.25L291.8,678.69L292.03,676.17L291.83,674.06L292.45,673.46L293.1,669.56L292.81,667.36L292.94,664.75L292.6,663.23L292.37,660.78L289.77,658.77L289.25,657.68L287.7,656.87L286.75,656.05L285.88,655.79L283.13,654.51L282.27,653.84L279.72,652.45L278.58,651.04L277.51,650.3L276.56,648.93L276.84,647.23L275.11,644.04L274.26,643.25L274.08,642.17L272.98,641.15L272.7,639.92L271.51,637.89L269.97,633.92L269.3,632.82L268.33,631.81L267.3,629.74L266.37,628.62L264.5,627.64L263.52,626.72L264.31,626.23L263.71,624.27L263.1,623.32L263.24,622.39L264.54,620.81L266.6,619.46L267.39,617.73L266.33,617.59L265.47,617.85L264.1,616.69L264.61,616.39L264.53,614.54L264.26,613.73L265.19,613.11L265.38,611.83L266.31,610.87L266.6,609.75L266.43,608.76L267.36,608.24L269.6,607.63L269.89,605.92L270.35,604.7L271.68,604.21L272.88,603.17L274.02,601.28L274.22,600.54L273.53,600.01L273.9,598.24L273.6,596.38L274,595.41L273.41,594.35L273.71,593.47ZM174.67,323.81L177.33,323.19L179.32,320.56L183.28,323.02L186.12,323.49L186.64,320.58L190.14,324.93L191.44,331.43L193.85,330.21L192.81,328.01L191.36,319.46L192.75,317.4L196.05,318.63L198.89,322.35L199.38,325.68L201.73,334.11L201.15,336.85L202.79,339.64L210.74,345.47L210.84,347.9L207.38,346.92L205.55,349.06L208.07,350.26L208.38,353.14L204.09,354.73L199.95,352.71L196.96,352.1L195.58,350.01L193.49,353.3L189.48,355.09L183.17,356.69L178.33,357.04L177.02,354.51L176.82,351.86L172.91,351.33L169.3,350.12L167.72,347.22L167.64,344.92L174.42,343.24L179.63,343.93L181.03,342.18L176.65,340.22L170.69,341.06L166.43,340.71L164.63,338.62L165.83,336.4L163.02,331.98L162.81,329.43L164.76,327.02L164.33,324.63L166.53,321.96L174.3,316.99L175.71,321.69ZM199.47,320.91L194.88,315.99L195.7,313.96L198.63,313.29L200.94,314.73L201.11,317.17ZM266.96,313.9L271.24,314.24L274.12,315.81L276.56,319.69L276.27,322.06L272.44,321.37L268,322.64L266.18,318.37L264.47,316.92L264.4,313.71ZM249.4,337.36L253.89,336.94L254.13,332.45L250.9,329.42L252.42,325.62L251.61,322.47L253.28,317.34L259.57,313.63L262.92,314.53L265.93,322.74L264.16,327.48L270.79,325.5L272.66,322.92L275.47,323.19L279.22,325.1L280.26,328.43L283.43,331.7L288.96,333.42L293.47,338.97L297.71,341.57L300.36,345.43L302.17,351.17L299.33,353.03L298.57,356.62L301.25,358.25L303.4,360.88L307.93,361.92L309.31,365.17L311.89,365.95L313.65,368.2L314.75,367.43L316.53,369.94L314.69,374.02L312.91,376.59L311.03,377.22L310.93,379.93L307.56,379.61L305.6,375.79L305.85,374.19L302.73,372.4L300.84,374.02L297.98,374.65L300.52,377.61L301.71,380.1L305.93,382.99L306.64,386.82L307.52,386.7L307.96,391.3L306.48,391.3L305.96,394.52L304.06,392.85L299.53,392.3L303.25,396.9L303.32,399.37L300.16,397.77L295.78,396.31L294.55,394.34L292.7,394.24L289.99,392.6L284.15,384.28L281.3,382.75L279.82,384.07L275.4,385.4L272.56,384.63L271.53,383.07L271.74,381.06L273.47,379.66L273.8,377.8L277.79,379.24L283.84,377.22L281.51,373.33L285.24,369.4L287.41,365.82L284.46,358.68L280.94,355.47L280.22,353.44L276.26,355.59L277.9,350.93L273.09,346.9L272.74,344.36L268.52,346.52L263.74,344.98L260.96,346.93L258.42,345.67L256.37,345.99L249.81,344.56L249,342.54L245.6,343.72L243.07,341.57L241.69,337.16L245.23,338.11L245.67,335.99L242.45,335.33L240.41,333.62L239.93,329.74L241.97,319.8L246.08,313.7L248.62,312.64L253.04,312.88L248.99,321.6L250.57,331.27L253.27,334.79ZM213.33,311.56L215.58,313.61L219.78,312.12L221.33,314.23L219.21,317.81L221.19,323.71L222.36,330.73L216.9,335.21L215.55,334.67L211.75,327.98L208.74,326.56L206.1,322.4L208.21,319.91L209.73,322.73L212.04,322.49L212.58,319.33L209.46,316.45L210.89,312.91ZM230.91,309.3L234.07,311.3L239.05,312.3L234.35,322.66L231.09,322.23L229.23,329.05L226.15,329.06L225.21,322.41L224.98,313.96L226.74,310.64ZM160.7,309.78L166.63,308.78L171.97,314.68L172.14,316.38L162.77,323.29L161.58,326.16L159.52,327.46L158.35,333.51L151.44,336.69L149.31,332.06L144.63,328.11L146.7,324.14L147.1,319.73L149.87,313.27L147.48,307.63L156.49,305.83ZM432,296.8L433.1,301.13L430.21,301.04L429.72,297.73ZM230.53,300.53L230.54,304.21L227.47,304.7L223.28,301.88L222.49,300.04L224.88,295.51L228.19,294.82ZM206.86,289.45L204.49,292.98L201.73,288.38L205.07,286.93ZM219.4,284.84L220.24,295.26L219.2,299.85L212.71,300.98L211.43,296.81L206.56,295.67L209.52,290.49L207.63,287.23L212.3,283.49ZM190.97,289.66L194.31,291.73L196.28,289.74L198.72,293.18L197.7,299.07L194.26,301.8L189.78,300.39L184.16,304.74L179.95,306.95L177.3,306.82L174.8,300.15L171.39,301.38L166.4,298.23L169.04,289.59L171.79,285.5L175.48,285.34L179.47,288.16L183.86,295.3L189.1,295.75L189.48,293.69L185.95,285.74L188.43,281.79L190.75,282.05ZM227.69,279.47L232.76,283.61L236.52,282.71L237.72,285.51L241.91,287.04L239.33,289.81L244.8,295.69L247.31,294.56L250.48,295.8L256.18,292.38L260.92,292.25L267.57,296.36L267.98,302.29L265.93,305.31L261.84,306.36L257.25,305.27L254.87,306.05L244.21,306.18L240.41,305.64L234.77,303.17L233.52,297.06L234.17,292.08L231.76,286.45L225.94,287.46L222.29,282.46L221.98,279.31ZM170.65,273.41L171.67,275.79L170.08,283.52L161.69,287.94L160.23,291.95L154.91,290.02L152.6,287.87L155.7,285.46L162.43,275.31L168.44,272.58ZM225.38,269.29L231.2,269.95L230.61,273.25L224.03,273.13ZM185.45,265.31L187.28,267.19L186.14,272.63L181.46,274.84L178.23,272.56L178.09,267.88ZM186.82,257.69L188.29,262.27L178.27,261.32L185.58,256.63ZM223.32,259.41L226.97,262.15L226.43,266.74L221.36,269.12L217.99,261.04L218.1,255.97ZM203.45,248.26L214.37,258.98L215.56,268.47L211.77,268.03L210.47,264.14L206.05,261.81L201.8,263.15L203.95,256.46L198.57,252.81L198.97,248.67ZM234.67,219.25L238.29,229.22L246.2,232.79L247.62,243.72L252,245.67L252.56,250.32L247.96,254.67L243.22,264.16L238.36,264.71L232.86,261.57L226.39,249.16L225.87,243.86L221.94,236.52L225.03,232.41L223.65,227.62L225.95,222.43ZM294.48,183.38L310.29,187.97L316.06,195.16L314.2,203.55L307.8,209.41L305.38,217.51L292.95,232.39L289.63,242.23L284.55,245.8L279.31,247.27L276.65,253.17L281.51,257.07L277.69,266.52L271.97,267.34L271.8,272.7L268.42,277.08L271.23,279.23L271.24,283.98L264.83,288.44L263.54,284.65L256.31,285.33L252.96,287.01L241.15,284.88L241.33,281.01L244.27,277.74L248.34,276.58L245.08,270.21L247.95,268.02L246.53,264.36L248.51,256.38L255.16,253.61L253.09,244.46L249.54,240.98L249.85,233.63L256.74,235.06L266.53,230.28L257.6,227.25L252.51,230.32L242.88,225.73L240.14,219.48L242.72,212.93L238.69,206.72L249.12,200.75L253.61,195.52L259.9,199.57L261.01,192.4L266.97,185.26L273.39,186.46L278.01,182.89L293.41,181.36ZM398.13,170.36L410.81,177.45L414.75,186.59L422.61,192.53L412.94,204.37L423.1,203.06L423.61,210.12L434.06,214.93L438.52,207.54L447.49,210.97L449.26,215.04L441.32,226.43L435.3,229.55L435.02,235.54L428.19,234.61L426.3,241.61L428.58,243.41L429.13,251.12L424.12,259.36L424.37,267.77L426.05,274.54L431.1,276.4L430.64,281.58L424.15,280.31L421.66,283.95L422.48,287.13L426.39,287.97L427.98,293.05L428.2,298.67L425.37,297.78L428.73,306.33L428.35,308.27L423.65,309.96L425.69,312.5L425.31,315.87L420.84,317.95L421.24,321.17L420.55,328.27L415.82,324.94L414.22,325.48L421.3,331.96L421.99,333.74L422.61,341.54L417.79,342.14L416.56,341.31L414.99,336.5L411.58,333.31L411.35,336.2L408.75,338.11L406.16,337.76L403.89,341.94L405.29,342.53L408.67,341.95L409.56,343.96L411.92,342.92L418.2,344.8L418.43,346.61L409.76,355.51L402,358.45L400.35,358.36L397.39,360.15L394.3,357.83L393.93,361.14L391.58,363.23L389.06,369.42L387.65,371.37L382.99,375.36L379.32,376.9L373.44,377.13L374.46,378.52L371.59,381.21L372.85,383.93L371.69,386.07L371.87,388.54L367.59,395.37L367.14,397.76L367.71,399.44L366.88,401.24L366.09,405.49L364.92,407.85L364.48,410.02L362.49,410.03L358.99,408.55L358.43,406.84L357.21,406.32L357.3,403.68L355,405.22L352.54,405.16L349.54,402.68L348.56,400.94L347.86,397.3L345.82,395.92L345.76,393.86L342.75,389.04L342.8,387.45L341.08,384.33L340.64,379.7L336.97,371.51L338.56,368.74L336.31,366.63L337.55,363.59L337.13,361.75L338.56,356.18L343.34,355.24L345.33,346.2L340.65,345.24L335.96,342.38L335.56,339.17L340.25,340.25L342.6,342.23L343.65,337.94L338.35,335.12L337.4,332.38L334.16,334.67L331.75,333.11L332.49,328.34L331.73,325.34L334.03,321.59L331.55,320.36L332.54,318.02L330.39,315.26L330.85,312.05L328.78,308.9L329.99,305.86L323.72,297.04L323.96,293.79L316.33,288.4L310.83,286.62L301.8,290.75L298.27,289.66L295.01,286.7L295.33,282.65L291.22,280.52L291.03,276.88L296.06,276.64L298.31,274.41L302.79,274.24L302.16,270.68L295.06,273.34L285.82,264.13L286.94,260.04L296.02,255.24L300.05,251.62L304.09,251.4L307.22,238.61L301.75,237.45L301.34,232.14L312.02,218.88L316.17,220.15L316.79,209.16L323.42,202.59L334.06,197.5L339.26,198.09L344.28,206.38L347.48,204.92L349.7,196.41L359.22,207.63L362.03,197.17L356.06,184.97L364.81,178.24L379.13,172.91ZM927.88,752L928.64,753.47L927.01,753.75ZM866.18,729.94L867.42,730.11L870.18,731.5L871.97,730.89L873.21,730.93L874.58,730.14L875.45,730.73L875.47,734.62L874.47,736.55L874.62,738.67L873.09,737.71L871.66,740.34L869.32,739.47L867.97,737.83L867.38,736.44L867.3,734.55L866.07,732.41L865.72,730.85ZM941.52,731.58L941.95,731.93L943.3,730.88L944.81,730.99L944.25,732.71L944.75,733.55L942.79,736.35L941.92,738.01L940.58,739.04L941.12,741.37L939.69,741.14L937.18,742.28L936.3,745.66L935.2,748.11L932.5,751.45L929.02,751.65L928.5,750.71L927.15,750.06L924.62,750.08L924.62,747.57L925.85,745.38L927.43,743.99L928.98,742.08L930.15,741.75L932.43,740.26L934.14,738.49L935.31,737.83L936.69,736.16L937.3,733.75L938.7,732.5L939.04,730.73L940.38,729.22L941.3,730.38ZM846.92,713.01L846.53,714.12L844.68,713.98L844.37,713.05L846.22,712.53ZM941.97,710.27L943.58,710.68L944.85,711.4L945.45,712.5L945.04,713.13L946.14,714.89L945.93,716.66L947.47,717.17L947.9,715.44L949,717.05L949.62,719.35L951.39,720.18L952.9,720.52L954.69,719.05L956.1,719.51L955.38,722.42L954.6,723.01L954.57,724.45L953.09,724.24L951.88,725.22L952.29,726.28L951.58,727.96L949.29,731.68L947.49,733.09L947.11,732.4L945.69,731.94L947.1,729.59L947.34,728.42L946.69,727.25L943.82,725.71L943.58,724.44L945.59,723.22L945.91,721.31L946.47,719.89L945.94,718.69L946.09,717L945.27,716.99L945.19,715.36L943.85,714.45L941.64,711.26ZM917.49,665.7L918.5,666.1L920.51,667.49L921.77,668.91L923.48,669.97L925.18,671.27L924.73,672.1L922.92,670.89L920.65,669.65L918.55,667.66L917.79,666.66ZM955.41,657.9L956.24,658.68L956.45,659.89L954.26,660.37L952.86,659.88L952.7,659.28L953.65,658.15ZM960,654.55L959.33,655.32L959.81,656.15L957.35,656.58L956.81,655.84L958.8,654.78ZM926.43,654.35L927.56,655.33L926.53,655.62ZM924.66,650.84L924.83,651.75L925.68,651.69L925.87,652.66L924.87,653.07L924.35,652.44L924.07,650.9ZM844.57,648.02L845.05,649.37L843.64,649.19L843.8,648.19ZM828.32,641.39L830.05,640.88L830.77,641.55L829.2,642.89L828.39,642.38ZM861.81,642.96L861.63,643.91L862.4,644.83L862.9,647.03L862.8,647.85L863.35,649.52L863.9,649.83L865.26,649.2L865.73,649.91L867.43,651.16L867.39,652.63L867.89,654.24L867.8,655.21L869.07,657.06L869.67,658.64L869.42,660.43L870.22,661.21L870.13,662.02L870.62,662.69L872.37,663.58L873.12,663.54L874.44,664.93L876.69,666.12L876.49,666.95L877.88,668.5L879.21,672.28L880.2,671.49L881.44,672.62L882.04,672.67L882.25,675.23L884,676.84L885.07,677.39L885.68,678.56L886.55,679.16L887.08,680.33L887.77,681.01L887.79,681.77L888.44,682.59L888.22,683.6L888.31,686.25L889.53,689.41L889.61,691.27L888.93,692.6L888.73,694.45L888.08,696.52L887.85,699.23L886.83,701.14L886.59,702.38L885.77,703.39L884.83,703.85L883.96,705.27L883.28,707.45L882.56,708.32L881.84,711.17L880.52,713.32L879.89,716.67L879.82,718.96L878.13,719.88L875.37,719.98L873.06,721.29L871.62,722.8L869.16,723.62L868.78,722.82L865.77,721.26L864.27,722.12L862.77,723.34L860.3,722.08L857.93,721.47L857.13,721.78L856.03,720.81L855.01,720.65L852.76,718.01L852.95,716.06L852.13,714.19L850.77,712.85L848.49,712.6L849.36,710.67L849.31,709.83L848.24,707.91L847.18,711.06L845.02,711.38L845.37,710.32L846.38,710.31L846.65,707.88L847.82,706.01L847.61,704.8L846.51,704.78L845.97,706.17L843.82,707.46L841.73,710.4L840.49,707.06L839.44,705.21L838.14,704.69L837.6,703.36L837.96,702.73L836.14,701.58L835.23,701.58L834.02,700.86L832.57,701.02L831.26,700.05L829.72,699.42L828.75,699.76L827.01,699.68L823.86,700.07L821.51,701.21L819.52,701.83L815.78,701.93L812.69,703.79L811,704.57L809.73,706.83L808.55,707.32L807.41,707.01L805.74,707.33L805.5,706.96L803.75,706.8L801.12,707.24L799.61,707.28L798.53,708.55L797.05,708.91L795.03,710.55L793.55,710.91L790.71,710.56L789.3,709.93L788.6,709.06L786.69,708.18L787.15,706.21L788.04,705.86L788.49,704.78L788.53,700.04L787.14,697.28L786.65,695.44L786.56,693.04L785.68,691.32L785.43,690.32L784.44,688.92L784.08,686.71L782.88,684.35L783.61,683.68L782.9,682.98L782.77,681.58L784.57,683.55L784.57,682.25L783.12,679.67L782.45,678.08L782.81,676.03L783.35,675.11L783.45,673.65L783.15,672.85L783.89,670.84L784.44,671.94L785.01,672L785.61,670.85L786.29,670.25L787.88,669.55L789.36,668.23L791.22,667.16L793.08,667.35L795.2,666.37L796.67,666.04L797.61,665.29L798.9,665.41L800.52,665.04L802.34,664.35L803.98,662.77L804.89,661L805.97,659.57L805.76,657.74L807.25,656.27L807.92,655.29L808.38,656.48L809.4,658.22L810.07,656.49L809.31,655.44L812.21,654.4L811.68,653.41L812.9,651.76L813.98,651.16L813.81,650.53L815.15,649.63L816.06,649.92L816.3,648.87L817.52,649L818.41,647.86L820.46,649.1L821.87,650.63L825.22,651.13L826.01,650.73L825.01,649.64L825.89,648.51L826.24,647.39L827.36,646.65L827.12,645.7L827.73,644.96L829.06,644.52L829.46,643.6L830.5,643.84L832.99,643.74L833.56,643.39L833.82,641.74L834.73,641.6L835.16,642.28L837.08,642.63L837.97,643.11L839.28,643.04L840.58,643.69L842.1,642.83L842.88,644.24L844.11,642.97L845.19,644.04L844.1,645.23L844.25,645.83L842.47,646.65L842.64,648.04L842.36,648.98L841.08,650.65L841.42,651.31L843.21,652.43L843.44,652.89L844.76,653.79L845.34,653.74L847.21,654.73L848.65,656.08L850.69,656.58L851.33,657.78L853.43,658.83L854.7,658.61L855.55,658.02L856.58,655.88L857.1,654.27L857.2,652.99L857.67,651.47L857.39,649.85L857.59,648.98L857.26,648L857.72,646.53L857.81,644.43L858.54,642.8L859.12,640.22L859.88,639.57L860.9,641.2L860.99,642.6ZM911.24,638.7L912.28,638.88L912.33,639.89L910.77,639.19ZM906,635.69L906.59,636.12L907.61,636.09L908.33,636.54L908.4,637.46L906.28,637.09L905.66,636.39ZM908.66,633.1L909.33,633.9L910.02,635.81L909,635.37L908.24,633.26ZM900.7,632.91L899.6,632.99L899.82,632.21ZM906.34,633.69L903.85,632.36L902.93,631.6L903.29,631.19L904.29,631.99L906.25,633.13ZM895.89,628.72L895.25,629.19L894.25,628.82L893.87,627.7L892.75,626.8L892.64,625.66L893.33,625.65L894.58,627.27L895.53,627.9ZM885.11,622.32L886.41,622.44L886.4,623.48L885.37,624.21L885.71,625.16L884.97,625.71L884.04,625.68L883.28,626.66L881.14,627.62L879.07,627.66L878.35,627.09L877.67,627.22L875.74,626.25L875.59,625.66L877.33,625.5L877.99,625.73L880.8,625.63L882.54,625.33L883.54,624.09L884.46,623.89L884.14,622.45ZM855.93,617.81L856.49,617.86L859.23,619.08L861.08,619.71L862.69,620L864.04,620.95L865.27,621.06L866.9,622.46L867.56,622.56L868.71,623.73L868.94,625.46L870.41,625.85L872.09,626.66L873,626.75L874.14,627.72L874.25,628.66L872.32,628.82L871.9,629.37L872.51,630.58L873.93,631.92L875,632.53L875.32,633.75L875.87,634.12L876.22,635.09L877.99,635.14L877.88,636.05L879.36,637.13L879.67,637.69L881.78,638.35L881.29,639.38L880.05,639.22L879.34,638.61L875.69,638.15L874.05,637.84L871.19,635.02L869.42,632.46L866.6,631.72L865.36,631.09L862.97,632.79L861.59,633.09L862.38,634.41L862.31,634.84L860.39,635.83L859.28,635.41L856.36,635.55L855.1,634.53L853.16,632.53L851.7,632.76L850.28,632.64L850.9,631.14L849.99,630.24L849.6,629.39L850.31,629.18L849.17,627.8L848.75,626.45L848.16,625.45L845.57,624L844.32,623.71L842.61,622.94L840.52,622.73L839.15,621.74L837.73,620.98L837.26,621.04L836.41,619.83L835.33,621.69L834.58,621.78L834.01,620.73L834,619.64L832.93,618.79L835.18,617.35L836.29,617.64L837.08,617.23L837.12,616.46L834.57,616.91L832.82,616.83L832.06,616.16L831.81,615.01L830.12,614.57L830.02,613.13L831.48,612.73L832.34,612.06L833.67,611.81L835.93,612.79L837.27,612.83L838.03,614.48L837.62,615.44L837.75,616.7L840.1,619.74L841.3,619.77L843.32,617.74L843.71,616.91L844.91,616.71L845.66,615.76L847.48,614.81L849.73,615.63L852.77,617.11L854.99,617.37ZM882.65,618.02L885.81,619.95L888.33,622.2L888.06,623.31L887.15,622.86L886.93,621.51L885.85,620.2L885.26,620.06L882.58,618.27ZM301.11,787.74L299.29,788.41L298.38,786.87L300.68,787.1ZM293.64,786.66L296.26,787.29L297.91,788.39L297.88,789.64L294.9,789.28L293.39,787.89ZM285.47,780.1L287.45,781.74L284.52,782.36L283.5,780.03ZM294.9,775.87L296.56,776.26L297.93,778.06L298.64,780.64L300.55,782.84L305.74,786.64L302.64,787.35L301.52,786.85L297.78,786.35L295.78,786.78L294.07,785.87L292.01,786.32L289.49,785.44L290.94,784.15L291.02,782.09L293.09,779.99L292.11,779.04ZM318.81,771.16L319.62,771.51L321.95,771.28L320.21,773.61ZM323.07,770.61L324.07,771.63L325.4,771.1L325.76,772.49L323.51,773.47L322.49,774.5L321.14,773.42L322.51,772.39ZM281.25,760.4L281.44,763.99L281.15,765.23L279.2,764.64L279.51,761.5L280.55,759.97ZM281.02,758.84L280.21,759.65L279.43,757.71L280.72,757.64ZM285.61,744.43L284.15,744.16L284.78,743.02L285.75,743.48ZM283.37,743.24L282.71,743.62L283.39,745.96L282.4,746.74L281.02,744.19L281.33,743.54ZM283.27,739.36L281.72,739.06L282.11,737.66L282.57,733.75L283.93,734.11L284.08,736.16L283.23,736.59L284.17,737.87ZM342.3,614.43L342.19,613.13L342.54,612.58L343.57,612.63L343.26,613.57ZM346.01,611.16L347.66,611.46L349.02,611.29L350.99,611.79L350.56,612.99L349.52,614.8L347.77,615.42L345.31,615.62L344.64,614.16L344.61,612.57L344.95,611.58ZM236.52,610.61L236.86,611.44L237.87,612.86L237.59,613.36L236.34,613.56L236.11,612.98L236.95,612.51L236.35,611.61ZM625.92,220.46L633.85,225.95L628.57,228.51L624.18,225.59ZM645.78,225.24L642.8,232.05L638.15,230.39L638.91,225.54ZM535.73,234.73L539.87,232.32L551.63,236.14L552.53,240.05L548.38,247.53L543.86,250.52L535.63,247.6L529.93,242.25L528.92,237.7ZM524.76,240.04L529.55,245.06L530.91,251.05L534.55,251.44L537.04,256.85L532.72,258.45L529.17,266.32L528.61,272.65L527,274.17L524.53,283.88L518.31,276.17L519.79,270.59L516.48,266.29L511.4,257.17L508.98,241.71L514.01,242.02L515.69,246.39L522.18,243.43ZM537.62,258.81L541.64,266.75L544.64,267.94L543.58,272.96L538.82,272.92L537.62,267.72L533.94,260.39ZM660.71,287.76L656.75,290.58L643.62,297.78L640.59,303.14L636.09,306.14L635.84,309.79L631.9,317.05L626.68,316.24L624.8,317.2L623.37,313.28L625.71,311.43L628.22,304.85L630.66,301.5L632.23,297.05L637.02,292L642.81,289.07L647.92,287.77L655.63,283.49L660.09,278.88L662.63,279.76L663.73,283.96ZM627.52,317.59L630.48,318.59L629.56,322.34L627.62,325.24L627.46,329.86L629.45,334.85L631.72,338.3L632.39,341.04L625.6,340.31L623.26,339.22L622.3,333.21L618.17,333.63L617.55,328.69L620.33,326.68L623.34,317.73ZM575.71,508.1L575.5,506.8L576.5,505.65L576.13,504.81L574.77,505.85L572.27,505.23L569.85,507.23L567.45,507.71L566.34,507.22L565.39,506.06L563.61,505.17L561.72,504.96L561.29,506.8L559.17,507.31L557.72,506.52L557.43,505.53L555.96,505.16L555.02,504.41L552.93,504.45L552.21,502.2L552.62,501.22L551.15,500.48L551.63,499.88L551.37,498.74L552.04,498.13L551.15,496.74L551.54,495.8L549.64,496.13L549.82,494.32L551.3,492.89L552.76,492.69L553.27,493.17L555.44,492.88L558.31,491.45L557.45,490.75L558.19,489.97L563.35,490.4L563.89,489.65L566.15,488.19L569.02,487.15L572.67,487.37L573.35,486.99L574.13,488.19L576.14,488.35L577.36,489.85L582.35,491.05L585.14,490.4L587.37,490.92L590.44,489.28L591.37,487.32L590.64,484.84L588.9,483.37L588.06,483.16L586.33,481.87L583.25,478.85L581.82,478.36L580.94,477.32L579.76,477.18L578.51,475.09L580.39,474.76L581.16,472.37L581.82,472.02L581.25,469.99L584.78,468.09L582.63,467.82L580.12,468.22L579.57,468.83L576.74,469.84L575.54,469.97L572.93,471.65L573.39,473.52L574.82,475.01L576.45,474.47L577.53,474.7L577.05,475.94L575.65,476.16L574.85,475.74L573.57,476.93L572.58,476.91L570.43,478.48L569.2,477.86L569.48,475.82L566.69,474.66L569.77,472.58L568.54,471.71L566.61,472.06L565.43,471.38L565.27,469.64L562.12,470.25L560.58,472.89L558.94,473.6L559.27,474.89L558.82,476.77L557.46,477.1L556.39,478.83L556.16,481.77L554.48,482.92L554.37,484.51L553.29,485.53L554.62,487.05L555.59,489.12L557.49,489.96L556.75,490.87L555.13,490.49L553.33,490.87L552.69,491.88L549.61,492.15L548.95,491.33L546.94,490.8L546.11,491.28L545.02,491.09L543.68,492.38L543.1,493.5L542.17,493.53L540.35,492.55L540.25,494.16L541.12,495.57L541.24,497.64L540.73,498.43L542.01,498.9L543.91,500.22L544.15,502.13L542.88,501.11L541.85,501.29L541.76,503.39L540.71,503.19L541.53,505.26L540.29,505.24L538.88,504.41L538.38,505.39L537.55,504.24L537.52,502.7L536.39,501.42L537.08,500.48L538.2,500.04L540.8,501.21L541.66,500.9L539.79,499.66L537.26,500.06L536.3,499.84L535.4,498.4L535.41,497.71L534.14,496.62L532.94,494.13L531.73,493.29L531.84,489.27L532.21,487.98L531.16,487.4L530.38,486.32L527.53,484.34L525.07,482.17L522.51,481.19L520.33,478.97L519.61,475.88L518.36,474.89L517.24,476.8L516.34,475.78L516.05,474.36L514.75,473.77L512.73,474.5L513.4,476.31L512.66,477.23L513.06,479.09L513.84,479.94L516.17,481.51L517.36,484.73L519.64,487.03L520.45,487.46L522.57,487.43L522.7,489.24L525.61,490.56L527.88,491.99L529.3,493.92L528.21,494.51L527.64,493.31L525.14,492.69L524.08,494.77L524.26,495.54L525.64,496.43L525.8,497.75L524.16,498.72L524.12,499.76L522.82,501.35L521.93,501.35L522.59,498.73L523.19,498.57L522.73,496.53L521.85,494.32L519.87,493.45L519.37,491.95L517.61,491.39L516.62,489.94L514.9,489.91L513.68,489.11L511.03,486.18L509.78,485.29L508.56,483.83L506.79,479.85L504.77,478.74L503.38,478.35L501.55,480.22L499.15,481.18L497.32,482.98L496.31,483.34L494.42,482.77L493.49,481.97L492.57,482.24L490.81,481.43L488.69,482.9L488.14,483.91L488.66,487.42L485.55,489.76L482.75,490.56L481.91,491.4L480.97,493.17L479.13,495.95L479.45,497.53L480.54,498.57L478.98,499.67L478.28,500.63L477.81,502.56L476.46,502.63L475.21,503.73L474.37,505.25L468.36,505.45L467.54,506.15L466.21,506.43L465,507.74L463.89,507.21L462.69,504.66L461.64,503.86L460.02,503.95L459.11,504.49L457.07,504.11L456.5,503.07L456.23,499.41L454.74,498.66L455,496.58L455.6,495.87L456.3,493.66L456.92,490.67L456.3,486.84L456.82,486.23L455.37,483.68L456.34,482.38L457.23,482.37L457.98,481.48L459.47,480.8L460.63,481.42L464.89,481.47L467.94,482.08L470.39,481.7L471.88,482.24L473.77,482.4L476.04,481.54L476.68,477.84L477.16,473.12L476.94,471.18L475.24,470.4L474.62,468.36L471.58,465.77L468.5,465.26L467.66,464.22L468.28,463.09L467.41,462.4L471.38,461.18L472.82,462.41L473.48,461.96L476.17,461.99L475.78,459.71L475.05,457.74L476.64,457.75L476.96,458.95L479.56,459.33L480.74,458.64L480.5,457.66L483.32,456.44L484.14,455.21L484.21,453.34L485.1,452.28L486.52,451.95L489.57,450.3L491.95,446.61L492.72,443.83L493.4,443.79L493.65,446.26L494.83,445.36L494.33,443.15L496.17,441.76L498.18,441.61L499.43,440.53L501.36,440.48L502.77,441.09L503.73,439.83L503.89,436.63L503.15,435.46L502.98,432.54L501.69,431.69L501.77,426.87L502.98,424.41L505.48,423.81L506.57,422.09L508.1,422.74L507.42,426.8L508.92,427.28L507.52,428.77L507.15,430.43L505.58,432.19L505.72,434.39L507.23,437.22L509.36,438.26L510.4,439.34L512.3,438.32L513.53,436.96L514.74,437.21L516.97,439.75L518.63,440.57L519.24,439L523.16,437.77L524.16,436.56L526.03,435.75L528.86,435.25L529.79,437.12L531.75,437.33L532.69,436.6L533.27,434.86L536.5,434.8L536.63,432.37L536.16,430.67L536.19,425.82L537.94,422.14L540.15,421.37L543.06,425.1L545.08,423.36L544.8,421.07L545.41,418.2L543.38,418.17L542.69,416.65L542.65,413.87L545.01,412.42L548.03,411.55L554.38,412.73L555.88,410.62L557.73,409.63L556.38,407.62L556.4,406.34L553.23,407.14L552.65,406.74L548.42,407.85L543.26,409.82L540.78,409.22L540.2,407.71L537.16,406.42L536.96,404.4L537.62,400.93L536.68,398.69L536.28,395.05L539.32,390.26L542,387.51L544.74,383.71L545.49,381.93L547.66,380.62L547.59,377.63L545.55,375.83L543.18,375.37L537.51,378.09L537.53,379.88L536.37,381.88L537.24,384.55L535.37,387.68L530.76,391.45L529.24,393.46L527.72,393.84L526.45,400.09L525.68,401.02L526,405.85L527.88,406.46L529.49,408.27L530.59,410.92L527.67,413.48L528.76,414.32L526.55,415.62L524.41,417.79L524.07,424.62L522.66,428.72L519.42,429.01L517.91,430.58L518.24,432.03L515.52,432.88L513.58,429.13L514.36,426.82L513.12,425.41L511.29,421.41L510.06,417.58L509.86,414.48L508.39,412.86L507.14,414.84L505.65,415.17L501.78,419.26L498.68,419.87L495.22,417.34L495.59,413.05L493.68,413.71L494.15,411.53L493.65,410.52L493.98,406.57L493.46,405.82L493.14,400.26L494.76,396.85L496.94,395.12L499.42,395.17L498.69,393.1L501.6,392.32L502.39,389.68L505.86,389.14L505.89,387.69L510.27,381.27L512.43,379.55L512.73,377.06L514.6,374.12L514.95,370.67L519.35,364.12L519.46,361.94L522.84,359.16L524.4,356.08L526.38,354.8L528.27,352.15L528.78,349.74L533.52,346.6L536.43,346.56L537.07,344.33L540.49,342.75L541.46,344.9L545.12,340.13L545.76,337.7L548.72,338.91L553.59,336.96L557.61,338.84L562.52,343.54L558.94,345.88L563.87,348.1L565.29,346.06L567.84,347.62L566.34,349.71L569.82,350.99L575.62,351.88L580.61,355.59L587.68,361.78L589.24,362.62L589.84,368.74L588.06,371.29L584.77,373.38L582.39,373.83L574.7,371.63L572.87,370.19L566.57,368.13L569.51,372.13L571.73,373.4L572.76,375.13L571.75,378.16L572.81,380.77L572.99,383.43L575.06,384.56L576.97,386.86L579.85,388.01L581.52,386.72L581.21,384.92L579.16,384.37L577.41,381.64L578.35,379.59L581.36,381.44L586.02,383.33L587.42,380.69L586.13,378.46L586.18,376.86L588.51,374.49L590.6,373.44L592.56,370.81L597.59,372.7L598.64,369.78L598.11,366.88L596.75,365.81L597.93,360.62L597.46,356.64L602.38,357.14L604.51,361.66L601.41,362.31L599.84,364.27L602.63,368.56L604.51,368.75L607.22,367.25L607.67,363.53L610.34,362.49L615.57,358.08L620.13,356.32L623.47,353.34L623.91,358.96L625.5,358.64L629.45,355.9L632.34,356.6L637.12,353.28L639.73,357.56L642.49,353.41L640.45,348.86L642.71,346.85L648.96,348.21L657.11,353.7L658.67,354.25L660.62,356.89L662.68,358.09L664.37,353.68L662.78,353.56L661.35,349.7L658.84,348.07L658.47,345.59L659.43,339.83L657.78,338.52L658.45,335.38L662.05,332.02L664.1,323.41L665.72,321.36L670.67,321.22L674.17,323.22L673.66,328.61L671.76,333.16L673.55,336.46L673.87,342.09L673.25,343.54L673.41,352.71L676.13,356.45L675.07,361.55L673.59,363.5L670.8,369.19L669.17,370.62L666.34,368.61L664.52,370.41L667.57,371.99L671.78,372.62L673.11,370.53L676.78,367.59L677.53,364.71L679.39,362.25L678.38,357.57L678.88,355.16L683.89,353.47L685.97,357.21L687.07,354.03L682.67,351.56L679.51,352.64L676.74,351.83L676.16,347.96L678.16,340.52L674.9,334.02L676.46,330.63L681.98,326.72L680.66,330.9L680.89,334.88L682.96,335.91L686.62,335.14L683.5,332.75L682.75,330.07L689.29,325.86L691.79,325.98L695.37,328.53L697.36,331.48L701.3,331.46L701.11,334.23L699.53,335.56L701.41,341.11L703.3,341.38L701.74,336.86L702.86,332.76L699.16,327.24L695.54,325.03L694.69,319.64L694.89,315.16L702.79,314.23L710.91,312.06L711.07,304.3L713.79,299.72L720.49,294.85L729.47,292L732.2,288.72L738.34,291.16L743.1,287.7L743.48,285.01L747.53,285.03L749.6,282.44L749.31,279.09L755.02,271.36L757.37,270.07L762.39,273.07L759.77,276.89L761.9,278.96L766.48,279.84L768.07,282.28L776.31,282.22L780.32,286.12L783.66,291.98L782.97,298.01L778.32,303.71L772.91,307.89L768.53,313.97L766.06,314.66L763.94,319.15L767.33,318.84L772.95,316.06L774.03,310.87L779.06,313.83L784.16,315.01L787.57,313.89L795.87,314.96L795.81,318.17L799.33,320.62L808.43,320.84L809.66,318.66L808.81,315.49L811.7,313.39L814.98,315.61L820.64,315.98L823.7,318.69L825.1,326.55L822.29,328.54L826.03,336.73L829.75,339.81L830.83,338.52L833.5,330.2L835.8,333.63L837.61,334.57L842.36,332.46L846.17,334.74L848.32,333L852.52,331.87L852.27,324.96L858.83,322.96L867.96,324.55L870.92,326.67L875.74,326.59L878.67,327.88L881.6,333.39L884.22,335.34L886.69,339.06L890.12,338.69L895.72,336.92L901.43,337.38L904.93,339.41L906.68,343.27L906.22,347.37L910.76,350.46L913,348.41L917.76,347.87L918.7,348.72L924.85,349.55L927.01,347.71L928.81,351.28L931.49,352.72L932.29,354.9L934.77,354.61L935.99,352.98L934.89,348.91L934.63,344.86L940.16,345.95L942.07,347.07L949.62,346.78L951.8,348.43L956.93,350.41L960,353.44L960,380.26L956.05,383.17L953.25,382.33L953.15,384.15L956.4,387.09L956.55,389.76L958.22,391.73L958.85,394.68L957.65,396.8L952.94,395.26L947.38,398.04L945.37,399.63L943,400.23L940.95,401.62L939.71,403.88L934.95,407.3L933.29,409.28L931.27,406.43L928.37,406.55L925.24,407.99L923.61,407.03L920.22,409.11L916.75,409.41L915.76,410.51L915.39,413.31L912.38,417.73L911.89,419.6L913.25,421.16L915.24,421.56L914.08,423.2L914.14,425.88L915.35,426.48L915.56,428.68L914.79,429.57L913.41,428.54L912.23,429.36L911.28,432.82L912.28,435.64L911.27,436.65L908.73,436.62L906.87,438.23L906.25,440.07L906.39,441.88L902.96,444.13L902.57,446.63L901.61,448.78L897.99,452.37L897.33,450.21L896.97,445.73L896.26,443.54L894.99,435.12L894.81,432.87L895.95,426.44L897.94,424.21L898.6,422.66L898.11,421.26L899.87,421L900.44,419.89L901.89,419.86L904.1,417.85L906.26,414.23L908.95,411.61L911.34,408.82L912.01,407.38L914.6,405.41L916.56,404.67L917.35,402.32L918.01,394.63L915.55,395.47L914.69,399.81L913.05,400.54L908.71,405.57L906.36,402.61L907.51,399.8L905.47,400.21L904.2,399.07L901.52,400.02L899.92,399.77L897.81,401.55L897.68,402.71L895.61,405.44L893.26,407.61L891.45,410.52L892.22,412.07L893.78,413.01L890.7,414.5L888.96,413.77L887.69,415.2L883.54,415.53L885.31,414.06L883.96,412.15L881.22,411.8L879.05,410.85L877.88,412.34L874.33,412.87L873.37,413.49L870.52,412.64L869.15,413.86L868.15,412.73L861.85,412.96L858.73,414.89L858.01,416.2L855.16,418.92L854.53,420.93L853.34,421.56L849.77,425.12L847.18,429.12L843.13,432.85L840.7,434.76L840.69,435.74L842.27,436.42L844.79,436.25L844.49,439.4L845.75,439.89L846.21,441.17L848.78,440.93L849.76,440.24L849.86,437.63L851.52,438.21L852.55,437.83L854.26,439.94L857.07,442.75L856.45,446.35L857.29,447.18L855.17,451.25L854.6,454.15L854.71,458.1L853.79,462.46L851.66,465.01L850.67,467L849.56,468.28L848.9,470.29L847.16,473.08L844.81,475.54L843.05,478.1L842.33,478.54L841.29,480.54L840.35,481.68L836.56,484.22L835.09,484.7L833.28,483.93L832.89,482.73L831.45,482.67L829.76,484.96L828.89,485.33L826.85,487.05L826.02,488.25L825.89,491.28L822.14,494.16L820.18,495.04L819.72,497.03L820.76,497.45L822.33,499.03L822.98,500.55L824.89,503.59L825.26,505.37L825.08,507.66L825.5,508L824.57,510.51L822.7,510.77L822.52,511.52L820.57,511.25L818.75,512.38L817.28,512.75L816.78,510.6L817.91,508.59L817.46,506.25L816.58,504.94L818.32,504.59L817.53,501.84L815.85,501.58L814.53,502.06L813.85,501.02L812.51,500.71L813.51,499.26L814.43,496.75L814.3,495.93L811.38,494.55L808.93,495.11L806.23,496.48L804.4,498.2L804.76,496.36L804.05,495.54L806.07,492.39L804.96,491.33L803.13,491.13L801.28,493.48L798.91,494.62L797.93,496.34L797.1,497.17L795.46,497.51L794.09,497.28L793.49,499.02L794.71,500.53L797.17,501L797.57,502.16L797.21,503.4L798.53,504.09L800.99,502.16L802,501.71L804.37,502.97L806.94,503.08L806.72,504.69L805.15,504.65L802.64,505.85L801.05,507.65L800.15,508.28L797.91,511.07L798.89,512.46L800.54,513.29L801.35,515.5L802.32,517.48L802.28,518.61L803.74,519.53L803.61,521.14L802.81,521.58L804.43,522.83L805.01,524.09L802.66,525.2L803.09,525.99L805.18,527.25L805.11,529.57L804.58,529.2L804.27,531.91L802.93,532.14L800.74,535.74L799.06,539.25L798.77,540.22L797.4,541.3L797.09,542.17L796.16,543.19L794.9,543.06L794.82,544.17L793.68,545.37L793.24,545.36L790.77,547.28L790.59,547.96L788,548.61L787.19,548.33L786.28,548.91L785.74,548.51L784.71,549.83L783.72,549.45L782.8,550.04L779.48,551.43L778.52,551.12L777.61,551.95L775.39,552.45L773.85,553.44L773.81,553.96L774.7,554.93L773.66,555.65L772.43,553.79L773.15,552.18L772.12,552.01L771.06,552.33L770.75,551.76L768.87,551.57L766.43,552.74L766.28,553.39L764.47,553.67L764.68,554.31L764.05,555.58L762.62,556.57L761.66,559.32L762.37,560.63L764,562.19L763.94,562.83L765.81,565.12L768.08,566.7L769.8,569.05L770.19,569.34L770.89,571.17L771.48,573.53L771.39,575.12L771.8,576L771.25,576.85L771.2,579.36L770.19,580.48L768.72,581.51L766.03,582.97L764.83,582.87L764.76,583.73L764.02,584.53L764.19,585.02L761.34,586.5L760.86,587.29L759.71,587.87L759.52,587.29L759.59,585.11L760.07,583.86L759.1,583.59L758.03,582.58L756.09,582.41L756.59,581.63L756.09,580.94L755.07,581.57L755,580.08L754.03,578.58L751.26,576.73L750.52,576.92L748.97,576.66L749.23,574.7L748.42,574.45L746.71,574.91L746.91,575.76L746.57,576.73L746.64,578.15L745.67,580.08L745.3,581.63L744.44,583.18L744.43,584.77L745.05,586.17L745.93,585.9L746.41,586.45L746.56,587.64L747.41,588.72L747.88,590.95L748.23,591.66L749.38,592.51L750.66,592.5L751.46,593.55L752.91,594.36L753.42,595.19L754.62,596.09L755.78,597.9L755.92,599.12L755.63,600.79L755.88,601.45L755.84,603.02L756.83,603.97L758.1,606.9L756.52,606.98L753.94,605.9L750.12,603.15L750.13,602.17L748.57,600.26L748.3,598.43L747.61,595.93L747.58,594.86L746.98,593.63L745.86,592.47L745.92,591.85L744.14,589.75L742.88,588.52L741.97,588.31L741.98,587.38L742.83,584.49L742.57,582.21L743.13,581.37L743.31,579.73L743.03,579.33L743.19,578L742.87,575.44L741.99,573.87L740.83,570.77L740.56,567.96L740.22,567.56L740.32,566.12L739.67,566.17L739.14,564.66L738.59,563.95L738.16,565.45L737.66,566.05L735.37,567.15L734.37,568.39L733.18,568.12L732.23,566.82L731.24,567.27L732.24,563.25L731.82,561.47L730.85,559.53L729.88,559.15L730.66,557.98L728.97,556.23L728.01,556.19L726.95,555.06L725.48,553.05L725.36,551.59L724.51,549.23L723.76,548.39L722.52,548.96L721.69,547.53L721.16,548.52L721.57,549.94L720.42,551.21L719.5,550.73L717.47,551.68L715.34,551.77L714.53,551.19L713.81,551.68L712.27,552.12L711.63,552.87L711.93,554.41L711.33,555.51L710.08,556.63L708.2,557.27L706.06,558.87L704.28,561.22L703.08,561.84L701.86,563.13L699.63,564.57L699.36,566.06L698.03,566.7L696.64,566.88L695.94,568.29L695.06,567.91L694.12,568.42L693.48,570.18L693.77,571.55L693.63,572.56L693.98,573.76L693.5,574.22L694.25,574.89L693.94,576.73L692.96,578.64L692.68,579.77L692.93,580.8L692.9,583.17L691.71,583.22L690.66,584.9L690.61,586.02L689.12,586.47L688.51,587.04L688.16,588.41L686.71,589.24L685.25,588.35L684.14,587.01L683.53,585.53L683.59,584.26L682.46,581.92L681.93,580.35L680.52,578.46L679.39,575.67L679.12,574.05L678.35,571.78L677.2,570.18L677.15,569.29L675.94,567.47L675.57,566.34L675.08,563.1L674.32,560.12L674.16,558.38L673.78,556.88L674.35,554.8L674.17,553.22L673.45,551.56L673.57,549.88L672.89,549.91L672.1,551.19L672.68,552.03L672.04,553.11L669.4,554.3L668.58,554.29L667.01,553.28L664.02,550.12L667.14,549.04L667.34,547.88L665.77,548.5L664.63,548.24L663.04,547.25L662.45,546.14L661.43,545.33L660.45,545.44L659.49,544.38L659.12,542.68L657.88,542.37L657.86,541.29L657.14,540.26L655.15,540.91L652.74,541.06L652.42,541.42L649.92,540.82L649.31,541.34L646.86,541.21L646.17,541.56L643.76,541.66L641.77,541.13L638.55,540.54L637.46,540.73L636.79,540.33L634.12,540.03L632.89,539.62L631.95,536.31L631.5,535.76L630.28,535.43L628.4,536.09L626.39,537.35L625.72,537.49L624.66,536.93L623.21,536.85L622.55,536.2L620.51,535.06L619.94,534.18L618.75,533.55L617.78,533.49L616.74,532.62L616.17,530.82L615.13,529.54L615.07,528.7L613.29,526.28L612.15,526.83L610.45,525.7L610.45,526.55L609.21,527.11L607.95,526.89L607.92,528.1L608.49,530.05L610.42,534.14L611.75,535.48L613.3,536.54L613.9,538.09L613.42,538.68L614.82,541.71L616.01,539.06L616.7,538.55L617.45,539.3L617.29,540.41L617.57,542.06L616.83,543.9L618.05,544.15L618.42,544.93L620.4,544.44L623.72,544.67L625.06,544.08L625.99,542.52L626.93,541.84L628.06,540.49L629.18,539.62L629.77,538.39L630.48,538.03L630.33,541.91L631.04,543.52L632.59,545.12L633.63,545.46L636.21,545.93L638.76,549.02L639.53,549.22L639.47,550.05L638.32,552.12L637.05,553.23L635.93,555.24L634.3,555.71L633.91,557.51L634.16,559.18L632.47,559.5L631.08,560.39L630.8,561.57L630.05,562.18L627.94,562.48L626.84,564.73L624.18,564.82L622.96,565.51L622.13,565.61L620.22,566.31L619.54,566.8L619.13,567.74L619.25,568.57L617.61,569.45L614.74,570.28L613.78,570.8L611.6,571.38L610.8,571.88L609.78,573L607.97,573.01L606.42,574.07L604.77,574.61L601.75,574.95L600.1,576.39L598.98,576.38L597.15,576.93L595.93,576.32L595.29,575.15L595.42,574.13L594.9,573.11L594.72,571.61L593.91,568.57L594.24,567.53L593.86,565.57L593.02,564.49L592.78,563.62L591.33,562.36L589.95,560.13L589.64,559L588.69,557.09L586.88,555.64L585.64,554.93L584.25,552.67L583.97,551.03L584.26,549.55L583.84,548.14L582.57,545.73L581.12,544.35L580.11,544.04L579.15,542.49L579.06,541.1L578.03,539.74L576.67,537.24L574.88,534.73L573.82,532.92L572.31,532.57L572.75,531.48L572.63,529.16L571.73,532.97L571.25,533.73L570.03,532.88L568.66,531.3L568.2,529.76L567.26,528.39L566.84,528.81L567.02,530.01L567.73,531.31L569.46,533.33L569.47,534.2L570.38,535.88L570.56,537.08L572.17,539.92L573.85,543.5L575,544.7L574.73,546.51L575.19,547.95L576.61,548.87L578.21,550.4L578.47,551.87L579.07,553.26L579.27,554.82L579.33,557.58L579.92,559.73L581.12,560.48L581.87,561.34L582.86,561.84L583.76,563.64L584.38,565.59L584.8,567.84L585.35,568.91L586.3,569.08L587.21,570.35L588.12,570.57L589.8,571.43L591.09,573.19L592.65,574.27L594.12,576.25L594.89,576.36L595.76,578.09L595.39,578.7L594.13,579.32L595.84,580.39L596.94,581.92L598.36,582.88L599.85,582.86L602.18,581.78L604.17,582.02L606.41,580.86L608.05,580.96L609.8,580.46L610.41,580.64L613.63,579.89L615.45,578.66L616.68,579.07L616.23,580.42L616.38,582.27L615.73,583.36L615.53,585.59L614.48,587.17L613.61,588.91L612.94,589.55L612.7,590.36L611.6,592.16L610.8,594.35L609.73,596.18L607.93,598.85L605.01,602.08L602.8,604.25L599.79,606.02L598.22,607.14L595.91,609.19L591.95,613.44L591.29,614.66L590.37,615.83L589.32,616.05L589.06,616.9L588.38,617.62L587.26,618.02L586.97,619.52L585.31,622.8L584.61,623.3L583.52,626.55L583.66,627.77L585.26,629.24L585.38,629.9L584.77,630.96L585.18,632.28L584.81,633.45L586.09,637.42L586.62,638.08L587.7,638.61L588.3,639.45L587.74,641.27L588.21,644.82L588.12,647.09L588.37,649.63L588.89,650.74L588.31,651.63L588.16,652.62L586.96,654.02L586.25,655.29L584.65,656.29L584.22,656.79L581.72,657.54L579.32,658.93L577.44,661.11L577.08,661.82L576.33,662.03L575.07,662.93L573.19,664.77L572.68,664.79L572.53,666.45L573.29,667.59L574.05,670.01L574.17,672.16L574.87,673.79L574.32,676.22L574.5,677.31L573.75,678.39L572.29,679.21L568.93,680.51L567.45,681.64L566.91,682.7L567.82,683.44L567.6,685.91L566.76,689.28L566.09,690.56L564.74,691.52L563.56,692.87L560.77,697.78L556.95,701.93L554.29,704.33L552.21,705.82L550.48,706.59L549.31,706.43L548.37,707.4L546.67,707.27L546.21,707.9L542.9,707.31L542.05,707.62L540.14,707.39L539.32,707.58L538.1,708.56L536.16,708.53L534.75,708.85L533.39,709.9L532.36,709.79L530.16,707.71L528.95,707.16L529.15,706.45L527.68,704.04L528.67,703.06L528.83,701.39L528.56,700.19L527.14,697.93L525.84,695.08L525.2,692.95L523.95,690.62L521.92,688.58L520.91,686.83L519.91,683.64L519.59,681.88L519.57,679.84L518.67,677.4L518.6,674.71L518.74,673.04L518.19,671.56L517.26,670.35L515.87,667.91L515.12,665.82L513.22,662.26L512.25,661.18L511.4,659.66L511.26,658.17L511.52,656.04L511.34,653.62L511.91,653.07L512.75,650.31L513.47,647.02L514.39,645.89L514.62,645.2L515.78,644.51L516.76,642.58L516.93,640.51L515.22,636.85L514.66,635.08L515.62,634.1L515.68,633.25L514.3,630.19L514.2,629.44L513.39,628.46L512.41,625.89L512.55,625.45L511.41,623.04L509.42,621.06L507.59,618.89L505.67,617.16L504.71,615.72L504.88,614.94L504.17,614.31L503.52,612.74L504.79,611.79L505.25,609.88L504.88,609.22L505.67,608.77L505.32,607.02L506.15,605.71L506.19,604.08L506.53,602.63L506.34,602.02L505.13,600.38L504,599.93L503.37,598.62L499.08,598.8L498.02,599.26L496.2,599.4L494.9,598.44L493.95,596.2L492.96,594.75L491.82,593.88L491,593.72L487.39,593.81L484.85,594.12L482.95,594.68L482.53,595.33L480.69,595.47L479.07,596.16L477.87,596.89L475.63,597.55L474.66,598.14L473.6,597.69L469.23,596.88L465.16,597.26L461.75,598.38L460.2,599.17L459.57,599.19L457.98,598.6L455.65,597.35L452.6,594.61L451.24,593.99L448.19,591.64L446.71,591.1L446.64,590.35L445.65,589.83L444.85,587.89L444.61,586.29L443.47,584.45L441.53,583.37L440.6,581.52L439.89,581.5L438.95,580.74L438.66,579.37L436.96,578.84L435.43,577.64L435.13,574.95L435.77,573.99L434.22,571.38L434.27,570.6L435.08,569.57L435.91,568.07L435.9,566.82L436.41,565.04L437.12,563.31L437.11,560.58L436.76,559.22L435.96,558.21L436.58,557L436.77,555.75L436.19,554.54L435.67,554.6L435,553.31L434.85,550.97L435.96,549.73L436.77,547.51L438.44,544.68L439.9,543.29L440.38,542.34L440.55,540.77L441.56,538.25L443.8,536.82L444.86,534.06L445.47,533.28L448.04,532.63L449.52,531.86L450.45,530.86L452.04,529.79L454.22,526.58L454.26,525.54L453.67,524.7L453.84,522.5L455.07,520.43L455.34,518.89L457.08,516.94L461.6,514.44L463.06,511.83L464.2,508.53L465.61,508.06L466.39,509.58L467.1,510.19L468.45,510.58L470.15,510.19L472.43,510.69L474.62,510.83L475.54,510.51L477.55,508.92L478.86,508.28L480.13,508.16L481.37,506.96L483.35,506.11L486.92,505.84L487.93,505.23L490.08,504.86L492.69,504.86L493.86,505.59L496.17,504.96L497.3,504.22L498.47,504.78L500.29,504.51L501.09,504.99L503.53,504.52L505.83,503.37L507.19,503.82L508.19,504.91L509.67,504.93L508.07,506.76L508.24,508.2L509.35,509.03L509.65,510.32L508.09,512.58L506.84,513.66L507.09,514.82L508.59,515.9L512.75,517.99L514.01,518.17L515.42,517.81L517.97,518.55L518.7,519.09L520.47,519.47L521.32,521.78L521.88,522.5L522.99,523L526.26,523.57L528.51,524.52L530.5,526.03L531.44,526.03L532.57,525.41L533.74,523.58L533.14,521.27L533.66,520.01L534.99,518.87L537.7,517.74L539.17,517.8L541.58,518.75L542.1,520.03L544.35,520.67L545.82,520.65L546.73,521.07L547.27,522.16L549.05,521.89L552.66,522.65L554.58,523.52L556.04,523.67L557.53,524.35L558.91,523.79L561.05,522.4L561.87,522.57L563.18,521.99L565.6,523.54L566.2,523.03L566.94,523.61L568.35,523.3L569.78,523.42L571.14,522.88L572.48,521.03L574,516.29L575.06,513.54L575.94,512.57L575.85,510.37L575.37,509.24ZM611.29,471.08L608.42,473.39L606.73,473.9L605.64,476.54L604.68,477.48L604.67,478.36L605.95,479.21L606.69,481.73L606.57,483.47L608.61,486.57L610.95,489.71L611.27,490.69L612.74,492.24L614.15,492.85L612.14,493.61L611.53,495.65L611.63,496.54L610.7,497.28L610.27,498.37L610.56,501.52L611.92,502.85L613.68,503.15L614.75,504.46L616.32,505.37L619.17,505.77L624.05,504.67L623.53,501.39L623.65,497.92L622.98,497L621.67,496.25L622.59,495.44L622.41,494.42L621.3,494.33L620.62,492.89L621.72,491.4L622.97,491.42L623.65,492.02L625.89,491.16L625.58,490.09L624.25,488.94L623.59,486.89L621.77,486.88L620.29,488.9L619.9,486.86L620.26,484.47L618.25,483.93L616.81,481.83L615.55,479.21L614.22,478.71L614.42,477.6L615.63,477.58L617.11,474.83L620.08,474.68L620.73,474.01L621.69,471.64L621.79,469.8L621.11,468.69L619.17,469.13L616.47,468.08L614.45,468.98L613.33,469.93L611.59,470.38ZM641.2,346.2L638.88,347.72L637.21,346.53L635.93,343.6L637.35,342.03ZM526.67,348.81L527.87,351.83L525.26,352.28ZM614.04,351.93L612.34,354.35L609.78,355.29L608.74,353.01L609.68,350.04L611.27,349.46ZM438.55,372.74L440.8,374.12L440.65,375.84L443.69,377.58L443.06,381.55L439.94,385.06L437.17,386.2L435.63,387.69L432.49,388.61L430.26,390.45L426.14,389.56L421.78,385.62L421.47,383.71L419.51,380.51L421.32,377.54L418.93,376.98L415.4,377.58L416.7,373.79L420.2,371.4L423.19,375.06L423.39,378.01L425.72,376.08L425.72,374.03L429.93,373.14L435.34,373.38L435.89,371.29L437.37,370.84ZM471.71,417.38L471.43,418.37L469.36,420.2L470.93,421.45L474.47,421.48L475.26,422.52L472.93,428.26L471.52,429.4L474.27,430.25L475.59,431.82L476.56,435.54L478.21,436.79L479.45,438.99L481.49,443.72L482.81,443.75L484.42,444.66L484.66,445.91L484.16,447.58L482.55,448.78L481.83,450.59L483.77,450.69L482.56,452.55L480.55,453.24L475.96,453.3L473.21,453.85L470.92,453.79L469.88,455.47L468.87,454.8L465.75,455.4L467.78,453.18L468.83,451.44L471.64,451.37L468.3,449.07L466.93,449.56L466.43,447.97L468.31,447.1L469.39,445.59L469.04,442.6L471.83,441.67L472.2,440.3L469.45,435.51L466.31,435.16L467.41,432.53L466.01,430.12L465.04,429.52L465.62,427.32L464.17,426.88L465.17,423.81L464.49,422.81L465.76,418.79L467.43,417.41ZM540.31,416.84L542.11,417.54L539.17,419.21L538.89,417.57ZM530.87,420.82L530.17,421.46L529.87,423.76L528.36,422.21L529.43,420.84ZM513.52,430.81L511.08,433.62L510.1,433.54L509.28,431.11L512.58,429.22ZM508.39,431.64L508.76,433.87L506.64,433.74L506.29,432.08ZM460.86,434.23L463.66,433.48L465.41,436.8L465.05,437.85L463.08,439.15L463.93,443.89L462.5,447.13L459.93,447.52L459.56,448.04L456.5,449.74L455.21,450.11L454.45,449.29L452.32,448.52L453.45,447.36L455.2,443.14L453.88,441.81L453.34,437.83L457.01,437.51L456.63,435.97L457.93,433.81L460.68,432.85ZM505.28,484.31L505.47,486.75L504.5,489.42L503.49,488.69L503.24,485.24ZM505.69,491.19L506.15,492.54L505.5,497.17L504.15,496.92L503.68,498.04L502.45,497.03L502.59,493.26L501.84,492.01L504.75,490.06ZM488.39,495.01L489.23,495.33L488.19,496.71L486.32,495.63L487.43,494.79ZM542.44,497.88L544.26,498.87L543.36,499.79L542.01,498.42ZM521.54,500.4L520.27,502.97L520.78,504.47L520.3,505.55L518.67,505.18L517.71,504.16L517.08,504.17L513.16,501.76L515.6,500.54L516.48,501.15L518.68,501L519.59,500.57ZM571.9,509.16L570.51,510.15L570.8,511.14L567.84,512.48L566.53,511.98L566.18,511.26L567.84,509.83L569.22,510.01ZM543.61,509.35L544.83,509.92L545.92,509.72L547.94,510.11L548.65,510.64L546.13,511.32L545.24,510.58L542.83,510.14ZM436.44,531.87L435.58,533L434.92,531.99ZM628.86,668.94L628.15,669.17L627.29,668.31L628.43,667.88ZM612.1,644.27L613.17,646.02L613.8,648.67L613.96,650.58L614.62,652.38L613.89,653.97L613.05,652.58L612.4,652.88L612.9,655.43L611.86,657.53L611.94,659.37L609.62,666.6L608.94,669.14L607.76,672.36L606.82,676.44L605.81,679.11L604.61,680.18L603.09,680.42L601.35,681.4L600.31,681.34L599.5,680.72L598.26,680.4L597.43,679.73L596.5,677.85L596.39,676.05L596.59,675.44L595.73,673.57L595.38,671.15L596.01,669.17L596.95,668.37L597.97,666.38L598.41,665.08L598.53,663.68L597.97,662.68L597.95,661.74L597.44,660.47L597.28,657.96L598.46,656.03L598.6,654.69L599.76,654.57L600.45,654.03L601.6,654.06L601.87,653.57L603.55,653.29L603.93,652.73L607.5,650.06L607.99,648.45L610.12,646.55L610.43,645.64L610.4,644.34L611.22,643.3ZM503.76,600.82L503.07,602.27L502.6,602.14L503.14,600.88ZM800.03,635.96L801.34,636.77L802.22,637.75L801.17,638.45L800.39,638.19L798.94,637.04L797.56,636.86L797.83,635.99ZM819.46,633.4L818.44,634.18L817.02,634.83L814.42,635.69L811.81,638.05L810.29,638.58L809.57,637.56L809.89,636.61L810.61,635.96L812.2,635.37L813.81,634L815.48,633.58L817.65,633.49L818.58,633.1ZM791.04,633.91L790.34,634.76L789.54,634.26L789.5,633.43L790.4,632.8L791.29,633.3ZM807.42,633.9L804.4,634.68L802.76,634.77L799.49,634.13L799.78,633.45L801.63,632.9L803.85,633.81L805.24,633.48L806.03,633.94L806.94,633.34ZM795.31,633.11L797.3,633.16L797.35,634.27L795.29,634.43L792.16,635.22L791.44,634.97L791.56,633.69L792.44,633.24L793.51,633.4L794.98,632.58ZM787.86,632.67L788.55,633.35L787.3,634.4L785.27,632.57ZM818.14,631.36L817.26,632.12L815.58,631.76L817.63,631.1ZM849.43,632.99L848.79,633.34L847.16,632.96L848.02,631.29L848.79,630.74L850.05,630.61L850.64,631.43ZM830.2,632.25L829.56,631.89L830.03,630.83L830.83,629.93L831.18,630.74ZM783.59,629.85L782.59,630.15L780.7,629.94L780.98,629.29L783.93,629.22ZM838.76,628.07L838.28,629.07L837.49,628.94L837.78,627.35ZM766.33,626.9L767.11,627.46L768.79,627.59L769.81,629L774.47,629.42L775.3,628.15L776.41,628.67L777.44,628.62L778.9,629.28L780.1,629.36L780.78,631.05L782,631.49L784.19,631.26L785.18,631.97L785.03,633.34L785.56,634.33L782.01,633.02L780.48,633.36L777.36,633.07L774.95,632.66L773.44,631.96L771.42,631.46L769.98,631.36L769.2,631.71L767.78,631.51L766.09,630.83L764.35,630.68L764.05,629.71L761.29,628.98L762.32,627.19L762.87,626.65L764.87,627.14L765.46,626.62ZM839.33,626.09L839.35,627.34L838.51,627.78L838.14,626.9L838.24,626.11L838.98,625.37ZM807.05,624.92L806.39,624.39L806.32,623.58L807.21,623.18L807.36,624.02ZM808.48,623L808.15,623.53L807.96,625.25L807.5,626L806.89,625.66L807.38,624.76L807.61,623.18ZM818.3,619.09L819.27,619.9L819.28,620.54L817.83,621.05L816.48,620.4L816.07,619.31ZM826.01,618.5L827.68,618.82L828.96,620.38L828.81,621.14L826.25,619.73L825.25,620.06L823.91,619.72L822.45,619.96L821.55,619.35L821.86,618.5L825.14,618.29ZM768.55,618.85L766.97,619.41L767.11,617.7L768.2,617.78ZM813.25,615.4L812.89,615.9L811.78,616.2L811.68,615.35ZM841.26,615.09L843.2,615.26L843.18,615.81ZM762.79,615.3L763.64,617.42L764.48,618.06L764.13,619L762.66,618.38L762.1,616.67L760.36,616.3L761.56,614.92ZM821.74,615.28L820.16,615.46L820.39,614.4ZM744.44,615.59L743.66,615.29L742.94,614.04L743.65,613.29L744.71,615.19ZM841.02,612.59L842.38,612.79L843.42,613.69L842.24,613.83ZM754.74,608.86L753.44,608.63L753.46,607.84ZM739.95,606.94L741.15,608.25L741,609.17L739.75,608.32L739.32,607.05ZM813.04,608.19L811.81,609.59L810.01,610.03L808.71,609.98L808.22,609.55L804.91,609.69L803.8,609.53L800.93,609.65L800.34,610.4L800.03,611.67L800.26,612.58L801.38,613.62L801.78,614.5L802.76,614.6L804.05,613.13L805.25,613.34L806.08,612.87L807.7,612.86L808.46,612.37L809.01,612.58L809.01,613.53L808.13,613.18L807.49,613.43L806.68,614.44L804.58,615.82L803.6,616.04L804.93,617.07L806.4,619.39L806.01,620.51L807.67,621.82L807.73,622.46L805.89,622.85L805.11,623.79L803.96,623.08L804.31,621.77L802.44,620.34L802.81,619.3L802.81,618.19L801.74,617.97L800.68,618.99L801.16,620.74L800.97,621.75L801.12,623.18L800.74,624.59L800.83,625.65L799.25,626.06L798.34,625.34L798.96,622.66L799,621.62L798.45,620.12L797.32,620.29L796.83,619.27L796.76,618.23L797.58,617.47L798.19,616L798.16,614.61L799.39,612.14L799.26,611.09L799.49,610.21L800.72,608.26L801.38,608.67L802.43,607.41L803.84,607.61L804.24,608L806.5,608.13L807.71,608.58L808.74,608.37L810.26,608.61L811.4,608.12L813.3,606.31L813.96,606.84ZM820.62,608.59L821.76,607.76L822.46,606.8L823.17,606.66L823.21,607.9L822.13,608.51L823.18,609.89L821.29,609.59L821.03,610.05L821.46,612.73L820.51,611.49L820.56,610.08L820.15,609.54L819.79,607.51L820.35,605.93L821.36,606.31L821.36,607.3L820.41,608.15ZM822.54,605.38L821.91,604.72L822.94,603.92L822.99,604.92ZM737.24,604.55L735.49,603.77L735.48,603.07L737.11,604.14ZM737.31,596.89L739.87,596.87L741.09,597.82L742,599.07L742.15,599.93L745.95,602.36L747.89,604.83L748.49,605.19L749.46,604.83L750.6,606.33L751.43,606.53L752.42,607.49L753.25,608.77L754.26,608.94L754.84,609.54L755.94,609.57L756.76,610.72L755.81,611.36L755.82,612.27L756.59,613.21L758.3,613.62L758.85,615.98L759.59,616.43L759.12,617.21L761.06,617.2L761.55,617.5L762.79,619.14L762.25,620.49L762.37,624.23L762.18,626.01L761.65,626.34L760.93,625.67L760.22,626.2L759.04,625.59L758.94,626.62L756.88,624.41L754.45,622.78L753.43,621.93L752.34,620.45L750.88,619.3L748.93,616.57L748.95,616.01L747.96,614.31L747.49,613.05L746.29,611.69L745.59,610.58L744.42,609.91L743.46,606.86L742.84,605.78L740.53,604.56L740.24,603.26L739.71,602.91L738.58,601.31L737.19,600.67L734.65,598.14L733.89,596.74L733.94,595.99L735.01,595.87L736.36,596.71ZM791.49,592.97L792.34,592.22L792.78,593L793.72,593.55L793.65,594.98L794.68,594.68L794.98,595.19L796.25,595.91L797.93,596.39L797.69,597.23L796.46,597.59L795.36,597.53L795.16,597.96L796.17,598.83L795.99,599.21L794.69,599.51L793.98,599.27L793.24,599.97L793.68,601.15L792.44,601.26L793.63,602.67L794.84,604.67L794.31,605.6L794.88,606.31L796.37,607.33L797.29,608.23L796.09,608.68L795.19,608.52L793.99,608.9L793.39,610.22L793.23,611.71L793.5,612.9L790.81,614.78L790.46,616.32L790.84,616.98L790.22,618.59L789.22,620.44L785.85,621.98L785.43,620.17L784.22,619.6L783.45,620.07L782.74,619.35L781.26,619.35L780.27,619.92L779.43,619.71L778.19,620.27L778.19,619.01L776.98,618.68L776.12,619L774.86,618.56L773.95,618.65L773.38,614.58L772.77,613.55L771.88,613.17L771.09,612.17L771.35,610.77L770.52,609.9L770.42,608.73L770.87,606.86L771.68,605.72L772.34,605.44L773.29,606.27L774.26,606.26L775.84,606.8L776.41,606.21L776.65,604.35L777.94,603.24L780.63,602.66L781.45,602.3L782.52,600.87L783.8,599.52L784.14,598.59L784.8,598.55L786.65,597.44L788.05,597.37L787.78,596.39L788.79,596.06L789.7,594.47L790.65,593.42ZM816.02,585.88L816.52,586L816.85,587.17L817.16,589.9L817.52,590.32L817.55,591.47L816.21,592.85L815.53,591.24L814.4,592.68L814.9,593.57L815.11,594.88L814.55,595.72L812.36,594.83L810.87,593.74L810.63,592.15L811.22,591.07L810.58,590.35L809.31,589.96L809.04,591.04L806.66,590.33L805.8,592.12L805.46,591.16L805.69,589.96L806.23,589.37L807.76,589.03L808.05,588.37L809.16,587.55L811.27,588.72L811.87,587.81L812.62,587.93L812.98,586.83L814.76,586.37L814.44,584.94L814.72,584.7ZM693.29,584.55L694.01,584.6L695.23,585.76L696.99,588.28L697.16,589.13L698.33,591.36L698.3,592.4L697.7,593.68L697.01,594.17L695.26,594.88L694.05,594.79L693.59,594.41L692.96,592.59L692.78,590.56L693.14,587.02L693.65,585.87ZM812.25,584.62L811.63,585.05L810.49,585.06L810.18,584.54L811.13,583.68L812.21,583.97ZM808.35,586.58L806.83,585.45L806.59,584.15L807.61,583.81L807.51,582.68L807.96,581.64L808.68,581.35L809.51,581.93L808.43,584.41L808.82,585.79ZM808.99,585.53L809.03,584.14L809.9,582.76L810.54,583.19L809.72,583.99ZM792.83,588.26L792.93,587.52L794.36,586.1L794.97,585.81L797.4,583.09L797.93,582.75L798.03,581.76L798.74,581.46L799.16,582.55L797.84,583.88L796.75,584.27L795.83,586.06L794.64,587.08ZM812.2,580.4L813.15,580.32L813.37,581.92L814.01,583.33L813.4,583.96L812.75,583.59L812.77,581.93L811.85,581.54ZM806.66,579.66L808.42,579.88L808.04,581.02L807.39,581.81L805.86,582.36L805.24,581.68L805.61,579.59ZM813.97,577.17L814.76,578.09L814.55,578.74L815.01,580.98L813.96,580.94L813.42,580.41L813.02,579.23L811.69,577.95L811.45,577.06ZM623.37,576.87L624.5,576.8L624.35,577.63L622.93,577.68ZM801.88,574.57L803.21,574.7L804.06,575.52L804.11,576.87L803.3,578.02L802.46,577.22L802.04,575.96L801.36,575.17ZM802.94,560.31L804.92,561.21L806.13,560.91L805.74,562.72L805.96,563.62L806.72,564.49L805.69,567.1L804.25,567.8L804.29,568.53L803.71,569.49L804.52,571.11L804.4,571.81L804.8,572.83L805.87,572.73L806.64,572.25L807.62,572.45L808.62,573.83L809.15,573.23L809.94,573.46L809.62,574.43L811.05,575.78L810.83,577.06L808.83,575.76L808.44,574.67L806.92,573.39L806.42,574.53L804.74,573.31L803.21,574.13L802.24,573.46L801.64,572.62L802.46,571.78L802.37,571.17L800.22,570.8L799.55,566.71L800.43,567.48L801.04,567L800.81,566.15L801.09,564.96L800.96,563.05L801.6,560.61ZM775.7,556.42L776.04,557.38L774.86,558.74L774.54,559.94L772.05,561.43L769.87,560.54L769.85,558.27L771.14,557.32L771.25,556.85L772.4,556.44L774.9,556.19ZM802.69,548.9L801.55,549.66L800.87,549.12L800.19,547.37L800.42,545.74L802.77,541.86L804.25,541.15L805.14,542.04L804.37,544.51L803.94,546.57L803.46,547.9ZM816.87,516.82L816.9,516.07L817.86,515.79L818.33,516.45ZM829.8,515.62L830.89,515.45L831.72,516.73L831.94,518.03L831.29,518.83L830.23,522.56L828.24,523.27L827.2,522.92L827.52,521.95L827.19,520.41L828.37,518.75L827.68,517.24L827.13,518.01L825.55,516.79L825.76,516.37L827.64,515.51L827.96,514.87L829.21,514.75ZM838.29,513.51L839.03,513.61L839.3,514.92L838.34,515.6L837.82,516.75L836.35,515.91L835.43,516.39L834.61,518.04L833.32,517.8L832.98,515.9L834.09,514.36L836.22,514.28L837.54,513.18ZM856.61,489.46L857.23,492.15L858.13,493.27L858.61,494.83L858.4,497.36L857.76,497.83L857.25,499.78L856.29,500L855.81,501.32L856.1,502.94L855.92,504.5L855.01,506.17L854.99,507.63L855.66,508.73L854.55,509.44L854.17,510.6L852.8,511.24L852.4,509.77L851.33,510.2L850.62,512.08L849.54,510.82L848.5,512.41L845.03,511.73L844.09,512.15L844.94,513.29L843.55,513.77L842.44,515.75L841.21,515.77L840.47,514.67L840.27,513.41L841.03,512.72L839.31,511.87L837.89,512.09L837.25,512.64L835.05,513.36L832.63,513.61L832.24,514.8L831.31,514.17L829.12,514.42L829.34,513.07L830.28,513.01L831.62,511.99L834.46,509.43L835.67,509.61L837.9,509.34L840.47,508.66L840.87,509.39L841.81,509.46L842.92,508.59L842.68,507.86L844.53,505.37L846.25,505.28L846.7,504.67L848.85,503.78L850.36,501.68L851.74,500.67L853.46,496.15L853.19,494.68L853.13,492.19L854.08,491.32L856.32,491.19ZM863.53,479.49L866.13,480.15L866.94,480.8L867.59,482.96L865.68,483.79L863.92,484.03L862.48,485.71L861.96,487.22L860.02,486.29L858.27,485.13L857.08,485.25L855.96,485.99L854.61,485.2L854.2,486.16L855.29,486.8L854.36,488.94L853.32,488.73L853.62,487.53L852.86,485.82L853.04,484.88L855.42,482.82L856.79,482.87L857.06,481.24L857.72,479.85L858.09,477.25L857.55,475.6L858.5,474.26L860.54,476.87ZM876.26,474.98L874.44,476.22L874.05,475.47ZM860.7,437.29L861.11,440.02L861.93,442.25L862.2,445.27L861.75,447.59L862.55,450.23L863.51,455.25L864.73,459.27L861.61,459.72L860.2,464.27L860.15,465.6L861.35,467.63L862.09,470.22L860.21,469.67L859.22,472.04L858.21,470.64L858.77,467.96L858.57,466.2L859.15,464.51L858.31,461.55L859.05,458.21L858.86,454.28L859.22,451.29L857.93,449.09L857.76,446.77L858.14,445.53L858.2,442.06L860.07,441.58L860.45,439.23L859.56,437.81ZM916.36,416.93L916.7,414.81L919.01,414.31L918.97,415.48ZM0.54,353.76L3,355.13L6.91,358.84L12.41,362.87L14.81,366.86L16.85,366.57L19.63,368.07L21.88,368.03L26.15,372.92L24.89,376.71L20.77,377.97L20.76,380.38L18.87,382.53L18.64,385.06L16.72,384.64L15.15,382.95L12.28,381.92L11.06,380.61L10.42,377.68L7.85,376.76L4.51,377.59L2.99,374.67L0.72,375.53L1.73,377.39L0,380.26L0,370.7L0,360.56ZM931.2,348.94L927.44,346.96L928.95,345.57L931.67,346.61ZM956.96,339.12L957.04,335.8L960,333.24L960,337.76ZM3,332.91L6.58,335.54L5.81,337.15L1.32,338.33L0,337.76L0,333.24ZM668.46,319.56L666.66,317.12L669.17,315.67L671,318.84ZM859.16,312.04L862.25,315.16L861.85,318.41L855.1,316.25L856.23,312.33ZM782.37,307.12L780.75,310.12L777.71,308.38L778.89,305.64ZM871.45,297.19L880.28,298.78L881.72,301.63L878.93,303.38L874.91,302.84L869.73,299ZM853.46,292.28L855.85,293.67L857.29,288.88L859.89,291.46L863.16,291.9L867.35,294.9L864.05,300.6L858.63,301.15L850.93,304.56L848.25,303.13L845.35,298.62L846.67,291.39L850.17,288.19ZM754.36,249.67L760.39,255.77L760.83,260.1L756.59,263.3L749.88,264.16L747.42,257.68L750.91,248.29ZM740.47,236.17L746.83,242L745.17,255.56L740.15,255.67L732.41,251.47L728.19,246.18L733.3,237.13ZM737.4,221.15L740.88,225.85L739.13,234.87L732.17,236.67L730.33,238.46L724.06,233.01L728.7,225.97L728.17,222.64L735.47,217.59Z" fill="#aaaaaa" stroke="#fff" stroke-width="0.5" id="world" data-name="World"/>
</svg>