<svg width="20" height="20" viewBox="0 0 20 20" fill="none" xmlns="http://www.w3.org/2000/svg">
<path d="M13.5 1C16.5376 1 19 3.46243 19 6.5C19 9.53757 16.5376 12 13.5 12C13.4425 12 13.3852 11.9969 13.3281 11.9951L10.7959 14.6875L10.5 15H7.74609L6.73047 17.9502C6.53381 18.5749 5.95471 19 5.2998 19H2.5C1.67157 19 1 18.3284 1 17.5V14.3291C1.00001 13.9236 1.16416 13.5354 1.45508 13.2529L8.01465 6.88574C8.0058 6.75828 8 6.62971 8 6.5C8 3.46248 10.4625 1.00007 13.5 1ZM13.5 3C11.5671 3.00007 10 4.56705 10 6.5C10 6.59967 10.0045 6.69833 10.0127 6.7959C10.0348 7.05951 10.0858 7.31483 10.1631 7.55859L8.39258 9.2998L3 14.5V17H5L5.81152 14.0498L5.85254 13.9355C6.08056 13.374 6.62813 13 7.24219 13H9.5L11.624 10.8818L11.623 10.8809L12.6182 9.8877C12.6324 9.89138 12.6469 9.89395 12.6611 9.89746C12.9299 9.96364 13.2108 9.99999 13.5 10C15.433 10 17 8.433 17 6.5C17 4.567 15.433 3 13.5 3ZM13.375 5.5C13.9963 5.5 14.5 6.00368 14.5 6.625C14.5 7.24632 13.9963 7.75 13.375 7.75C12.7537 7.74993 12.25 7.24627 12.25 6.625C12.25 6.00373 12.7537 5.50007 13.375 5.5Z" fill="#657077"/>
</svg>
