<svg width="20" height="20" viewBox="0 0 20 20" fill="none" xmlns="http://www.w3.org/2000/svg">
<g clip-path="url(#clip0_502_538)">
<path fill-rule="evenodd" clip-rule="evenodd" d="M16.3599 6.63212C16.9457 6.04634 17.8954 6.04634 18.4812 6.63212C19.067 7.21791 19.067 8.16766 18.4812 8.75344L14.9457 12.289C14.7504 12.4842 14.4339 12.4842 14.2386 12.289L12.8244 10.8748C12.6291 10.6795 12.6291 10.3629 12.8244 10.1677L16.3599 6.63212ZM14.9215 16.0779C15.4905 15.7855 15.5769 15.0415 15.1245 14.5891L4.86735 4.33196L4.77896 4.25323C4.32343 3.89202 3.65274 4.00152 3.37856 4.53497L3.14723 4.99832C2.04449 7.28775 0.483608 11.6358 2.63469 14.7056C2.61295 14.724 2.5918 14.7434 2.57133 14.7639L0.450008 16.8852C0.0594836 17.2757 0.0594833 17.9089 0.450008 18.2994L1.15711 19.0065C1.54764 19.397 2.1808 19.397 2.57133 19.0065L4.69265 16.8852C4.71312 16.8647 4.73252 16.8436 4.75085 16.8218C7.82074 18.9729 12.1688 17.412 14.4582 16.3093L14.9215 16.0779ZM3.64027 9.91216C3.79456 8.81643 4.14879 7.7342 4.52554 6.81857L12.6379 14.931C11.7223 15.3077 10.6401 15.6619 9.54434 15.8162C7.83425 16.057 6.41775 15.7818 5.39975 14.7639L4.69265 14.0567C3.67465 13.0387 3.3995 11.6222 3.64027 9.91216ZM12.8244 0.97527C12.2386 0.389484 11.2888 0.389484 10.7031 0.97527L7.16752 4.5108C6.97226 4.70607 6.97226 5.02265 7.16752 5.21791L8.58174 6.63212C8.777 6.82739 9.09358 6.82739 9.28884 6.63212L12.8244 3.09659C13.4102 2.5108 13.4102 1.56106 12.8244 0.97527Z" fill="#657077"/>
</g>
<defs>
<clipPath id="clip0_502_538">
<rect width="20" height="20" fill="white"/>
</clipPath>
</defs>
</svg>
