<svg width="20" height="20" viewBox="0 0 20 20" fill="none" xmlns="http://www.w3.org/2000/svg">
<path fill-rule="evenodd" clip-rule="evenodd" d="M1.24461 2.7991C1.2808 2.54115 1.46782 2.32912 1.72064 2.2594L9.82343 0.0239217C9.93904 -0.00797391 10.0611 -0.00797391 10.1766 0.0239217L18.2794 2.2594C18.5322 2.32912 18.7192 2.54124 18.7554 2.7991C18.8024 3.13444 19.8745 11.0557 17.1246 14.9962C14.3779 18.9321 10.3259 19.9407 10.1547 19.9818C10.1038 19.9939 10.052 20 10 20C9.948 20 9.89617 19.994 9.84531 19.9818C9.67418 19.9407 5.62217 18.9321 2.87545 14.9962C0.125467 11.0556 1.19761 3.13436 1.24461 2.7991ZM11.7183 17.1926C10.9761 17.5963 10.353 17.8289 10 17.9442C9.647 17.8289 9.02396 17.5962 8.28175 17.1926C7.10269 16.5514 5.66872 15.5041 4.51556 13.8517C3.49926 12.3953 3.07867 9.94885 3.01039 7.49014C2.97021 6.04306 3.05424 4.75284 3.12887 3.94561L10 2.04993L16.8711 3.94561C16.9458 4.75288 17.0298 6.04312 16.9896 7.4902C16.9213 9.94892 16.5007 12.3954 15.4845 13.8516L15.4844 13.8517C14.3313 15.5041 12.8974 16.5514 11.7183 17.1926ZM14.3892 7.73261C14.5845 7.53735 14.5845 7.22077 14.3892 7.0255L13.6821 6.3184C13.4868 6.12314 13.1702 6.12314 12.975 6.3184L9.08582 10.2076L8.02509 9.14682C7.82983 8.95156 7.51325 8.95156 7.31798 9.14682L6.61088 9.85393C6.41562 10.0492 6.41562 10.3658 6.61088 10.561L8.73227 12.6824C8.92753 12.8777 9.24412 12.8777 9.43938 12.6824L14.3892 7.73261Z" fill="#657077"/>
</svg>
