<svg width="20" height="20" viewBox="0 0 20 20" fill="none" xmlns="http://www.w3.org/2000/svg">
<g clip-path="url(#clip0_27054_87060)">
<g clip-path="url(#clip1_27054_87060)">
<path d="M5.834 0.997924C7.0143 0.00069195 8.73573 0.000691831 9.91603 0.997924C10.8055 1.74962 11.193 2.90296 11.002 3.99988H15C15.5177 3.99988 15.9439 4.39315 15.9951 4.89734C15.9986 4.931 16 4.96531 16 4.99988V8.7489C17.0971 8.55778 18.2502 8.94426 19.002 9.83386C19.9991 11.0142 19.9992 12.7356 19.002 13.9159C18.2503 14.8054 17.097 15.192 16 15.0009V18.9999C16 19.5175 15.6067 19.9437 15.1026 19.995L15 19.9999H1.00001C0.482388 19.9999 0.0562813 19.6065 0.00489153 19.1024L8.71301e-06 18.9999V14.0341H0.000985277C-0.000769579 13.5652 0.24851 13.1349 0.649423 12.9012C1.05247 12.6665 1.54939 12.6647 1.95509 12.8944L1.95607 12.8934C2.46335 13.1799 3.10413 13.0633 3.47462 12.6249C3.84196 12.19 3.84192 11.5598 3.47462 11.1249C3.10413 10.6864 2.46339 10.5699 1.95607 10.8563H1.95509C1.5495 11.0858 1.05231 11.0831 0.649423 10.8485L0.504892 10.7509C0.189266 10.5056 -0.0014854 10.1254 8.71301e-06 9.7157V4.99988C8.73715e-06 4.44759 0.447724 3.99988 1.00001 3.99988H4.74904C4.55791 2.90281 4.94436 1.74966 5.834 0.997924ZM8.62502 2.52527C8.19011 2.15785 7.55999 2.15797 7.12502 2.52527C6.68687 2.8955 6.56982 3.53571 6.85548 4.04285V4.04187C7.0863 4.44787 7.08367 4.9468 6.84865 5.35046C6.61512 5.7512 6.18473 6.00062 5.71584 5.9989V5.99988H2.00001V8.7489C3.09706 8.55778 4.25023 8.94426 5.00197 9.83386C5.99913 11.0142 5.99917 12.7356 5.00197 13.9159C4.25024 14.8054 3.09702 15.192 2.00001 15.0009V17.9999H14V14.0341H14.001C13.9992 13.5652 14.2485 13.1349 14.6494 12.9012C15.0525 12.6665 15.5494 12.6647 15.9551 12.8944L15.9561 12.8934C16.4634 13.1799 17.1042 13.0633 17.4746 12.6249C17.842 12.19 17.8419 11.5598 17.4746 11.1249C17.1041 10.6864 16.4634 10.5699 15.9561 10.8563H15.9551C15.5495 11.0858 15.0523 11.0831 14.6494 10.8485L14.5049 10.7509C14.1893 10.5056 13.9995 10.1254 14.001 9.7157H14V5.99988H10.0332V5.9989C9.56456 6.00041 9.13481 5.75102 8.90139 5.35046C8.66687 4.94779 8.66447 4.45128 8.89357 4.04578L8.8926 4.0448C9.17942 3.53741 9.06362 2.89589 8.62502 2.52527Z" fill="#657077"/>
</g>
</g>
<defs>
<clipPath id="clip0_27054_87060">
<rect width="20" height="20" fill="white"/>
</clipPath>
<clipPath id="clip1_27054_87060">
<rect width="20" height="20" fill="white"/>
</clipPath>
</defs>
</svg>
