<svg width="20" height="20" viewBox="0 0 20 20" fill="none" xmlns="http://www.w3.org/2000/svg">
<g clip-path="url(#clip0_502_496)">
<g clip-path="url(#clip1_502_496)">
<path d="M13.2319 1.80661L8.57267 19.1933L6.64103 18.6758L11.2992 1.28903L13.2319 1.80661ZM19.7074 9.29294C19.8948 9.4804 20.0003 9.73493 20.0004 9.99997C20.0003 10.2651 19.8949 10.5195 19.7074 10.707L15.3324 15.083L13.9184 13.6679L17.5863 9.99997L13.9184 6.332L15.3324 4.91794L19.7074 9.29294ZM6.08244 6.33102L2.41349 9.99899L6.08244 13.6679L4.6674 15.082L0.292398 10.707C-0.0979006 10.3165 -0.0978658 9.68245 0.292398 9.29196L4.6674 4.91696L6.08244 6.33102Z" fill="#657077"/>
</g>
</g>
<defs>
<clipPath id="clip0_502_496">
<rect width="20" height="20" fill="white"/>
</clipPath>
<clipPath id="clip1_502_496">
<rect width="20" height="20" fill="white"/>
</clipPath>
</defs>
</svg>
