<svg width="20" height="20" viewBox="0 0 20 20" fill="none" xmlns="http://www.w3.org/2000/svg">
<g clip-path="url(#clip0_502_821)">
<g clip-path="url(#clip1_502_821)">
<path d="M0.999999 4.99997L5.71624 4.99997C5.82631 5.00158 5.92877 4.94339 5.98461 4.84755C6.04044 4.75172 6.04107 4.63299 5.98624 4.53656C5.46412 3.61294 5.67192 2.44416 6.47956 1.76178C7.28721 1.07941 8.46276 1.07941 9.2704 1.76178C10.0781 2.44416 10.2858 3.61294 9.76373 4.53656C9.7089 4.63299 9.70952 4.75172 9.76536 4.84755C9.8212 4.94339 9.92366 5.00158 10.0337 4.99997L15.0002 4.99997" stroke="#657077" stroke-width="2" stroke-linecap="round" stroke-linejoin="round"/>
<path d="M15 5L15 9.71625C14.9985 9.82632 15.0566 9.92878 15.1525 9.98462C15.2483 10.0405 15.367 10.0411 15.4635 9.98625C16.3871 9.46413 17.5558 9.67193 18.2382 10.4796C18.9206 11.2872 18.9206 12.4628 18.2382 13.2704C17.5558 14.0781 16.3871 14.2859 15.4635 13.7638C15.367 13.7089 15.2483 13.7095 15.1525 13.7654C15.0566 13.8212 14.9985 13.9237 15 14.0338L15 19" stroke="#657077" stroke-width="2" stroke-linecap="round" stroke-linejoin="round"/>
<path d="M1 5L1.00003 9.71625C0.998452 9.82632 1.05664 9.92878 1.15247 9.98462C1.24831 10.0405 1.36704 10.0411 1.46347 9.98625C2.38708 9.46413 3.55585 9.67193 4.23822 10.4796C4.92059 11.2872 4.92059 12.4628 4.23822 13.2704C3.55585 14.0781 2.38708 14.2859 1.46347 13.7638C1.36704 13.7089 1.24831 13.7095 1.15247 13.7654C1.05664 13.8212 0.998452 13.9237 1.00003 14.0338L1.00003 19" stroke="#657077" stroke-width="2" stroke-linecap="round" stroke-linejoin="round"/>
<path d="M15 19L1 19" stroke="#657077" stroke-width="2" stroke-linecap="round"/>
</g>
</g>
<defs>
<clipPath id="clip0_502_821">
<rect width="20" height="20" fill="white"/>
</clipPath>
<clipPath id="clip1_502_821">
<rect width="20" height="20" fill="white"/>
</clipPath>
</defs>
</svg>
