<svg xmlns="http://www.w3.org/2000/svg" width="14" height="12" viewBox="0 0 14 12" fill="none">
  <path d="M6.15234 0C7.06997 0 7.87008 0.624486 8.09277 1.51465L8.42578 2.84668C8.51538 3.20484 8.79516 3.48462 9.15332 3.57422L10.4854 3.90723C11.3755 4.12992 12 4.93003 12 5.84766V6.15234C12 7.06997 11.3755 7.87008 10.4854 8.09277L9.15332 8.42578C8.79516 8.51538 8.51538 8.79516 8.42578 9.15332L8.09277 10.4854C7.87008 11.3755 7.06997 12 6.15234 12H5.84766C4.93003 12 4.12992 11.3755 3.90723 10.4854L3.57422 9.15332C3.48462 8.79516 3.20484 8.51538 2.84668 8.42578L1.51465 8.09277C0.624486 7.87008 0 7.06997 0 6.15234V5.84766C0 4.93003 0.624486 4.12992 1.51465 3.90723L2.84668 3.57422C3.20484 3.48462 3.48462 3.20484 3.57422 2.84668L3.90723 1.51465C4.12992 0.624486 4.93003 0 5.84766 0H6.15234ZM12.5 9C12.7761 9 13 9.22386 13 9.5V10H13.5C13.7761 10 14 10.2239 14 10.5C14 10.7761 13.7761 11 13.5 11H13V11.5C13 11.7761 12.7761 12 12.5 12C12.2239 12 12 11.7761 12 11.5V11H11.5C11.2239 11 11 10.7761 11 10.5C11 10.2239 11.2239 10 11.5 10H12V9.5C12 9.22386 12.2239 9 12.5 9ZM6 2C5.91024 2 5.83232 2.06136 5.81055 2.14844L5.51465 3.33203C5.24586 4.40658 4.40658 5.24586 3.33203 5.51465L2.14844 5.81055C2.06136 5.83232 2 5.91024 2 6C2 6.08976 2.06136 6.16768 2.14844 6.18945L3.33203 6.48535C4.40658 6.75414 5.24586 7.59343 5.51465 8.66797L5.81055 9.85156C5.83232 9.93864 5.91024 10 6 10C6.08976 10 6.16768 9.93864 6.18945 9.85156L6.48535 8.66797C6.75414 7.59342 7.59343 6.75414 8.66797 6.48535L9.85156 6.18945C9.93864 6.16768 10 6.08976 10 6C10 5.91024 9.93864 5.83232 9.85156 5.81055L8.66797 5.51465C7.59342 5.24586 6.75414 4.40658 6.48535 3.33203L6.18945 2.14844C6.16768 2.06136 6.08976 2 6 2ZM12.5 0C13.3284 0 14 0.671573 14 1.5C14 2.32843 13.3284 3 12.5 3C11.6716 3 11 2.32843 11 1.5C11 0.671573 11.6716 0 12.5 0ZM12.5 1C12.2239 1 12 1.22386 12 1.5C12 1.77614 12.2239 2 12.5 2C12.7761 2 13 1.77614 13 1.5C13 1.22386 12.7761 1 12.5 1Z" fill="#657077"/>
</svg>