<svg width="32" height="32" viewBox="0 0 32 32" fill="none" xmlns="http://www.w3.org/2000/svg">
<path fill-rule="evenodd" clip-rule="evenodd" d="M21 10C22.6569 10 24 11.3431 24 13V20C24 21.6569 22.6569 23 21 23H11C9.34315 23 8 21.6569 8 20V13C8 11.3431 9.34315 10 11 10H21ZM10 16V20C10 20.5523 10.4477 21 11 21H21C21.5523 21 22 20.5523 22 20V16H10ZM11 12C10.4477 12 10 12.4477 10 13V14H22V13C22 12.4477 21.5523 12 21 12H11Z" fill="#4781D1"/>
<rect opacity="0.15" width="32" height="32" rx="8" fill="#4781D1"/>
</svg>
