<svg width="16" height="16" viewBox="0 0 16 16" fill="none" xmlns="http://www.w3.org/2000/svg">
<g clip-path="url(#clip0_498_688)">
<path fill-rule="evenodd" clip-rule="evenodd" d="M9.1933 0.586518C9.58382 0.195994 10.217 0.195994 10.6075 0.586518C10.998 0.977042 10.998 1.61021 10.6075 2.00073L8.13264 4.4756C7.93738 4.67087 7.6208 4.67087 7.42553 4.4756L6.71843 3.7685C6.52316 3.57324 6.52316 3.25665 6.71843 3.06139L9.1933 0.586518ZM12.9988 13.1798C13.5574 12.9334 13.6815 12.2526 13.3151 11.789L13.2357 11.7L4.44381 2.90809C3.98332 2.44777 3.22674 2.54932 2.96399 3.14495C2.17932 4.92646 1.06352 8.43743 2.90115 11.1279C2.87643 11.1483 2.85246 11.17 2.82934 11.1931L0.708019 13.3144C0.317495 13.705 0.317495 14.3381 0.708019 14.7287L1.41513 15.4358C1.80565 15.8263 2.43882 15.8263 2.82934 15.4358L4.95066 13.3144C4.97378 13.2913 4.99553 13.2674 5.01591 13.2426C7.5205 14.9533 10.7358 14.104 12.6052 13.3455L12.9988 13.1798ZM3.91141 7.35168C3.9434 6.72433 4.06614 6.09909 4.22836 5.52107L10.6227 11.9154C10.0447 12.0776 9.41945 12.2004 8.7921 12.2324C7.56334 12.295 6.47749 12.0127 5.61633 11.1517L4.99209 10.5274C4.13104 9.66629 3.84875 8.58044 3.91141 7.35168ZM15.5573 5.53627C15.1667 5.14574 14.5336 5.14574 14.143 5.53626L11.6682 8.01114C11.4729 8.2064 11.4729 8.52298 11.6682 8.71825L12.3753 9.42535C12.5705 9.62061 12.8871 9.62061 13.0824 9.42535L15.5573 6.95048C15.9478 6.55995 15.9478 5.92679 15.5573 5.53627Z" fill="#657077"/>
</g>
<defs>
<clipPath id="clip0_498_688">
<rect width="16" height="16" fill="white"/>
</clipPath>
</defs>
</svg>
