<svg width="16" height="16" viewBox="0 0 16 16" fill="none" xmlns="http://www.w3.org/2000/svg">
<path d="M11 0C13.7611 0 15.9999 2.23856 16 5C16 7.76153 13.7612 10 11 10H10V12C10 12.5523 9.55229 13 9 13H6.80664L6.0625 14.9746C5.85825 15.587 5.28518 16 4.63965 16H2.5C1.67157 16 1 15.3284 1 14.5V12.1035C1.00006 11.6832 1.17648 11.2821 1.48633 10.998L6.10059 6.00391C6.03445 5.67961 6 5.34384 6 5C6.0001 2.23856 8.23888 6.14941e-06 11 0ZM10.999 2C9.34217 2 7.99902 3.34315 7.99902 5C7.99902 5.57189 8.16174 6.10476 8.43945 6.55957L8.12891 6.86914L8.12988 6.87012L7 8L3 12.3232V14H4.2793L4.9375 11.9092L4.97949 11.7969C5.21305 11.2468 5.66912 10.9981 6.27441 10.998H8V10L8.6084 9.39062L10.1289 7.87012C10.4044 7.95354 10.6963 8 10.999 8C12.6559 8 13.999 6.65685 13.999 5C13.999 3.34315 12.6559 2 10.999 2ZM11 4C11.5523 4 12 4.44772 12 5C12 5.55228 11.5523 6 11 6C10.4477 6 10 5.55228 10 5C10 4.44772 10.4477 4 11 4Z" fill="#657077"/>
</svg>
