<svg width="16" height="16" viewBox="0 0 16 16" fill="none" xmlns="http://www.w3.org/2000/svg">
<g clip-path="url(#clip0_498_94)">
<path d="M10.7786 1.49704L7.15458 15.0205L5.22294 14.5029L8.84696 0.979462L10.7786 1.49704ZM15.7073 7.29294C15.8946 7.48036 16.0002 7.73502 16.0003 7.99997C16.0002 8.26498 15.8947 8.51956 15.7073 8.707L12.2073 12.208L10.7933 10.7939L13.5862 7.99997L10.7933 5.207L12.2073 3.79294L15.7073 7.29294ZM5.20731 5.20602L2.41337 7.99899L5.20731 10.7929L3.79325 12.207L0.292274 8.70602C-0.0977025 8.31557 -0.0977976 7.68236 0.292274 7.29196L3.79325 3.79196L5.20731 5.20602Z" fill="#657077"/>
</g>
<defs>
<clipPath id="clip0_498_94">
<rect width="16" height="16" fill="white"/>
</clipPath>
</defs>
</svg>
