<svg width="16" height="16" viewBox="0 0 16 16" fill="none" xmlns="http://www.w3.org/2000/svg">
<g clip-path="url(#clip0_498_109)">
<path d="M1 3.99997L4.77299 3.99997C4.86105 4.00126 4.94302 3.95471 4.98769 3.87804C5.03236 3.80138 5.03285 3.70639 4.98899 3.62925C4.5713 2.89035 4.73753 1.95533 5.38365 1.40943C6.02977 0.863524 6.9702 0.863525 7.61632 1.40943C8.26244 1.95533 8.42868 2.89035 8.01098 3.62925C7.96712 3.70639 7.96762 3.80138 8.01229 3.87804C8.05696 3.95471 8.13892 4.00126 8.22698 3.99997L12 3.99997" stroke="#657077" stroke-width="2" stroke-linecap="round" stroke-linejoin="round"/>
<path d="M12 4L12 7.773C11.9988 7.86106 12.0453 7.94303 12.122 7.98769C12.1986 8.03236 12.2936 8.03286 12.3708 7.989C13.1097 7.5713 14.0447 7.73754 14.5906 8.38366C15.1365 9.02978 15.1365 9.97022 14.5906 10.6163C14.0447 11.2625 13.1097 11.4287 12.3708 11.011C12.2936 10.9671 12.1986 10.9676 12.122 11.0123C12.0453 11.057 11.9988 11.1389 12 11.227L12 15" stroke="#657077" stroke-width="2" stroke-linecap="round" stroke-linejoin="round"/>
<path d="M1 4L1.00002 7.773C0.998762 7.86106 1.04531 7.94303 1.12198 7.98769C1.19865 8.03236 1.29363 8.03286 1.37077 7.989C2.10966 7.5713 3.04468 7.73754 3.59058 8.38366C4.13647 9.02978 4.13647 9.97022 3.59058 10.6163C3.04468 11.2625 2.10966 11.4287 1.37077 11.011C1.29363 10.9671 1.19865 10.9676 1.12198 11.0123C1.04531 11.057 0.998762 11.1389 1.00002 11.227L1.00002 15" stroke="#657077" stroke-width="2" stroke-linecap="round" stroke-linejoin="round"/>
<path d="M12 15L1 15" stroke="#657077" stroke-width="2" stroke-linecap="round"/>
</g>
<defs>
<clipPath id="clip0_498_109">
<rect width="16" height="16" fill="white"/>
</clipPath>
</defs>
</svg>
