<svg width="16" height="16" viewBox="0 0 16 16" fill="none" xmlns="http://www.w3.org/2000/svg">
<g clip-path="url(#clip0_498_136)">
<path fill-rule="evenodd" clip-rule="evenodd" d="M1.42935 1.80702L7.86002 0.018649C7.95177 -0.00686737 8.04861 -0.00686737 8.14028 0.018649L14.571 1.80702C14.7716 1.8628 14.92 2.03249 14.9488 2.23878C14.9861 2.50705 15.8369 8.84402 13.6545 11.9964C11.4746 15.1451 8.2588 15.952 8.12292 15.9848C8.08256 15.9945 8.04143 15.9994 8.00015 15.9994C7.95888 15.9994 7.91775 15.9946 7.87738 15.9848C7.74157 15.952 4.52575 15.1451 2.34584 11.9964C0.16336 8.84396 1.01425 2.50698 1.05155 2.23878C1.08028 2.03242 1.2287 1.8628 1.42935 1.80702ZM8.00015 2.05558L13.0656 3.46428C13.1162 4.09801 13.162 4.99325 13.1348 5.98097C13.0809 7.93807 12.7465 9.7943 12.0101 10.858L12.0101 10.858C10.6482 12.8252 8.76772 13.6579 8.00017 13.9307C7.23249 13.6579 5.35209 12.8251 3.99022 10.858C3.25381 9.79428 2.91944 7.93802 2.86552 5.98092C2.83831 4.99321 2.88415 4.09798 2.9347 3.46429L8.00015 2.05558ZM11.8536 6.56074C12.0489 6.36547 12.0489 6.04889 11.8536 5.85363L11.1465 5.14652C10.9513 4.95126 10.6347 4.95126 10.4394 5.14652L7.50008 8.08586L6.56074 7.14652C6.36547 6.95126 6.04889 6.95126 5.85363 7.14652L5.14652 7.85363C4.95126 8.04889 4.95126 8.36547 5.14652 8.56074L7.14652 10.5607C7.34178 10.756 7.65837 10.756 7.85363 10.5607L11.8536 6.56074Z" fill="#657077"/>
</g>
<defs>
<clipPath id="clip0_498_136">
<rect width="16" height="16" fill="white"/>
</clipPath>
</defs>
</svg>
