<svg width="16" height="16" viewBox="0 0 16 16" fill="none" xmlns="http://www.w3.org/2000/svg">
<g clip-path="url(#clip0_27051_55397)">
<path d="M4.73828 0.645543C5.75704 -0.215177 7.24296 -0.215185 8.26172 0.645543C8.96603 1.24062 9.30561 2.12716 9.22949 3.00004H12C12.5177 3.00004 12.9438 3.39337 12.9951 3.8975C12.9985 3.9312 13 3.96543 13 4.00003V6.77152C13.8729 6.69536 14.7594 7.03397 15.3545 7.73832C16.2152 8.75708 16.2152 10.243 15.3545 11.2618C14.7594 11.9661 13.8729 12.3047 13 12.2286V15C13 15.5177 12.6067 15.9438 12.1025 15.9952C12.0688 15.9986 12.0346 16 12 16H1C0.965392 16 0.931163 15.9986 0.897461 15.9952C0.39334 15.9438 -1.69659e-08 15.5177 0 15V11.2266H0.000976562C-1.13692e-05 10.8364 0.180949 10.4747 0.481445 10.2412L0.618164 10.1485L0.766602 10.0743C1.1197 9.92703 1.52426 9.95029 1.8623 10.1416L1.86328 10.1407C2.1859 10.3228 2.5931 10.2478 2.82715 9.97074C3.05779 9.69741 3.05779 9.30266 2.82715 9.02933C2.5931 8.75231 2.1859 8.67727 1.86328 8.85941H1.8623C1.47591 9.07792 1.00191 9.07518 0.618164 8.8516L0.481445 8.75882C0.180947 8.52539 -1.11966e-05 8.1637 0.000976562 7.77347L0 4.00003C-3.2694e-09 3.96543 0.00145111 3.9312 0.00488281 3.8975C0.0562141 3.39337 0.482323 3.00004 1 3.00004H3.77148C3.69533 2.12714 4.03394 1.24064 4.73828 0.645543ZM6.9707 2.17289C6.69737 1.94224 6.30263 1.94225 6.0293 2.17289C5.78684 2.37774 5.69869 2.71547 5.80273 3.01273L5.85938 3.13675C6.05089 3.47486 6.07304 3.88022 5.92578 4.23343L5.85156 4.38187C5.62928 4.7631 5.21995 5.00021 4.77344 4.99906V5.00003H2V6.77152C2.8729 6.69536 3.7594 7.03397 4.35449 7.73832C5.21521 8.75708 5.21521 10.243 4.35449 11.2618C3.7594 11.9661 2.8729 12.3047 2 12.2286V14H11V11.2266H11.001C11 10.8364 11.1809 10.4747 11.4814 10.2412L11.6182 10.1485L11.7666 10.0743C12.1197 9.92703 12.5243 9.95029 12.8623 10.1416L12.8633 10.1407C13.1859 10.3228 13.5931 10.2478 13.8271 9.97074C14.0578 9.69741 14.0578 9.30266 13.8271 9.02933C13.5931 8.75231 13.1859 8.67727 12.8633 8.85941H12.8623C12.4759 9.07792 12.0019 9.07518 11.6182 8.8516L11.4814 8.75882C11.1809 8.52539 11 8.1637 11.001 7.77347L11 5.00003H8.22656V4.99906C7.78005 5.00022 7.37072 4.7631 7.14844 4.38187C6.92471 3.99788 6.92168 3.52329 7.14062 3.13675C7.32275 2.81413 7.24772 2.40693 6.9707 2.17289Z" fill="#657077"/>
</g>
<defs>
<clipPath id="clip0_27051_55397">
<rect width="16" height="16" fill="white"/>
</clipPath>
</defs>
</svg>
