<svg width="16" height="16" viewBox="0 0 16 16" fill="none" xmlns="http://www.w3.org/2000/svg">
<path d="M3 0.5H10.293L13.5 3.70703V15C13.5 15.2761 13.2761 15.5 13 15.5H3C2.72386 15.5 2.5 15.2761 2.5 15V1C2.5 0.723858 2.72386 0.5 3 0.5Z" fill="white" stroke="#BBBBBB"/>
<path d="M9.5 1V3.7C9.5 3.98003 9.5 4.12004 9.5545 4.227C9.60243 4.32108 9.67892 4.39757 9.773 4.4455C9.87996 4.5 10.02 4.5 10.3 4.5H13" stroke="#BBBBBB"/>
<path d="M5.25 9C5.11193 9 4.99839 8.88764 5.0156 8.75065C5.03784 8.57368 5.0837 8.40011 5.15224 8.23463C5.25275 7.99198 5.40007 7.7715 5.58579 7.58579C5.7715 7.40007 5.99198 7.25275 6.23463 7.15224C6.40011 7.0837 6.57368 7.03784 6.75065 7.0156C6.88764 6.99839 7 7.11193 7 7.25L7 8.75C7 8.88807 6.88807 9 6.75 9H5.25Z" fill="#F36700"/>
<path d="M5.25 10C5.11193 10 4.99892 10.1121 5.01041 10.2497C5.05261 10.755 5.22238 11.2429 5.50559 11.6667C5.83524 12.1601 6.30377 12.5446 6.85195 12.7716C7.40013 12.9987 8.00333 13.0581 8.58527 12.9424C9.16721 12.8266 9.70176 12.5409 10.1213 12.1213C10.5409 11.7018 10.8266 11.1672 10.9424 10.5853C11.0581 10.0033 10.9987 9.40013 10.7716 8.85195C10.5446 8.30377 10.1601 7.83524 9.66671 7.50559C9.24285 7.22238 8.75502 7.05261 8.24972 7.01041C8.11213 6.99892 8 7.11193 8 7.25V9.75C8 9.88807 7.88807 10 7.75 10H5.25Z" fill="#FAC299"/>
<path d="M10 9H15V14H10V9Z" fill="#F36700"/>
<path d="M13.7305 12H12V13H11V10H13.7305V12Z" fill="white"/>
</svg>
