<svg width="32" height="32" viewBox="0 0 32 32" fill="none" xmlns="http://www.w3.org/2000/svg">
<rect width="32" height="32" rx="6" fill="#6D4EC2" fill-opacity="0.1"/>
<path fill-rule="evenodd" clip-rule="evenodd" d="M14 9C14.8469 9 15.512 9.21842 16 9.5957C16.488 9.21842 17.1531 9 18 9H21.001C22.658 9.00024 24 10.3436 24 12V18C24 19.6566 22.6571 21 21 21C19.9513 21 18.7353 21 18 21C17.621 21 17.4121 21.0692 17.3047 21.125C17.2055 21.1765 17.1532 21.2365 17.1162 21.3008C17.0161 21.4746 17 21.7171 17 22L16.9951 22.1025C16.9852 22.2002 16.9608 22.2936 16.9248 22.3809C16.9196 22.3935 16.913 22.4056 16.9072 22.418C16.8863 22.4633 16.8622 22.5065 16.835 22.5479C16.8283 22.5581 16.8215 22.5682 16.8145 22.5781C16.8022 22.5954 16.7897 22.6125 16.7764 22.6289C16.772 22.6343 16.7672 22.6392 16.7627 22.6445C16.7476 22.6623 16.7321 22.6796 16.7158 22.6963C16.7094 22.7029 16.7029 22.7094 16.6963 22.7158C16.6784 22.7332 16.6598 22.7496 16.6406 22.7656C16.6369 22.7687 16.6336 22.7723 16.6299 22.7754C16.6122 22.7898 16.5939 22.8032 16.5752 22.8164C16.5652 22.8234 16.5552 22.8302 16.5449 22.8369C16.5258 22.8494 16.5063 22.8609 16.4863 22.8721C16.4814 22.8748 16.4767 22.8782 16.4717 22.8809C16.4545 22.8901 16.4367 22.898 16.4189 22.9062C16.4024 22.9139 16.3861 22.922 16.3691 22.9287C16.364 22.9308 16.3587 22.9326 16.3535 22.9346C16.3298 22.9435 16.3058 22.9518 16.2812 22.959C16.2362 22.9722 16.19 22.9815 16.1426 22.9883C16.0959 22.995 16.0485 23 16 23C15.9512 23 15.9034 22.995 15.8564 22.9883C15.8091 22.9815 15.7628 22.9722 15.7178 22.959C15.6933 22.9518 15.6692 22.9436 15.6455 22.9346C15.6403 22.9326 15.635 22.9308 15.6299 22.9287C15.6129 22.9219 15.5966 22.9139 15.5801 22.9062C15.5623 22.898 15.5445 22.8901 15.5273 22.8809C15.5223 22.8782 15.5177 22.8749 15.5127 22.8721C15.4928 22.8609 15.4732 22.8494 15.4541 22.8369C15.4439 22.8302 15.4338 22.8234 15.4238 22.8164C15.4052 22.8032 15.3868 22.7898 15.3691 22.7754C15.3654 22.7723 15.3621 22.7687 15.3584 22.7656C15.3393 22.7496 15.3206 22.7332 15.3027 22.7158C15.2961 22.7094 15.2896 22.7029 15.2832 22.6963C15.267 22.6796 15.2514 22.6623 15.2363 22.6445C15.2319 22.6392 15.227 22.6343 15.2227 22.6289C15.2093 22.6125 15.1968 22.5954 15.1846 22.5781C15.1775 22.5682 15.1708 22.5581 15.1641 22.5479C15.1369 22.5065 15.1127 22.4632 15.0918 22.418C15.0861 22.4056 15.0794 22.3935 15.0742 22.3809C15.0383 22.2937 15.0148 22.2001 15.0049 22.1025L15 22C15 21.7171 14.9839 21.4746 14.8838 21.3008C14.8468 21.2365 14.7945 21.1765 14.6953 21.125C14.5879 21.0692 14.379 21 14 21C13.2647 21 12.0487 21 11 21C9.34286 21 8 19.6566 8 18V12C8 10.3436 9.34204 9.00024 10.999 9H14ZM10.999 11C10.4473 11.0002 10 11.4475 10 12V18C10 18.5526 10.448 19 11 19C12.0487 19 13.2647 19 14 19C14.3674 19 14.7004 19.042 15 19.1191V12C15 11.7171 14.9839 11.4746 14.8838 11.3008C14.8468 11.2366 14.7945 11.1765 14.6953 11.125C14.5879 11.0692 14.379 11 14 11C13.0816 11 11.9518 11 10.999 11ZM18 11C17.621 11 17.4121 11.0692 17.3047 11.125C17.2055 11.1765 17.1532 11.2366 17.1162 11.3008C17.0161 11.4746 17 11.7171 17 12V19.1191C17.2996 19.042 17.6326 19 18 19C18.7353 19 19.9513 19 21 19C21.552 19 22 18.5526 22 18V12C22 11.4475 21.5527 11.0002 21.001 11C20.0482 11 18.9184 11 18 11Z" fill="#6D4EC2"/>
</svg>
