<svg width="48" height="48" viewBox="0 0 48 48" fill="none" xmlns="http://www.w3.org/2000/svg">
<rect width="48" height="48" rx="4" fill="white"/>
<path d="M45.5476 10.6849C45.0925 10.4602 44.8954 10.8897 44.6303 11.1089C44.5389 11.1796 44.4618 11.272 44.3848 11.3554C43.7183 12.0747 42.9407 12.5458 41.9249 12.4897C40.4396 12.4063 39.1712 12.8774 38.0496 14.0262C37.8113 12.6092 37.0194 11.7649 35.8154 11.2213C35.1848 10.9386 34.547 10.6577 34.1044 10.0435C33.7963 9.60679 33.7121 9.11936 33.558 8.641C33.4594 8.35108 33.3609 8.05573 33.033 8.00681C32.6747 7.95063 32.535 8.25324 32.3952 8.50691C31.8344 9.54337 31.6176 10.6849 31.6391 11.841C31.6875 14.443 32.7732 16.5159 34.9322 17.989C35.1776 18.1575 35.2403 18.3279 35.1633 18.5743C35.0164 19.0817 34.8408 19.5745 34.6867 20.0837C34.5882 20.408 34.4412 20.4769 34.0973 20.3374C32.9349 19.8322 31.8791 19.1064 30.987 18.1992C29.4516 16.6989 28.0648 15.0427 26.3341 13.7454C25.9331 13.4457 25.5214 13.161 25.0997 12.8919C23.3349 11.1578 25.3326 9.73363 25.7948 9.56511C26.2786 9.38754 25.9615 8.78234 24.3992 8.78958C22.8369 8.79683 21.4071 9.32412 19.585 10.029C19.3143 10.1339 19.0357 10.2169 18.7519 10.2772C17.0492 9.95276 15.3078 9.89045 13.5867 10.0924C10.2094 10.4729 7.51303 12.0892 5.52969 14.8452C3.14682 18.1575 2.58604 21.9228 3.27224 25.8476C3.99427 29.9862 6.08331 33.4126 9.29212 36.0908C12.621 38.8685 16.4533 40.2293 20.8266 39.9684C23.4818 39.8144 26.4398 39.4538 29.774 36.5981C30.6161 37.0221 31.4976 37.1906 32.9632 37.3175C34.0919 37.4244 35.1776 37.2631 36.0179 37.0855C37.3347 36.8029 37.2434 35.5689 36.7686 35.3442C32.9076 33.525 33.7551 34.2661 32.9829 33.6663C34.9465 31.318 37.9027 28.8791 39.0601 20.977C39.1497 20.3482 39.0726 19.9532 39.0601 19.4459C39.0529 19.1378 39.1228 19.0164 39.4721 18.982C40.4415 18.8803 41.3818 18.5879 42.2402 18.1213C44.7413 16.7388 45.7518 14.4702 45.9901 11.7486C46.0259 11.3318 45.9829 10.9042 45.5476 10.6849ZM23.7488 35.1793C20.0061 32.2041 18.1912 31.2238 17.4422 31.2654C16.7399 31.3089 16.8671 32.1189 17.0212 32.648C17.1825 33.1698 17.3921 33.5286 17.6859 33.987C17.8902 34.2896 18.0299 34.7408 17.4835 35.0797C16.2777 35.8335 14.1833 34.826 14.0847 34.7771C11.6463 33.3239 9.60565 31.4068 8.17056 28.7848C6.78383 26.2607 5.9776 23.5536 5.84502 20.6635C5.80919 19.9641 6.01164 19.7177 6.69963 19.5908C7.60281 19.416 8.52822 19.3921 9.43903 19.5202C13.2588 20.0855 16.5088 21.8123 19.2357 24.5466C20.7908 26.1049 21.9679 27.9658 23.1808 29.785C24.4708 31.7166 25.8575 33.5576 27.6241 35.0652C28.2476 35.5943 28.7439 35.9965 29.2204 36.2919C27.7835 36.455 25.3863 36.4912 23.7488 35.1793ZM25.5404 23.5101C25.5401 23.4201 25.5615 23.3314 25.6027 23.2516C25.6438 23.1718 25.7036 23.1034 25.7768 23.0522C25.85 23.001 25.9344 22.9686 26.0228 22.9578C26.1112 22.9469 26.2008 22.958 26.2839 22.9901C26.3899 23.0286 26.4814 23.0995 26.5457 23.1931C26.6099 23.2866 26.6437 23.3981 26.6423 23.512C26.6425 23.5855 26.6283 23.6584 26.6004 23.7264C26.5725 23.7943 26.5315 23.856 26.4798 23.9078C26.4281 23.9596 26.3668 24.0004 26.2993 24.028C26.2318 24.0555 26.1596 24.0692 26.0869 24.0682C26.0147 24.0685 25.9431 24.0542 25.8765 24.0261C25.8098 23.9981 25.7494 23.9569 25.6986 23.9049C25.6479 23.8529 25.608 23.7912 25.5811 23.7235C25.5542 23.6557 25.5392 23.5832 25.5404 23.5101ZM31.1124 26.4021C30.7541 26.5488 30.3975 26.6757 30.0553 26.692C29.5405 26.7101 29.0353 26.5475 28.6256 26.2317C28.1347 25.815 27.7835 25.5831 27.6366 24.8583C27.586 24.5041 27.5957 24.1437 27.6653 23.7928C27.7907 23.2003 27.651 22.8198 27.2371 22.4755C26.9021 22.1928 26.4739 22.1149 26.0045 22.1149C25.8437 22.1055 25.6876 22.057 25.5494 21.9736C25.3523 21.8757 25.1911 21.6293 25.3451 21.3249C25.3953 21.227 25.6318 20.9879 25.6891 20.9444C26.3269 20.5784 27.0633 20.6979 27.7423 20.9734C28.373 21.2343 28.8496 21.7127 29.5358 22.3903C30.2363 23.2075 30.3635 23.434 30.763 24.0465C31.0784 24.5267 31.365 25.0195 31.5603 25.5831C31.6803 25.9364 31.5263 26.2245 31.1124 26.4021Z" fill="#4D6BFE"/>
</svg>
