<svg width="48" height="48" viewBox="0 0 48 48" fill="none" xmlns="http://www.w3.org/2000/svg">
<rect width="48" height="48" rx="4" fill="white"/>
<path d="M35.488 22.4473C33.273 21.5044 31.259 20.1462 29.5546 18.446C27.1811 16.0678 25.4878 13.0973 24.6506 9.84335C24.6139 9.69883 24.53 9.57067 24.4123 9.47913C24.2946 9.38759 24.1497 9.33789 24.0006 9.33789C23.8515 9.33789 23.7066 9.38759 23.5889 9.47913C23.4712 9.57067 23.3874 9.69883 23.3506 9.84335C22.5117 13.0969 20.8181 16.067 18.4453 18.446C16.7408 20.146 14.7268 21.5042 12.512 22.4473C11.6453 22.8207 10.7546 23.1207 9.84263 23.3513C9.69722 23.3871 9.56799 23.4705 9.4756 23.5884C9.38322 23.7062 9.33301 23.8516 9.33301 24.0013C9.33301 24.1511 9.38322 24.2965 9.4756 24.4143C9.56799 24.5322 9.69722 24.6156 9.84263 24.6514C10.7546 24.8807 11.6426 25.1807 12.512 25.554C14.727 26.497 16.741 27.8552 18.4453 29.5554C20.8194 31.9338 22.5132 34.9048 23.3506 38.1593C23.3864 38.3048 23.4698 38.434 23.5876 38.5264C23.7055 38.6188 23.8509 38.669 24.0006 38.669C24.1504 38.669 24.2958 38.6188 24.4136 38.5264C24.5315 38.434 24.6149 38.3048 24.6506 38.1593C24.88 37.246 25.18 36.358 25.5533 35.4887C26.4962 33.2737 27.8544 31.2596 29.5546 29.5554C31.9333 27.1818 34.9042 25.4885 38.1586 24.6514C38.3032 24.6146 38.4313 24.5308 38.5229 24.413C38.6144 24.2953 38.6641 24.1505 38.6641 24.0013C38.6641 23.8522 38.6144 23.7074 38.5229 23.5896C38.4313 23.4719 38.3032 23.3881 38.1586 23.3513C37.2457 23.1217 36.3527 22.8194 35.488 22.4473Z" fill="#3186FF"/>
<path d="M35.488 22.4473C33.273 21.5044 31.259 20.1462 29.5546 18.446C27.1811 16.0678 25.4878 13.0973 24.6506 9.84335C24.6139 9.69883 24.53 9.57067 24.4123 9.47913C24.2946 9.38759 24.1497 9.33789 24.0006 9.33789C23.8515 9.33789 23.7066 9.38759 23.5889 9.47913C23.4712 9.57067 23.3874 9.69883 23.3506 9.84335C22.5117 13.0969 20.8181 16.067 18.4453 18.446C16.7408 20.146 14.7268 21.5042 12.512 22.4473C11.6453 22.8207 10.7546 23.1207 9.84263 23.3513C9.69722 23.3871 9.56799 23.4705 9.4756 23.5884C9.38322 23.7062 9.33301 23.8516 9.33301 24.0013C9.33301 24.1511 9.38322 24.2965 9.4756 24.4143C9.56799 24.5322 9.69722 24.6156 9.84263 24.6514C10.7546 24.8807 11.6426 25.1807 12.512 25.554C14.727 26.497 16.741 27.8552 18.4453 29.5554C20.8194 31.9338 22.5132 34.9048 23.3506 38.1593C23.3864 38.3048 23.4698 38.434 23.5876 38.5264C23.7055 38.6188 23.8509 38.669 24.0006 38.669C24.1504 38.669 24.2958 38.6188 24.4136 38.5264C24.5315 38.434 24.6149 38.3048 24.6506 38.1593C24.88 37.246 25.18 36.358 25.5533 35.4887C26.4962 33.2737 27.8544 31.2596 29.5546 29.5554C31.9333 27.1818 34.9042 25.4885 38.1586 24.6514C38.3032 24.6146 38.4313 24.5308 38.5229 24.413C38.6144 24.2953 38.6641 24.1505 38.6641 24.0013C38.6641 23.8522 38.6144 23.7074 38.5229 23.5896C38.4313 23.4719 38.3032 23.3881 38.1586 23.3513C37.2457 23.1217 36.3527 22.8194 35.488 22.4473Z" fill="url(#paint0_linear_5815_59721)"/>
<path d="M35.488 22.4473C33.273 21.5044 31.259 20.1462 29.5546 18.446C27.1811 16.0678 25.4878 13.0973 24.6506 9.84335C24.6139 9.69883 24.53 9.57067 24.4123 9.47913C24.2946 9.38759 24.1497 9.33789 24.0006 9.33789C23.8515 9.33789 23.7066 9.38759 23.5889 9.47913C23.4712 9.57067 23.3874 9.69883 23.3506 9.84335C22.5117 13.0969 20.8181 16.067 18.4453 18.446C16.7408 20.146 14.7268 21.5042 12.512 22.4473C11.6453 22.8207 10.7546 23.1207 9.84263 23.3513C9.69722 23.3871 9.56799 23.4705 9.4756 23.5884C9.38322 23.7062 9.33301 23.8516 9.33301 24.0013C9.33301 24.1511 9.38322 24.2965 9.4756 24.4143C9.56799 24.5322 9.69722 24.6156 9.84263 24.6514C10.7546 24.8807 11.6426 25.1807 12.512 25.554C14.727 26.497 16.741 27.8552 18.4453 29.5554C20.8194 31.9338 22.5132 34.9048 23.3506 38.1593C23.3864 38.3048 23.4698 38.434 23.5876 38.5264C23.7055 38.6188 23.8509 38.669 24.0006 38.669C24.1504 38.669 24.2958 38.6188 24.4136 38.5264C24.5315 38.434 24.6149 38.3048 24.6506 38.1593C24.88 37.246 25.18 36.358 25.5533 35.4887C26.4962 33.2737 27.8544 31.2596 29.5546 29.5554C31.9333 27.1818 34.9042 25.4885 38.1586 24.6514C38.3032 24.6146 38.4313 24.5308 38.5229 24.413C38.6144 24.2953 38.6641 24.1505 38.6641 24.0013C38.6641 23.8522 38.6144 23.7074 38.5229 23.5896C38.4313 23.4719 38.3032 23.3881 38.1586 23.3513C37.2457 23.1217 36.3527 22.8194 35.488 22.4473Z" fill="url(#paint1_linear_5815_59721)"/>
<path d="M35.488 22.4473C33.273 21.5044 31.259 20.1462 29.5546 18.446C27.1811 16.0678 25.4878 13.0973 24.6506 9.84335C24.6139 9.69883 24.53 9.57067 24.4123 9.47913C24.2946 9.38759 24.1497 9.33789 24.0006 9.33789C23.8515 9.33789 23.7066 9.38759 23.5889 9.47913C23.4712 9.57067 23.3874 9.69883 23.3506 9.84335C22.5117 13.0969 20.8181 16.067 18.4453 18.446C16.7408 20.146 14.7268 21.5042 12.512 22.4473C11.6453 22.8207 10.7546 23.1207 9.84263 23.3513C9.69722 23.3871 9.56799 23.4705 9.4756 23.5884C9.38322 23.7062 9.33301 23.8516 9.33301 24.0013C9.33301 24.1511 9.38322 24.2965 9.4756 24.4143C9.56799 24.5322 9.69722 24.6156 9.84263 24.6514C10.7546 24.8807 11.6426 25.1807 12.512 25.554C14.727 26.497 16.741 27.8552 18.4453 29.5554C20.8194 31.9338 22.5132 34.9048 23.3506 38.1593C23.3864 38.3048 23.4698 38.434 23.5876 38.5264C23.7055 38.6188 23.8509 38.669 24.0006 38.669C24.1504 38.669 24.2958 38.6188 24.4136 38.5264C24.5315 38.434 24.6149 38.3048 24.6506 38.1593C24.88 37.246 25.18 36.358 25.5533 35.4887C26.4962 33.2737 27.8544 31.2596 29.5546 29.5554C31.9333 27.1818 34.9042 25.4885 38.1586 24.6514C38.3032 24.6146 38.4313 24.5308 38.5229 24.413C38.6144 24.2953 38.6641 24.1505 38.6641 24.0013C38.6641 23.8522 38.6144 23.7074 38.5229 23.5896C38.4313 23.4719 38.3032 23.3881 38.1586 23.3513C37.2457 23.1217 36.3527 22.8194 35.488 22.4473Z" fill="url(#paint2_linear_5815_59721)"/>
<defs>
<linearGradient id="paint0_linear_5815_59721" x1="17.3333" y1="28.6673" x2="22.6666" y2="24.0007" gradientUnits="userSpaceOnUse">
<stop stop-color="#08B962"/>
<stop offset="1" stop-color="#08B962" stop-opacity="0"/>
</linearGradient>
<linearGradient id="paint1_linear_5815_59721" x1="18.6666" y1="15.334" x2="23.3333" y2="22.6673" gradientUnits="userSpaceOnUse">
<stop stop-color="#F94543"/>
<stop offset="1" stop-color="#F94543" stop-opacity="0"/>
</linearGradient>
<linearGradient id="paint2_linear_5815_59721" x1="12.6666" y1="26.0007" x2="31.3333" y2="24.0007" gradientUnits="userSpaceOnUse">
<stop stop-color="#FABC12"/>
<stop offset="0.46" stop-color="#FABC12" stop-opacity="0"/>
</linearGradient>
</defs>
</svg>
