<svg width="48" height="48" viewBox="0 0 48 48" fill="none" xmlns="http://www.w3.org/2000/svg">
<rect width="48" height="48" rx="4" fill="white"/>
<path fill-rule="evenodd" clip-rule="evenodd" d="M20.36 28.386L30.9973 20.5233C31.5187 20.1367 32.264 20.2873 32.5133 20.886C33.82 24.0447 33.236 27.8393 30.6333 30.4447C28.032 33.05 24.4107 33.6207 21.1013 32.3193L17.4867 33.9953C22.672 37.5434 28.968 36.666 32.9027 32.7247C36.024 29.5993 36.9907 25.3393 36.0867 21.498L36.0947 21.5073C34.784 15.8647 36.4173 13.6087 39.7613 8.99668C39.8413 8.88735 39.9213 8.77802 40 8.66602L35.5987 13.0727V13.0593L20.356 28.3887M18.164 30.2967C14.4413 26.7367 15.084 21.2287 18.2587 18.0513C20.6067 15.7007 24.4547 14.7407 27.8133 16.1513L31.42 14.4847C30.6704 13.9332 29.8502 13.4848 28.9813 13.1513C26.7971 12.2573 24.3972 12.0292 22.0836 12.4956C19.77 12.9621 17.6459 14.1022 15.9787 15.7727C12.6013 19.154 11.5387 24.354 13.3627 28.7913C14.7253 32.1073 12.492 34.4527 10.2427 36.8207C9.444 37.6607 8.644 38.4993 8 39.3874L18.16 30.3007" fill="black"/>
</svg>
