<svg width="200" height="140" viewBox="0 0 200 140" fill="none" xmlns="http://www.w3.org/2000/svg">
<g clip-path="url(#clip0_2662_56572)">
<path d="M150 115H69V59.12C69 57.4 70.2721 56 71.8808 56H101.138C102.635 56 103.869 57.24 104.019 58.84V62L148 62C149.048 62 150 63.04 150 64.16V115Z" fill="#333333" stroke="#AAAAAA" stroke-width="2"/>
<path d="M50.501 83.5C49.5009 89.9998 49.5754 93.0012 53.5011 95.9996C56.1598 98.0302 61.2751 96.9933 63.4905 96.772" stroke="#AAAAAA" stroke-width="2" stroke-linecap="round"/>
<path d="M165.725 82.9992C166.725 89.499 168.151 93.0006 164.225 95.999C161.566 98.0296 156.451 96.9928 154.236 96.7715" stroke="#AAAAAA" stroke-width="2" stroke-linecap="round"/>
<path d="M165.477 82.6496C165.704 83.2567 166.463 83.6262 167.586 83.8725C169.088 84.2019 169.737 83.587 170.605 82.9323" stroke="#AAAAAA" stroke-width="2" stroke-linecap="round"/>
<path d="M149.622 121H68.5451C67.1213 121 65.9348 119.896 65.8557 118.438L63.0006 75C62.8819 73.3838 64.4187 71.9606 66.0007 72H111.001L118 66H152.5C155 66 156.108 68.2575 155.95 69.8737L152.272 118.477C152.193 119.896 151.006 121 149.622 121Z" fill="#444444" stroke="#AAAAAA" stroke-width="2"/>
<path d="M174.695 33.6066L168.969 32.0724C167.521 31.6844 166.605 30.2595 166.854 28.7815L166.873 28.6677C167.052 27.6103 167.833 26.7552 168.87 26.4823C170.141 26.1475 171.471 26.7678 172.032 27.9576L174.695 33.6066Z" fill="#5EA3BE" stroke="#9ADAF3" stroke-width="2"/>
<path d="M174.695 35.9988L168.969 37.5331C167.521 37.921 166.605 39.346 166.854 40.824L166.873 40.9378C167.052 41.9952 167.833 42.8503 168.87 43.1232C170.141 43.458 171.471 42.8376 172.032 41.6479L174.695 35.9988Z" fill="#5EA3BE" stroke="#9ADAF3" stroke-width="2"/>
<circle cx="178.674" cy="35.0566" r="2" transform="rotate(90 178.674 35.0566)" fill="#5EA3BE" stroke="#9ADAF3" stroke-width="2"/>
<path d="M24.176 41.524C28.4008 37.7776 34.5778 35.1362 38.048 33.7848C38.5992 33.5701 39.2114 33.8856 39.3645 34.4571L45.7203 58.1772C45.9254 58.9427 45.1966 59.6417 44.4236 59.4666C35.4884 57.4433 27.3157 61.9072 18.9514 62.5942C12.4536 63.1278 6.04811 60.7214 1.76673 58.3188C0.831157 57.7937 1.45563 55.8649 2.5152 55.6968C4.20327 55.4291 6.21497 54.9185 8.37696 54.0395C15.8455 51.003 18.3204 46.7164 24.176 41.524Z" fill="#5EA3BE" stroke="#9ADAF3" stroke-width="2"/>
<ellipse cx="42.5726" cy="46.4296" rx="3.5" ry="14" transform="rotate(-15 42.5726 46.4296)" fill="#5EA3BE" stroke="#9ADAF3" stroke-width="2"/>
<path d="M33.1883 36.5209C32.8578 38.5075 32.5075 43.6397 33.7499 48.2761C34.9922 52.9126 37.8301 57.7081 38.6581 58.8666" stroke="#9ADAF3" stroke-width="2" stroke-linecap="round" stroke-dasharray="3 3"/>
<path d="M27.3951 39.625C27.2256 41.5684 27.3249 45.5448 28.5672 50.1813C29.8095 54.8177 31.9694 58.2421 32.7009 59.4264" stroke="#9ADAF3" stroke-width="2" stroke-linecap="round" stroke-dasharray="3 3"/>
<path d="M22.5041 43.0058C22.3347 44.9492 21.7887 48.0633 23.031 52.6997C24.2734 57.3362 26.045 59.3116 26.7765 60.496" stroke="#9ADAF3" stroke-width="2" stroke-linecap="round" stroke-dasharray="3 3"/>
<path d="M17.6129 47.9399C17.0352 49.6476 17.0699 51.7089 17.9758 55.0896C19.2181 59.726 20.6343 60.7615 21.3658 61.9458" stroke="#9ADAF3" stroke-width="2" stroke-linecap="round" stroke-dasharray="3 3"/>
<path d="M12.7551 51.8301C11.669 59.3681 14.3775 61.7482 15.6022 62.4553" stroke="#9ADAF3" stroke-width="2" stroke-linecap="round" stroke-dasharray="3 3"/>
<rect x="43.5234" y="59.6328" width="2" height="37" rx="1" transform="rotate(-15 43.5234 59.6328)" fill="#9ADAF3"/>
<path d="M48.7695 83.246C48.5621 82.6318 48.7203 81.932 49.1081 81.142C49.6269 80.0854 50.2398 80.2457 50.9733 80.3239" stroke="#AAAAAA" stroke-width="2" stroke-linecap="round"/>
<path d="M88 42.499C88 29.9992 100.5 16.9992 121 20.999C141.5 24.9988 142.829 51.4845 131.5 47.9989C125 45.999 126 38.4989 131.5 35.4989C135.9 33.0989 144 32.999 158 34.499" stroke="#9ADAF3" stroke-width="2" stroke-linecap="round" stroke-dasharray="4 4"/>
<path d="M96.5 97H104.135C104.601 97 104.814 96.4192 104.458 96.1183L99 91.5" stroke="#AAAAAA" stroke-width="2" stroke-linecap="round"/>
<path d="M122 97H114.365C113.899 97 113.686 96.4192 114.042 96.1183L119.5 91.5" stroke="#AAAAAA" stroke-width="2" stroke-linecap="round"/>
<path d="M111.25 105.165C110.56 103.969 110.969 102.44 112.165 101.75C113.361 101.06 114.89 101.469 115.58 102.665L116.83 104.83L112.5 107.33L111.25 105.165Z" fill="#808080"/>
<path d="M104 105C104.545 106.5 107.273 108 110 108C112.727 108 115.455 106.5 116 105" stroke="#AAAAAA" stroke-width="2" stroke-linecap="round"/>
</g>
<defs>
<clipPath id="clip0_2662_56572">
<rect width="200" height="140" fill="white"/>
</clipPath>
</defs>
</svg>
