<!--
  - (c) Copyright Ascensio System SIA 2009-2026
  -
  - This program is a free software product.
  - You can redistribute it and/or modify it under the terms
  - of the GNU Affero General Public License (AGPL) version 3 as published by the Free Software
  - Foundation. In accordance with Section 7(a) of the GNU AGPL its Section 15 shall be amended
  - to the effect that Ascensio System SIA expressly excludes the warranty of non-infringement of
  - any third-party rights.
  -
  - This program is distributed WITHOUT ANY WARRANTY, without even the implied warranty
  - of MERCHANTABILITY or FITNESS FOR A PARTICULAR  PURPOSE. For details, see
  - the GNU AGPL at: http://www.gnu.org/licenses/agpl-3.0.html
  -
  - You can contact Ascensio System SIA at Lubanas st. 125a-25, Riga, Latvia, EU, LV-1021.
  -
  - The  interactive user interfaces in modified source and object code versions of the Program must
  - display Appropriate Legal Notices, as required under Section 5 of the GNU AGPL version 3.
  -
  - Pursuant to Section 7(b) of the License you must retain the original Product logo when
  - distributing the program. Pursuant to Section 7(e) we decline to grant you any rights under
  - trademark law for use of our trademarks.
  -
  - All the Product's GUI elements, including illustrations and icon sets, as well as technical writing
  - content are licensed under the terms of the Creative Commons Attribution-ShareAlike 4.0
  - International. See the License terms at http://creativecommons.org/licenses/by-sa/4.0/legalcode
  -->

<svg width="12" height="12" viewBox="0 0 12 12" fill="none" xmlns="http://www.w3.org/2000/svg">
    <path fill-rule="evenodd" clip-rule="evenodd" d="M7.5 5.00017C7.22386 5.00017 7 4.77631 7 4.50017L7 0.500075C7 0.223933 6.77614 7.54822e-05 6.5 7.55296e-05H5.5C5.22386 7.54796e-05 5 0.223933 5 0.500075L5 4.50017C5 4.77631 4.77614 5.00017 4.5 5.00017L0.500001 5.00017C0.223859 5.00017 1.00353e-06 5.22402 1.09046e-06 5.50017L5.84693e-07 6.50017C7.11133e-07 6.77631 0.223858 7.00017 0.500001 7.00017L4.5 7.00017C4.77614 7.00017 5 7.22402 5 7.50017V11.5001C5 11.7762 5.22386 12.0001 5.5 12.0001L6.5 12.0001C6.77614 12.0001 7 11.7762 7 11.5001V7.50017C7 7.22402 7.22386 7.00017 7.5 7.00017L11.5 7.00017C11.7761 7.00017 12 6.77631 12 6.50017L12 5.50017C12 5.22402 11.7761 5.00017 11.5 5.00017L7.5 5.00017Z" fill="#657077"/>
</svg>
